<!-- Generated by IcoMoon.io -->
<svg version="1.1" xmlns="http://www.w3.org/2000/svg" width="24" height="24" viewBox="0 0 24 24">
<title>address-book</title>
<path d="M4.5 0v24h18v-24h-18zM13.5 6.008c1.653 0 2.992 1.34 2.992 2.992s-1.34 2.992-2.992 2.992-2.992-1.34-2.992-2.992 1.34-2.992 2.992-2.992v0zM18 18h-9v-1.5c0-1.657 1.343-3 3-3v0h3c1.657 0 3 1.343 3 3v1.5z"></path>
<path d="M1.5 1.5h2.25v4.5h-2.25v-4.5z"></path>
<path d="M1.5 7.5h2.25v4.5h-2.25v-4.5z"></path>
<path d="M1.5 13.5h2.25v4.5h-2.25v-4.5z"></path>
<path d="M1.5 19.5h2.25v4.5h-2.25v-4.5z"></path>
</svg>
