<!-- Generated by IcoMoon.io -->
<svg version="1.1" xmlns="http://www.w3.org/2000/svg" width="24" height="24" viewBox="0 0 24 24">
<title>alarm</title>
<path d="M12 3c-5.799 0-10.5 4.701-10.5 10.5s4.701 10.5 10.5 10.5 10.5-4.701 10.5-10.5-4.701-10.5-10.5-10.5zM12 21.938c-4.66 0-8.438-3.778-8.438-8.438s3.778-8.438 8.438-8.438c4.66 0 8.438 3.778 8.438 8.438s-3.778 8.438-8.438 8.438zM21.909 6.731c0.376-0.657 0.591-1.419 0.591-2.231 0-2.485-2.015-4.5-4.5-4.5-1.449 0-2.738 0.685-3.561 1.748 3.091 0.638 5.747 2.466 7.47 4.982v0zM9.561 1.748c-0.823-1.063-2.112-1.748-3.561-1.748-2.485 0-4.5 2.015-4.5 4.5 0 0.812 0.215 1.573 0.591 2.231 1.723-2.517 4.379-4.344 7.47-4.982z"></path>
<path d="M12 13.5v-6h-1.5v7.5h6v-1.5z"></path>
</svg>
