<!-- Generated by IcoMoon.io -->
<svg version="1.1" xmlns="http://www.w3.org/2000/svg" width="24" height="24" viewBox="0 0 24 24">
<title>android</title>
<path d="M21 9c-0.825 0-1.5 0.675-1.5 1.5v6c0 0.825 0.675 1.5 1.5 1.5s1.5-0.675 1.5-1.5v-6c0-0.825-0.675-1.5-1.5-1.5zM3 9c-0.825 0-1.5 0.675-1.5 1.5v6c0 0.825 0.675 1.5 1.5 1.5s1.5-0.675 1.5-1.5v-6c0-0.825-0.675-1.5-1.5-1.5zM5.25 17.25c0 1.243 1.007 2.25 2.25 2.25v0 3c0 0.825 0.675 1.5 1.5 1.5s1.5-0.675 1.5-1.5v-3h3v3c0 0.825 0.675 1.5 1.5 1.5s1.5-0.675 1.5-1.5v-3c1.243 0 2.25-1.007 2.25-2.25v-8.25h-13.5v8.25z"></path>
<path d="M18.708 7.5c-0.228-2.060-1.383-3.839-3.038-4.914l0.751-1.501c0.185-0.37 0.035-0.821-0.335-1.006s-0.821-0.035-1.006 0.335l-0.753 1.507-0.196-0.078c-0.67-0.223-1.386-0.344-2.13-0.344s-1.461 0.121-2.13 0.344l-0.196 0.078-0.753-1.507c-0.185-0.37-0.636-0.521-1.006-0.335s-0.521 0.636-0.335 1.006l0.751 1.501c-1.655 1.075-2.81 2.854-3.038 4.914v0.75h13.458v-0.75h-0.042zM9.75 6c-0.414 0-0.75-0.336-0.75-0.75s0.335-0.749 0.748-0.75c0.001 0 0.001 0 0.002 0s0.001-0 0.001-0c0.413 0.001 0.748 0.336 0.748 0.75s-0.336 0.75-0.75 0.75zM14.25 6c-0.414 0-0.75-0.336-0.75-0.75s0.335-0.749 0.748-0.75c0 0 0.001 0 0.001 0s0.001-0 0.002-0c0.413 0.001 0.748 0.336 0.748 0.75s-0.336 0.75-0.75 0.75z"></path>
</svg>
