<!-- Generated by IcoMoon.io -->
<svg version="1.1" xmlns="http://www.w3.org/2000/svg" width="24" height="24" viewBox="0 0 24 24">
<title>angry2</title>
<path d="M12 0c-6.627 0-12 5.373-12 12s5.373 12 12 12 12-5.373 12-12-5.373-12-12-12zM13.502 8.918c0.048-1.112 1.060-1.85 1.912-2.277 0.814-0.407 1.62-0.611 1.653-0.619 0.402-0.101 0.809 0.144 0.91 0.546s-0.144 0.809-0.546 0.91c-0.413 0.104-0.903 0.284-1.334 0.5 0.25 0.268 0.403 0.627 0.403 1.022 0 0.828-0.672 1.5-1.5 1.5s-1.5-0.672-1.5-1.5c0-0.027 0.001-0.055 0.002-0.082zM6.022 6.568c0.101-0.402 0.508-0.646 0.91-0.546 0.034 0.008 0.839 0.212 1.653 0.619 0.853 0.426 1.865 1.164 1.912 2.277 0.001 0.027 0.002 0.054 0.002 0.082 0 0.828-0.672 1.5-1.5 1.5s-1.5-0.672-1.5-1.5c0-0.395 0.153-0.754 0.403-1.022-0.432-0.216-0.921-0.396-1.334-0.5-0.402-0.1-0.646-0.508-0.546-0.909zM16.502 18.299c-0.918-1.527-2.591-2.549-4.502-2.549s-3.584 1.022-4.502 2.549l-1.93-1.158c1.312-2.181 3.701-3.641 6.432-3.641s5.12 1.46 6.432 3.641l-1.93 1.158z"></path>
</svg>
