<!-- Generated by IcoMoon.io -->
<svg version="1.1" xmlns="http://www.w3.org/2000/svg" width="24" height="24" viewBox="0 0 24 24">
<title>arrow-up-right2</title>
<path d="M5.561 20.561l12.439-12.439v5.379c0 0.828 0.672 1.5 1.5 1.5s1.5-0.672 1.5-1.5v-9c0-0.607-0.365-1.154-0.926-1.386-0.186-0.077-0.381-0.113-0.574-0.113v-0.001h-9c-0.828 0-1.5 0.672-1.5 1.5s0.672 1.5 1.5 1.5h5.379l-12.439 12.439c-0.293 0.293-0.439 0.677-0.439 1.061s0.146 0.768 0.439 1.061c0.586 0.586 1.536 0.586 2.121 0z"></path>
</svg>
