<!-- Generated by IcoMoon.io -->
<svg version="1.1" xmlns="http://www.w3.org/2000/svg" width="24" height="24" viewBox="0 0 24 24">
<title>arrow-down-left2</title>
<path d="M18.439 3.439l-12.439 12.439v-5.379c0-0.828-0.672-1.5-1.5-1.5s-1.5 0.672-1.5 1.5v9c0 0.607 0.365 1.154 0.926 1.386 0.186 0.077 0.381 0.113 0.574 0.113v0.001l9-0c0.828 0 1.5-0.672 1.5-1.5s-0.672-1.5-1.5-1.5h-5.379l12.439-12.439c0.293-0.293 0.439-0.677 0.439-1.061s-0.146-0.768-0.439-1.061c-0.586-0.586-1.536-0.586-2.121 0v0z"></path>
</svg>
