<!-- Generated by IcoMoon.io -->
<svg version="1.1" xmlns="http://www.w3.org/2000/svg" width="24" height="24" viewBox="0 0 24 24">
<title>arrow-down-right2</title>
<path d="M3.439 5.561l12.439 12.439h-5.379c-0.828 0-1.5 0.672-1.5 1.5s0.672 1.5 1.5 1.5h9c0.607 0 1.154-0.365 1.386-0.926 0.077-0.186 0.113-0.381 0.113-0.574h0.001v-9c0-0.828-0.672-1.5-1.5-1.5s-1.5 0.672-1.5 1.5v5.379l-12.439-12.439c-0.293-0.293-0.677-0.439-1.061-0.439s-0.768 0.146-1.061 0.439c-0.586 0.586-0.586 1.536 0 2.121z"></path>
</svg>
