<!-- Generated by IcoMoon.io -->
<svg version="1.1" xmlns="http://www.w3.org/2000/svg" width="24" height="24" viewBox="0 0 24 24">
<title>barcode</title>
<path d="M0 3h3v15h-3zM4.5 3h1.5v15h-1.5zM7.5 3h1.5v15h-1.5zM12 3h1.5v15h-1.5zM18 3h1.5v15h-1.5zM22.5 3h1.5v15h-1.5zM15 3h0.75v15h-0.75zM10.5 3h0.75v15h-0.75zM20.25 3h0.75v15h-0.75zM0 19.5h1.5v1.5h-1.5zM4.5 19.5h1.5v1.5h-1.5zM7.5 19.5h1.5v1.5h-1.5zM15 19.5h1.5v1.5h-1.5zM22.5 19.5h1.5v1.5h-1.5zM18 19.5h3v1.5h-3zM10.5 19.5h3v1.5h-3z"></path>
</svg>
