<!-- Generated by IcoMoon.io -->
<svg version="1.1" xmlns="http://www.w3.org/2000/svg" width="24" height="24" viewBox="0 0 24 24">
<title>basecamp</title>
<path d="M12 2.498c-4.378 0-7.753 3.666-9.666 7.256-1.078 2.020-1.833 4.233-2.18 6.497-0.037 0.258-0.075 0.516-0.103 0.778-0.014 0.141-0.028 0.281-0.038 0.422-0.014 0.178-0.005 0.234 0.089 0.384 0.281 0.455 0.614 0.877 0.989 1.256 0.769 0.788 1.702 1.392 2.691 1.861 2.255 1.064 4.8 1.448 7.275 1.533 2.555 0.084 5.18-0.127 7.622-0.923 2.086-0.68 4.097-1.866 5.255-3.783 0.127-0.206 0.037-0.511 0.014-0.75-0.028-0.286-0.066-0.567-0.112-0.848-0.084-0.553-0.197-1.097-0.333-1.641-0.272-1.106-0.642-2.194-1.092-3.239-1.631-3.787-4.65-7.828-8.944-8.663-0.483-0.094-0.975-0.141-1.467-0.141zM12.15 20.864c-2.677 0-5.592-0.239-8.002-1.528-0.938-0.502-1.894-1.228-2.344-2.227-0.131-0.291-0.084-0.403-0.023-0.745 0.042-0.22 0.061-0.436 0.159-0.642 0.136-0.286 0.277-0.567 0.422-0.848 0.492-0.952 1.022-1.894 1.636-2.78 0.305-0.436 0.628-0.867 1.003-1.242 0.263-0.262 0.581-0.544 0.952-0.633 1.134-0.272 2.002 1.041 2.691 1.702 0.333 0.319 0.778 0.68 1.275 0.619 0.342-0.042 0.647-0.309 0.891-0.53 0.83-0.745 1.495-1.669 2.184-2.536 0.342-0.427 0.68-0.858 1.050-1.266 0.248-0.277 0.52-0.591 0.853-0.769 0.595-0.323 1.355 0.342 1.767 0.684 0.703 0.586 1.327 1.27 1.922 1.964 0.567 0.661 1.116 1.331 1.598 2.058 0.745 1.125 1.392 2.325 1.983 3.539 0.127 0.262 0.169 0.441 0.216 0.731 0.028 0.159 0.089 0.342 0.066 0.506-0.033 0.23-0.192 0.478-0.309 0.666-0.281 0.445-0.661 0.83-1.078 1.153-1.748 1.355-4.116 1.805-6.267 2.006-0.881 0.084-1.763 0.117-2.644 0.117z"></path>
</svg>
