<!-- Generated by IcoMoon.io -->
<svg version="1.1" xmlns="http://www.w3.org/2000/svg" width="24" height="24" viewBox="0 0 24 24">
<title>behance2</title>
<path d="M9.473 10.514c0.305-0.22 0.45-0.586 0.45-1.092 0-0.281-0.047-0.511-0.145-0.689-0.103-0.178-0.234-0.319-0.408-0.417-0.169-0.103-0.361-0.173-0.581-0.211-0.216-0.042-0.445-0.061-0.68-0.061h-2.47v2.803h2.672c0.469 0.005 0.858-0.108 1.162-0.333z"></path>
<path d="M9.891 13.045c-0.347-0.263-0.806-0.394-1.378-0.394h-2.873v3.305h2.817c0.262 0 0.506-0.023 0.741-0.075s0.445-0.131 0.623-0.253c0.178-0.117 0.323-0.277 0.431-0.478s0.159-0.464 0.159-0.778c0-0.619-0.173-1.059-0.52-1.327z"></path>
<path d="M21.75 0h-19.5c-1.237 0-2.25 1.013-2.25 2.25v19.5c0 1.237 1.013 2.25 2.25 2.25h19.5c1.237 0 2.25-1.013 2.25-2.25v-19.5c0-1.237-1.013-2.25-2.25-2.25zM15.731 6.314h4.861v1.186h-4.861v-1.186zM12.694 16.087c-0.234 0.445-0.553 0.806-0.947 1.087-0.398 0.281-0.853 0.488-1.364 0.623-0.506 0.136-1.031 0.202-1.566 0.202h-5.817v-11.995h5.653c0.572 0 1.092 0.052 1.566 0.15 0.469 0.098 0.872 0.267 1.209 0.497 0.333 0.23 0.595 0.534 0.783 0.914 0.183 0.375 0.277 0.848 0.277 1.406 0 0.605-0.136 1.106-0.412 1.509s-0.68 0.731-1.223 0.989c0.741 0.211 1.284 0.586 1.645 1.116 0.366 0.534 0.544 1.177 0.544 1.927 0.005 0.614-0.112 1.139-0.347 1.575zM22.486 14.231h-6.267c0 0.684 0.234 1.336 0.591 1.688 0.356 0.347 0.872 0.525 1.542 0.525 0.483 0 0.895-0.122 1.247-0.366 0.347-0.244 0.558-0.502 0.637-0.769h2.1c-0.338 1.045-0.848 1.791-1.547 2.241-0.689 0.45-1.533 0.675-2.513 0.675-0.684 0-1.298-0.113-1.852-0.328-0.553-0.22-1.012-0.53-1.402-0.933-0.38-0.403-0.67-0.886-0.881-1.448-0.206-0.558-0.314-1.181-0.314-1.852 0-0.652 0.108-1.256 0.319-1.819 0.216-0.563 0.516-1.050 0.909-1.453 0.394-0.408 0.862-0.731 1.406-0.97 0.544-0.234 1.144-0.352 1.809-0.352 0.736 0 1.378 0.141 1.931 0.431 0.548 0.286 0.998 0.67 1.355 1.153s0.605 1.031 0.764 1.65c0.155 0.609 0.206 1.252 0.164 1.927z"></path>
<path d="M18.202 10.87c-0.38 0-0.698 0.066-0.947 0.197s-0.45 0.291-0.605 0.478c-0.155 0.192-0.258 0.394-0.319 0.614-0.061 0.211-0.098 0.403-0.108 0.572h3.881c-0.056-0.609-0.267-1.059-0.548-1.373-0.291-0.319-0.769-0.488-1.355-0.488z"></path>
</svg>
