<!-- Generated by IcoMoon.io -->
<svg version="1.1" xmlns="http://www.w3.org/2000/svg" width="24" height="24" viewBox="0 0 24 24">
<title>bell</title>
<path d="M24.035 18.75c0-6.75-6-5.25-6-10.5 0-0.435-0.042-0.807-0.118-1.123-0.394-2.649-2.16-4.775-4.448-5.423 0.020-0.093 0.031-0.188 0.031-0.286 0-0.78-0.675-1.418-1.5-1.418s-1.5 0.638-1.5 1.418c0 0.098 0.011 0.194 0.031 0.286-2.566 0.727-4.475 3.312-4.529 6.409-0.001 0.045-0.002 0.091-0.002 0.137 0 5.25-6 3.75-6 10.5 0 1.787 3.998 3.281 9.351 3.658 0.504 0.947 1.501 1.592 2.649 1.592s2.145-0.645 2.649-1.592c5.353-0.377 9.351-1.872 9.351-3.658 0-0.005-0.001-0.011-0.001-0.016l0.036 0.016zM19.365 20.018c-1.271 0.339-2.769 0.583-4.377 0.718-0.134-1.533-1.42-2.736-2.988-2.736s-2.854 1.203-2.988 2.736c-1.608-0.135-3.106-0.379-4.377-0.718-1.749-0.467-2.585-0.989-2.891-1.268 0.306-0.279 1.142-0.801 2.891-1.268 2.034-0.543 4.649-0.841 7.365-0.841s5.331 0.299 7.365 0.841c1.749 0.467 2.585 0.989 2.891 1.268-0.306 0.279-1.142 0.801-2.891 1.268z"></path>
</svg>
