<!-- Generated by IcoMoon.io -->
<svg version="1.1" xmlns="http://www.w3.org/2000/svg" width="24" height="24" viewBox="0 0 24 24">
<title>binoculars</title>
<path d="M1.5 0h9v1.5h-9zM13.5 0h9v1.5h-9zM22.313 7.5h-1.313v-6h-6v6h-6v-6h-6v6h-1.313c-0.928 0-1.688 0.759-1.688 1.688v13.125c0 0.928 0.759 1.688 1.688 1.688h7.125c0.928 0 1.688-0.759 1.688-1.688v-8.813h3v8.813c0 0.928 0.759 1.688 1.688 1.688h7.125c0.928 0 1.688-0.759 1.688-1.688v-13.125c0-0.928-0.759-1.688-1.688-1.688zM8.156 22.5h-5.813c-0.464 0-0.844-0.337-0.844-0.75s0.38-0.75 0.844-0.75h5.813c0.464 0 0.844 0.337 0.844 0.75s-0.38 0.75-0.844 0.75zM12.75 12h-1.5c-0.413 0-0.75-0.337-0.75-0.75s0.337-0.75 0.75-0.75h1.5c0.413 0 0.75 0.337 0.75 0.75s-0.337 0.75-0.75 0.75zM21.656 22.5h-5.813c-0.464 0-0.844-0.337-0.844-0.75s0.38-0.75 0.844-0.75h5.813c0.464 0 0.844 0.337 0.844 0.75s-0.38 0.75-0.844 0.75z"></path>
</svg>
