<!-- Generated by IcoMoon.io -->
<svg version="1.1" xmlns="http://www.w3.org/2000/svg" width="24" height="24" viewBox="0 0 24 24">
<title>blocked</title>
<path d="M20.485 3.515c-2.267-2.266-5.28-3.515-8.485-3.515s-6.219 1.248-8.485 3.515c-2.266 2.267-3.515 5.28-3.515 8.485s1.248 6.219 3.515 8.485c2.267 2.266 5.28 3.515 8.485 3.515s6.219-1.248 8.485-3.515c2.266-2.267 3.515-5.28 3.515-8.485s-1.248-6.219-3.515-8.485zM21 12c0 1.941-0.618 3.74-1.667 5.212l-12.545-12.545c1.472-1.049 3.271-1.667 5.212-1.667 4.963 0 9 4.037 9 9zM3 12c0-1.941 0.618-3.74 1.667-5.212l12.545 12.545c-1.472 1.049-3.271 1.667-5.212 1.667-4.963 0-9-4.037-9-9z"></path>
</svg>
