<!-- Generated by IcoMoon.io -->
<svg version="1.1" xmlns="http://www.w3.org/2000/svg" width="24" height="24" viewBox="0 0 24 24">
<title>blogger2</title>
<path d="M21.75 0h-19.5c-1.237 0-2.25 1.013-2.25 2.25v19.5c0 1.237 1.013 2.25 2.25 2.25h19.5c1.237 0 2.25-1.013 2.25-2.25v-19.5c0-1.237-1.013-2.25-2.25-2.25zM21 15.188c0 3.211-2.611 5.813-5.845 5.813h-6.3c-3.234 0-5.855-2.602-5.855-5.813v-6.375c0-3.211 2.62-5.813 5.855-5.813h2.948c3.234 0 5.822 2.414 5.822 5.625 0.042 0.6 0.586 1.125 1.2 1.125h1.008c0.647 0 1.162 0.68 1.162 1.322v4.116z"></path>
<path d="M16.5 15c0 0.825-0.675 1.5-1.5 1.5h-6c-0.825 0-1.5-0.675-1.5-1.5v0c0-0.825 0.675-1.5 1.5-1.5h6c0.825 0 1.5 0.675 1.5 1.5v0z"></path>
<path d="M13.5 9c0 0.825-0.675 1.5-1.5 1.5h-3c-0.825 0-1.5-0.675-1.5-1.5v0c0-0.825 0.675-1.5 1.5-1.5h3c0.825 0 1.5 0.675 1.5 1.5v0z"></path>
</svg>
