<!-- Generated by IcoMoon.io -->
<svg version="1.1" xmlns="http://www.w3.org/2000/svg" width="24" height="24" viewBox="0 0 24 24">
<title>blog</title>
<path d="M9 0v2.25c1.722 0 3.392 0.337 4.962 1.001 1.518 0.642 2.882 1.562 4.053 2.733s2.091 2.535 2.733 4.053c0.664 1.57 1.001 3.24 1.001 4.962h2.25c0-8.284-6.716-15-15-15z"></path>
<path d="M9 4.5v2.25c2.204 0 4.275 0.858 5.834 2.416s2.416 3.63 2.416 5.834h2.25c0-5.799-4.701-10.5-10.5-10.5z"></path>
<path d="M11.25 9l-1.5 1.5-5.25 1.5-4.5 9.75 0.595 0.595 5.456-5.456c-0.033-0.124-0.051-0.254-0.051-0.388 0-0.828 0.672-1.5 1.5-1.5s1.5 0.672 1.5 1.5-0.672 1.5-1.5 1.5c-0.134 0-0.264-0.018-0.388-0.051l-5.456 5.456 0.595 0.595 9.75-4.5 1.5-5.25 1.5-1.5-3.75-3.75z"></path>
</svg>
