<!-- Generated by IcoMoon.io -->
<svg version="1.1" xmlns="http://www.w3.org/2000/svg" width="24" height="24" viewBox="0 0 24 24">
<title>briefcase</title>
<path d="M22.5 6h-6v-1.5c0-0.825-0.675-1.5-1.5-1.5h-6c-0.825 0-1.5 0.675-1.5 1.5v1.5h-6c-0.825 0-1.5 0.675-1.5 1.5v13.5c0 0.825 0.675 1.5 1.5 1.5h21c0.825 0 1.5-0.675 1.5-1.5v-13.5c0-0.825-0.675-1.5-1.5-1.5zM9 4.503c0.001-0.001 0.002-0.002 0.003-0.003h5.995c0.001 0.001 0.002 0.002 0.003 0.003v1.497h-6v-1.497zM22.5 12h-3v2.25c0 0.413-0.337 0.75-0.75 0.75h-1.5c-0.413 0-0.75-0.337-0.75-0.75v-2.25h-9v2.25c0 0.413-0.337 0.75-0.75 0.75h-1.5c-0.413 0-0.75-0.337-0.75-0.75v-2.25h-3v-1.5h21v1.5z"></path>
</svg>
