<!-- Generated by IcoMoon.io -->
<svg version="1.1" xmlns="http://www.w3.org/2000/svg" width="27" height="24" viewBox="0 0 27 24">
<title>bubbles3</title>
<path d="M25.5 21.121c0 1.066 0.61 1.99 1.5 2.442v0.374c-0.249 0.034-0.503 0.052-0.762 0.052-1.594 0-3.032-0.669-4.048-1.741-0.615 0.164-1.266 0.252-1.94 0.252-3.728 0-6.75-2.686-6.75-6s3.022-6 6.75-6c3.728 0 6.75 2.686 6.75 6 0 1.297-0.463 2.498-1.251 3.48-0.16 0.347-0.249 0.734-0.249 1.141zM5.407 5.184c-1.552 1.261-2.407 2.882-2.407 4.566 0 0.944 0.262 1.86 0.779 2.722 0.533 0.889 1.336 1.701 2.32 2.35 0.711 0.469 1.19 1.218 1.317 2.060 0.042 0.281 0.069 0.565 0.079 0.847 0.175-0.145 0.346-0.301 0.513-0.468 0.566-0.566 1.331-0.879 2.121-0.879 0.126 0 0.252 0.008 0.379 0.024 0.491 0.062 0.992 0.094 1.49 0.094v3c-0.636-0-1.26-0.041-1.869-0.118-2.578 2.578-5.654 3.040-8.629 3.108v-0.631c1.606-0.787 3-2.22 3-3.859 0-0.229-0.018-0.453-0.051-0.673-2.714-1.787-4.449-4.518-4.449-7.577 0-5.385 5.373-9.75 12-9.75 6.526 0 11.836 4.233 11.996 9.504-0.963-0.429-2.012-0.69-3.1-0.764-0.27-1.314-1.064-2.55-2.303-3.557-0.828-0.673-1.803-1.204-2.898-1.581-1.165-0.4-2.408-0.603-3.696-0.603s-2.531 0.203-3.696 0.603c-1.095 0.376-2.070 0.908-2.898 1.581z"></path>
</svg>
