<!-- Generated by IcoMoon.io -->
<svg version="1.1" xmlns="http://www.w3.org/2000/svg" width="24" height="24" viewBox="0 0 24 24">
<title>bubble2</title>
<path d="M12 4.5c-1.287 0-2.531 0.203-3.696 0.603-1.095 0.376-2.070 0.908-2.898 1.581-1.552 1.261-2.407 2.882-2.407 4.566 0 0.944 0.262 1.86 0.779 2.722 0.533 0.889 1.336 1.701 2.32 2.35 0.711 0.469 1.19 1.218 1.317 2.060 0.042 0.281 0.069 0.565 0.079 0.847 0.175-0.145 0.346-0.301 0.513-0.468 0.566-0.566 1.331-0.879 2.121-0.879 0.126 0 0.252 0.008 0.379 0.024 0.492 0.062 0.994 0.094 1.492 0.094 1.288 0 2.531-0.203 3.696-0.603 1.095-0.376 2.070-0.908 2.898-1.581 1.552-1.261 2.407-2.882 2.407-4.566s-0.855-3.305-2.407-4.566c-0.828-0.673-1.803-1.204-2.898-1.581-1.165-0.4-2.408-0.603-3.696-0.603zM12 1.5v0c6.627 0 12 4.365 12 9.75s-5.373 9.75-12 9.75c-0.636 0-1.261-0.041-1.871-0.118-2.578 2.578-5.654 3.040-8.629 3.108v-0.631c1.606-0.787 3-2.22 3-3.859 0-0.229-0.018-0.453-0.051-0.673-2.714-1.787-4.449-4.518-4.449-7.577 0-5.385 5.373-9.75 12-9.75z"></path>
</svg>
