<!-- Generated by IcoMoon.io -->
<svg version="1.1" xmlns="http://www.w3.org/2000/svg" width="24" height="24" viewBox="0 0 24 24">
<title>calculator</title>
<path d="M9 1.5h-7.5c-0.825 0-1.5 0.675-1.5 1.5v7.5c0 0.825 0.675 1.5 1.5 1.5h7.5c0.825 0 1.5-0.675 1.5-1.5v-7.5c0-0.825-0.675-1.5-1.5-1.5zM9 7.5h-7.5v-1.5h7.5v1.5zM21 1.5h-7.5c-0.825 0-1.5 0.675-1.5 1.5v19.5c0 0.825 0.675 1.5 1.5 1.5h7.5c0.825 0 1.5-0.675 1.5-1.5v-19.5c0-0.825-0.675-1.5-1.5-1.5zM21 15h-7.5v-1.5h7.5v1.5zM21 10.5h-7.5v-1.5h7.5v1.5zM9 13.5h-7.5c-0.825 0-1.5 0.675-1.5 1.5v7.5c0 0.825 0.675 1.5 1.5 1.5h7.5c0.825 0 1.5-0.675 1.5-1.5v-7.5c0-0.825-0.675-1.5-1.5-1.5zM9 19.5h-3v3h-1.5v-3h-3v-1.5h3v-3h1.5v3h3v1.5z"></path>
</svg>
