<!-- Generated by IcoMoon.io -->
<svg version="1.1" xmlns="http://www.w3.org/2000/svg" width="24" height="24" viewBox="0 0 24 24">
<title>cancel-circle</title>
<path d="M12 0c-6.627 0-12 5.373-12 12s5.373 12 12 12 12-5.373 12-12-5.373-12-12-12zM12 21.75c-5.385 0-9.75-4.365-9.75-9.75s4.365-9.75 9.75-9.75 9.75 4.365 9.75 9.75-4.365 9.75-9.75 9.75z"></path>
<path d="M15.75 6l-3.75 3.75-3.75-3.75-2.25 2.25 3.75 3.75-3.75 3.75 2.25 2.25 3.75-3.75 3.75 3.75 2.25-2.25-3.75-3.75 3.75-3.75z"></path>
</svg>
