<!-- Generated by IcoMoon.io -->
<svg version="1.1" xmlns="http://www.w3.org/2000/svg" width="24" height="24" viewBox="0 0 24 24">
<title>clipboard</title>
<path d="M21.75 3h-6.75c0-1.657-1.343-3-3-3s-3 1.343-3 3h-6.75c-0.414 0-0.75 0.336-0.75 0.75v19.5c0 0.414 0.336 0.75 0.75 0.75h19.5c0.414 0 0.75-0.336 0.75-0.75v-19.5c0-0.414-0.336-0.75-0.75-0.75zM12 1.5c0.828 0 1.5 0.672 1.5 1.5s-0.672 1.5-1.5 1.5c-0.828 0-1.5-0.672-1.5-1.5s0.672-1.5 1.5-1.5zM21 22.5h-18v-18h3v2.25c0 0.414 0.336 0.75 0.75 0.75h10.5c0.414 0 0.75-0.336 0.75-0.75v-2.25h3v18z"></path>
<path d="M10.5 20.121l-4.811-5.561 1.371-1.371 3.439 2.689 6.439-5.689 1.371 1.371z"></path>
</svg>
