<!-- Generated by IcoMoon.io -->
<svg version="1.1" xmlns="http://www.w3.org/2000/svg" width="24" height="24" viewBox="0 0 24 24">
<title>clubs</title>
<path d="M18.441 9.206c-1.384 0-2.627 0.576-3.512 1.516-0.375 0.398-1.026 0.87-1.73 1.285 0.331-1.263 1.375-2.852 2.101-3.55 0.929-0.895 1.5-2.152 1.5-3.551 0-2.693-2.144-4.877-4.8-4.906-2.656 0.029-4.8 2.213-4.8 4.906 0 1.399 0.571 2.656 1.5 3.551 0.725 0.697 1.77 2.287 2.101 3.55-0.704-0.415-1.355-0.887-1.73-1.285-0.885-0.94-2.129-1.516-3.512-1.516-2.681 0-4.853 2.195-4.853 4.906s2.172 4.906 4.853 4.906c1.384 0 2.627-0.594 3.512-1.534 0.394-0.419 1.089-0.941 1.835-1.374-0.070 3.462-1.723 6.004-3.406 7.006v0.885h9v-0.885c-1.683-1.002-3.336-3.544-3.406-7.006 0.747 0.433 1.441 0.956 1.835 1.374 0.885 0.94 2.128 1.534 3.512 1.534 2.681 0 4.853-2.196 4.853-4.906s-2.172-4.906-4.853-4.906z"></path>
</svg>
