<!-- Generated by IcoMoon.io -->
<svg version="1.1" xmlns="http://www.w3.org/2000/svg" width="24" height="24" viewBox="0 0 24 24">
<title>codepen</title>
<path d="M22.166 8.626l-10.5-7c-0.252-0.168-0.58-0.168-0.832 0l-10.5 7c-0.209 0.139-0.334 0.373-0.334 0.624v7c0 0.251 0.125 0.485 0.334 0.624l10.5 7c0.126 0.084 0.271 0.126 0.416 0.126s0.29-0.042 0.416-0.126l10.5-7c0.209-0.139 0.334-0.373 0.334-0.624v-7c0-0.251-0.125-0.485-0.334-0.624zM11.25 15.349l-3.898-2.599 3.898-2.599 3.898 2.599-3.898 2.599zM12 8.849v-5.197l8.398 5.599-3.898 2.599-4.5-3zM10.5 8.849l-4.5 3-3.898-2.599 8.398-5.599v5.197zM4.648 12.75l-3.148 2.099v-4.197l3.148 2.099zM6 13.651l4.5 3v5.197l-8.398-5.599 3.898-2.599zM12 16.651l4.5-3 3.898 2.599-8.398 5.599v-5.197zM17.852 12.75l3.148-2.099v4.197l-3.148-2.099z"></path>
</svg>
