<!-- Generated by IcoMoon.io -->
<svg version="1.1" xmlns="http://www.w3.org/2000/svg" width="24" height="24" viewBox="0 0 24 24">
<title>cogs</title>
<path d="M8.525 16.923l0.968-1.355-1.061-1.061-1.355 0.968c-0.251-0.14-0.52-0.253-0.803-0.333l-0.274-1.643h-1.5l-0.274 1.643c-0.283 0.080-0.552 0.192-0.803 0.333l-1.355-0.968-1.061 1.061 0.968 1.355c-0.14 0.251-0.253 0.52-0.333 0.803l-1.643 0.274v1.5l1.643 0.274c0.080 0.283 0.192 0.552 0.333 0.803l-0.968 1.355 1.061 1.061 1.355-0.968c0.251 0.14 0.52 0.253 0.803 0.333l0.274 1.643h1.5l0.274-1.643c0.283-0.080 0.552-0.192 0.803-0.333l1.355 0.968 1.061-1.061-0.968-1.355c0.14-0.251 0.253-0.52 0.333-0.803l1.643-0.274v-1.5l-1.643-0.274c-0.080-0.283-0.192-0.552-0.333-0.803zM5.25 20.25c-0.828 0-1.5-0.672-1.5-1.5s0.672-1.5 1.5-1.5 1.5 0.672 1.5 1.5-0.672 1.5-1.5 1.5zM24 9v-1.5l-1.579-0.287c-0.029-0.189-0.066-0.374-0.111-0.558l1.349-0.87-0.574-1.386-1.569 0.339c-0.099-0.162-0.205-0.319-0.316-0.472l0.914-1.321-1.061-1.061-1.321 0.914c-0.153-0.112-0.31-0.217-0.472-0.316l0.339-1.569-1.386-0.574-0.87 1.349c-0.183-0.044-0.369-0.082-0.558-0.111l-0.287-1.579h-1.5l-0.287 1.579c-0.189 0.029-0.374 0.066-0.558 0.111l-0.869-1.349-1.386 0.574 0.339 1.569c-0.162 0.099-0.319 0.205-0.472 0.316l-1.321-0.914-1.061 1.061 0.914 1.321c-0.112 0.153-0.217 0.31-0.316 0.472l-1.569-0.339-0.574 1.386 1.349 0.87c-0.044 0.183-0.082 0.369-0.111 0.558l-1.579 0.287v1.5l1.579 0.287c0.029 0.189 0.066 0.374 0.111 0.558l-1.349 0.87 0.574 1.386 1.569-0.339c0.099 0.162 0.205 0.319 0.316 0.472l-0.914 1.321 1.061 1.061 1.321-0.914c0.153 0.112 0.31 0.217 0.472 0.316l-0.339 1.569 1.386 0.574 0.87-1.349c0.183 0.044 0.369 0.082 0.558 0.111l0.287 1.579h1.5l0.287-1.579c0.189-0.029 0.374-0.066 0.558-0.111l0.87 1.349 1.386-0.574-0.339-1.569c0.162-0.099 0.319-0.205 0.472-0.316l1.321 0.914 1.061-1.061-0.914-1.321c0.112-0.153 0.217-0.31 0.316-0.472l1.569 0.339 0.574-1.386-1.349-0.87c0.044-0.183 0.082-0.369 0.111-0.558l1.579-0.287zM15.75 11.512c-1.802 0-3.263-1.461-3.263-3.262s1.461-3.262 3.263-3.262 3.263 1.461 3.263 3.262c0 1.802-1.461 3.262-3.263 3.262z"></path>
</svg>
