<!-- Generated by IcoMoon.io -->
<svg version="1.1" xmlns="http://www.w3.org/2000/svg" width="24" height="24" viewBox="0 0 24 24">
<title>coin-yen</title>
<path d="M11.25 1.5c-6.213 0-11.25 5.037-11.25 11.25s5.037 11.25 11.25 11.25c6.213 0 11.25-5.037 11.25-11.25s-5.037-11.25-11.25-11.25zM11.25 21.75c-4.971 0-9-4.029-9-9s4.029-9 9-9c4.971 0 9 4.029 9 9s-4.029 9-9 9z"></path>
<path d="M14.25 13.5c0.414 0 0.75-0.336 0.75-0.75s-0.336-0.75-0.75-0.75h-1.599l2.223-3.334c0.23-0.345 0.137-0.81-0.208-1.040s-0.81-0.137-1.040 0.208l-2.376 3.564-2.376-3.564c-0.23-0.345-0.695-0.438-1.040-0.208s-0.438 0.695-0.208 1.040l2.223 3.334h-1.599c-0.414 0-0.75 0.336-0.75 0.75s0.336 0.75 0.75 0.75h2.25v1.5h-2.25c-0.414 0-0.75 0.336-0.75 0.75s0.336 0.75 0.75 0.75h2.25v2.25c0 0.414 0.336 0.75 0.75 0.75s0.75-0.336 0.75-0.75v-2.25h2.25c0.414 0 0.75-0.336 0.75-0.75s-0.336-0.75-0.75-0.75h-2.25v-1.5h2.25z"></path>
</svg>
