<!-- Generated by IcoMoon.io -->
<svg version="1.1" xmlns="http://www.w3.org/2000/svg" width="24" height="24" viewBox="0 0 24 24">
<title>command</title>
<path d="M17.25 21c-2.068 0-3.75-1.682-3.75-3.75v-2.25h-3v2.25c0 2.068-1.682 3.75-3.75 3.75s-3.75-1.682-3.75-3.75 1.682-3.75 3.75-3.75h2.25v-3h-2.25c-2.068 0-3.75-1.682-3.75-3.75s1.682-3.75 3.75-3.75 3.75 1.682 3.75 3.75v2.25h3v-2.25c0-2.068 1.682-3.75 3.75-3.75s3.75 1.682 3.75 3.75-1.682 3.75-3.75 3.75h-2.25v3h2.25c2.068 0 3.75 1.682 3.75 3.75s-1.682 3.75-3.75 3.75zM15 15v2.25c0 1.241 1.009 2.25 2.25 2.25s2.25-1.009 2.25-2.25-1.009-2.25-2.25-2.25h-2.25zM6.75 15c-1.241 0-2.25 1.009-2.25 2.25s1.009 2.25 2.25 2.25 2.25-1.009 2.25-2.25v-2.25h-2.25zM10.5 13.5h3v-3h-3v3zM15 9h2.25c1.241 0 2.25-1.009 2.25-2.25s-1.009-2.25-2.25-2.25-2.25 1.009-2.25 2.25v2.25zM6.75 4.5c-1.241 0-2.25 1.009-2.25 2.25s1.009 2.25 2.25 2.25h2.25v-2.25c0-1.241-1.009-2.25-2.25-2.25z"></path>
</svg>
