<!-- Generated by IcoMoon.io -->
<svg version="1.1" xmlns="http://www.w3.org/2000/svg" width="24" height="24" viewBox="0 0 24 24">
<title>compass2</title>
<path d="M12 0c-6.627 0-12 5.373-12 12s5.373 12 12 12 12-5.373 12-12-5.373-12-12-12zM2.25 12c0-5.385 4.365-9.75 9.75-9.75 2.568 0 4.904 0.993 6.645 2.616l-9.645 4.134-4.134 9.645c-1.623-1.741-2.616-4.077-2.616-6.645zM13.715 13.715l-6.002 2.572 2.572-6.002 3.43 3.43zM12 21.75c-2.568 0-4.904-0.993-6.645-2.616l9.645-4.134 4.134-9.645c1.623 1.741 2.616 4.077 2.616 6.645 0 5.385-4.365 9.75-9.75 9.75z"></path>
</svg>
