<!-- Generated by IcoMoon.io -->
<svg version="1.1" xmlns="http://www.w3.org/2000/svg" width="24" height="24" viewBox="0 0 24 24">
<title>confused</title>
<path d="M12 24c6.627 0 12-5.373 12-12s-5.373-12-12-12-12 5.373-12 12 5.373 12 12 12zM12 2.25c5.385 0 9.75 4.365 9.75 9.75s-4.365 9.75-9.75 9.75-9.75-4.365-9.75-9.75 4.365-9.75 9.75-9.75zM6 7.5c0-0.828 0.672-1.5 1.5-1.5s1.5 0.672 1.5 1.5c0 0.828-0.672 1.5-1.5 1.5s-1.5-0.672-1.5-1.5zM15 7.5c0-0.828 0.672-1.5 1.5-1.5s1.5 0.672 1.5 1.5c0 0.828-0.672 1.5-1.5 1.5s-1.5-0.672-1.5-1.5zM17.018 15h1.52c0.217 1.699-0.761 3.387-2.437 3.997-1.943 0.707-4.099-0.298-4.807-2.241-0.424-1.166-1.718-1.769-2.884-1.345-1.068 0.389-1.663 1.507-1.429 2.588h-1.52c-0.217-1.699 0.761-3.387 2.436-3.998 1.943-0.707 4.099 0.298 4.807 2.241 0.424 1.166 1.718 1.769 2.884 1.345 1.068-0.389 1.663-1.507 1.429-2.588z"></path>
</svg>
