<!-- Generated by IcoMoon.io -->
<svg version="1.1" xmlns="http://www.w3.org/2000/svg" width="24" height="24" viewBox="0 0 24 24">
<title>confused2</title>
<path d="M12 0c-6.627 0-12 5.373-12 12s5.372 12 12 12c6.627 0 12-5.373 12-12s-5.373-12-12-12zM16.5 6c0.828 0 1.5 0.672 1.5 1.5s-0.672 1.5-1.5 1.5-1.5-0.672-1.5-1.5c0-0.828 0.672-1.5 1.5-1.5zM7.5 6c0.828 0 1.5 0.672 1.5 1.5s-0.672 1.5-1.5 1.5-1.5-0.672-1.5-1.5c0-0.828 0.672-1.5 1.5-1.5zM16.102 18.997c-1.943 0.707-4.099-0.298-4.807-2.241-0.424-1.166-1.718-1.769-2.884-1.345-1.068 0.389-1.663 1.507-1.429 2.588h-1.52c-0.217-1.699 0.761-3.387 2.436-3.998 1.943-0.707 4.099 0.298 4.807 2.241 0.424 1.166 1.718 1.769 2.884 1.345 1.068-0.389 1.663-1.507 1.429-2.588h1.52c0.217 1.699-0.761 3.387-2.437 3.998z"></path>
</svg>
