<!-- Generated by IcoMoon.io -->
<svg version="1.1" xmlns="http://www.w3.org/2000/svg" width="24" height="24" viewBox="0 0 24 24">
<title>cool2</title>
<path d="M12 0c-6.627 0-12 5.373-12 12s5.372 12 12 12c6.627 0 12-5.373 12-12s-5.373-12-12-12zM12 19.5c-1.136 0-2.212-0.253-3.177-0.705l0.777-1.296c0.735 0.321 1.546 0.501 2.4 0.501 2.185 0 4.096-1.168 5.146-2.913l1.286 0.772c-1.312 2.181-3.701 3.641-6.432 3.641zM19.5 9c0 0.825-0.675 1.5-1.5 1.5h-3c-0.825 0-1.5-0.675-1.5-1.5h-3c0 0.825-0.675 1.5-1.5 1.5h-3c-0.825 0-1.5-0.675-1.5-1.5v-2.25c0-0.413 0.338-0.75 0.75-0.75h4.5c0.413 0 0.75 0.337 0.75 0.75v0.75h3v-0.75c0-0.413 0.337-0.75 0.75-0.75h4.5c0.413 0 0.75 0.337 0.75 0.75v2.25z"></path>
</svg>
