<!-- Generated by IcoMoon.io -->
<svg version="1.1" xmlns="http://www.w3.org/2000/svg" width="24" height="24" viewBox="0 0 24 24">
<title>credit-card</title>
<path d="M21.75 3h-19.5c-1.237 0-2.25 1.012-2.25 2.25v13.5c0 1.237 1.013 2.25 2.25 2.25h19.5c1.237 0 2.25-1.013 2.25-2.25v-13.5c0-1.238-1.013-2.25-2.25-2.25zM2.25 4.5h19.5c0.407 0 0.75 0.343 0.75 0.75v2.25h-21v-2.25c0-0.407 0.343-0.75 0.75-0.75zM21.75 19.5h-19.5c-0.407 0-0.75-0.343-0.75-0.75v-6.75h21v6.75c0 0.407-0.343 0.75-0.75 0.75zM3 15h1.5v3h-1.5zM6 15h1.5v3h-1.5zM9 15h1.5v3h-1.5z"></path>
</svg>
