<!-- Generated by IcoMoon.io -->
<svg version="1.1" xmlns="http://www.w3.org/2000/svg" width="24" height="24" viewBox="0 0 24 24">
<title>crying</title>
<path d="M12 24c6.627 0 12-5.373 12-12s-5.373-12-12-12-12 5.373-12 12 5.373 12 12 12zM12 2.25c5.385 0 9.75 4.365 9.75 9.75s-4.365 9.75-9.75 9.75-9.75-4.365-9.75-9.75 4.365-9.75 9.75-9.75z"></path>
<path d="M18.75 9h-3c-0.414 0-0.75-0.336-0.75-0.75s0.336-0.75 0.75-0.75h3c0.414 0 0.75 0.336 0.75 0.75s-0.336 0.75-0.75 0.75z"></path>
<path d="M8.25 9h-3c-0.414 0-0.75-0.336-0.75-0.75s0.336-0.75 0.75-0.75h3c0.414 0 0.75 0.336 0.75 0.75s-0.336 0.75-0.75 0.75z"></path>
<path d="M14.25 20.063c-0.192 0-0.384-0.073-0.53-0.22-0.107-0.107-0.69-0.343-1.72-0.343s-1.612 0.235-1.72 0.343c-0.293 0.293-0.768 0.293-1.061 0s-0.293-0.768 0-1.061c0.706-0.706 2.18-0.782 2.78-0.782s2.074 0.076 2.78 0.782c0.293 0.293 0.293 0.768 0 1.061-0.146 0.146-0.338 0.22-0.53 0.22z"></path>
<path d="M17.25 13.5c-0.414 0-0.75-0.336-0.75-0.75v-1.5c0-0.414 0.336-0.75 0.75-0.75s0.75 0.336 0.75 0.75v1.5c0 0.414-0.336 0.75-0.75 0.75z"></path>
<path d="M17.25 18c-0.414 0-0.75-0.336-0.75-0.75v-1.5c0-0.414 0.336-0.75 0.75-0.75s0.75 0.336 0.75 0.75v1.5c0 0.414-0.336 0.75-0.75 0.75z"></path>
<path d="M6.75 13.5c-0.414 0-0.75-0.336-0.75-0.75v-1.5c0-0.414 0.336-0.75 0.75-0.75s0.75 0.336 0.75 0.75v1.5c0 0.414-0.336 0.75-0.75 0.75z"></path>
<path d="M6.75 18c-0.414 0-0.75-0.336-0.75-0.75v-1.5c0-0.414 0.336-0.75 0.75-0.75s0.75 0.336 0.75 0.75v1.5c0 0.414-0.336 0.75-0.75 0.75z"></path>
</svg>
