<!-- Generated by IcoMoon.io -->
<svg version="1.1" xmlns="http://www.w3.org/2000/svg" width="24" height="24" viewBox="0 0 24 24">
<title>crying2</title>
<path d="M12 0c-6.627 0-12 5.373-12 12s5.373 12 12 12 12-5.373 12-12-5.373-12-12-12zM7.5 17.25c0 0.414-0.336 0.75-0.75 0.75s-0.75-0.336-0.75-0.75v-1.5c0-0.414 0.336-0.75 0.75-0.75s0.75 0.336 0.75 0.75v1.5zM7.5 12.75c0 0.414-0.336 0.75-0.75 0.75s-0.75-0.336-0.75-0.75v-1.5c0-0.414 0.336-0.75 0.75-0.75s0.75 0.336 0.75 0.75v1.5zM8.25 9h-3c-0.414 0-0.75-0.336-0.75-0.75s0.336-0.75 0.75-0.75h3c0.414 0 0.75 0.336 0.75 0.75s-0.336 0.75-0.75 0.75zM14.78 19.843c-0.146 0.146-0.338 0.22-0.53 0.22s-0.384-0.073-0.53-0.22c-0.107-0.107-0.69-0.343-1.72-0.343s-1.612 0.235-1.72 0.343c-0.293 0.293-0.768 0.293-1.061 0s-0.293-0.768 0-1.061c0.706-0.706 2.18-0.782 2.78-0.782s2.074 0.076 2.78 0.782c0.293 0.293 0.293 0.768 0 1.061zM18 17.25c0 0.414-0.336 0.75-0.75 0.75s-0.75-0.336-0.75-0.75v-1.5c0-0.414 0.336-0.75 0.75-0.75s0.75 0.336 0.75 0.75v1.5zM18 12.75c0 0.414-0.336 0.75-0.75 0.75s-0.75-0.336-0.75-0.75v-1.5c0-0.414 0.336-0.75 0.75-0.75s0.75 0.336 0.75 0.75v1.5zM18.75 9h-3c-0.414 0-0.75-0.336-0.75-0.75s0.336-0.75 0.75-0.75h3c0.414 0 0.75 0.336 0.75 0.75s-0.336 0.75-0.75 0.75z"></path>
</svg>
