<!-- Generated by IcoMoon.io -->
<svg version="1.1" xmlns="http://www.w3.org/2000/svg" width="24" height="24" viewBox="0 0 24 24">
<title>database</title>
<path d="M12 0c-6.627 0-12 1.679-12 3.75v3c0 2.071 5.373 3.75 12 3.75s12-1.679 12-3.75v-3c0-2.071-5.373-3.75-12-3.75z"></path>
<path d="M12 12.75c-6.627 0-12-1.679-12-3.75v4.5c0 2.071 5.373 3.75 12 3.75s12-1.679 12-3.75v-4.5c0 2.071-5.373 3.75-12 3.75z"></path>
<path d="M12 19.5c-6.627 0-12-1.679-12-3.75v4.5c0 2.071 5.373 3.75 12 3.75s12-1.679 12-3.75v-4.5c0 2.071-5.373 3.75-12 3.75z"></path>
</svg>
