<!-- Generated by IcoMoon.io -->
<svg version="1.1" xmlns="http://www.w3.org/2000/svg" width="24" height="24" viewBox="0 0 24 24">
<title>dice</title>
<path d="M20.25 4.5h-12c-2.063 0-3.75 1.688-3.75 3.75v12c0 2.063 1.688 3.75 3.75 3.75h12c2.063 0 3.75-1.688 3.75-3.75v-12c0-2.063-1.688-3.75-3.75-3.75zM9.75 21c-1.243 0-2.25-1.007-2.25-2.25s1.007-2.25 2.25-2.25 2.25 1.007 2.25 2.25-1.007 2.25-2.25 2.25zM9.75 12c-1.243 0-2.25-1.007-2.25-2.25s1.007-2.25 2.25-2.25 2.25 1.007 2.25 2.25-1.007 2.25-2.25 2.25zM14.25 16.5c-1.243 0-2.25-1.007-2.25-2.25s1.007-2.25 2.25-2.25 2.25 1.007 2.25 2.25-1.007 2.25-2.25 2.25zM18.75 21c-1.243 0-2.25-1.007-2.25-2.25s1.007-2.25 2.25-2.25 2.25 1.007 2.25 2.25-1.007 2.25-2.25 2.25zM18.75 12c-1.243 0-2.25-1.007-2.25-2.25s1.007-2.25 2.25-2.25 2.25 1.007 2.25 2.25-1.007 2.25-2.25 2.25zM19.424 3c-0.35-1.706-1.868-3-3.674-3h-12c-2.063 0-3.75 1.688-3.75 3.75v12c0 1.806 1.294 3.324 3 3.674v-14.924c0-0.825 0.675-1.5 1.5-1.5h14.924z"></path>
</svg>
