<!-- Generated by IcoMoon.io -->
<svg version="1.1" xmlns="http://www.w3.org/2000/svg" width="24" height="24" viewBox="0 0 24 24">
<title>edge</title>
<path d="M0.361 10.655c0.703-5.55 4.491-10.584 11.278-10.655 4.097 0.080 7.467 1.936 9.473 5.475 1.008 1.847 1.322 3.787 1.388 5.93v2.517h-15.061c0.070 6.211 9.141 6 13.045 3.263v5.058c-2.288 1.373-7.477 2.602-11.494 1.022-3.422-1.284-5.859-4.866-5.845-8.311-0.112-4.467 2.222-7.425 5.845-9.108-0.769 0.952-1.355 2.002-1.659 3.82h8.503c0 0 0.497-5.081-4.814-5.081-5.006 0.173-8.616 3.084-10.659 6.070v0z"></path>
</svg>
