<!-- Generated by IcoMoon.io -->
<svg version="1.1" xmlns="http://www.w3.org/2000/svg" width="24" height="24" viewBox="0 0 24 24">
<title>ello</title>
<path d="M12 0c-6.627 0-12 5.373-12 12s5.373 12 12 12 12-5.373 12-12-5.373-12-12-12zM19.327 13.819c-0.862 3.345-3.876 5.681-7.327 5.681s-6.465-2.336-7.328-5.682c-0.146-0.566 0.196-1.146 0.762-1.292 0.087-0.022 0.176-0.034 0.266-0.034 0.483 0 0.905 0.327 1.026 0.796 0.621 2.408 2.79 4.090 5.274 4.090s4.652-1.682 5.273-4.090c0.121-0.469 0.543-0.796 1.026-0.796 0.090 0 0.179 0.011 0.267 0.034 0.274 0.071 0.505 0.244 0.648 0.488s0.184 0.53 0.113 0.804z"></path>
</svg>
