<!-- Generated by IcoMoon.io -->
<svg version="1.1" xmlns="http://www.w3.org/2000/svg" width="24" height="24" viewBox="0 0 24 24">
<title>evil</title>
<path d="M15 10.5c-0.828 0-1.5-0.672-1.5-1.5 0-0.027 0.001-0.055 0.002-0.082 0.048-1.112 1.060-1.85 1.912-2.277 0.814-0.407 1.62-0.611 1.653-0.619 0.402-0.101 0.809 0.144 0.91 0.546s-0.144 0.809-0.546 0.91c-0.413 0.104-0.903 0.284-1.334 0.5 0.25 0.268 0.403 0.627 0.403 1.022 0 0.828-0.672 1.5-1.5 1.5zM6.568 7.478c-0.402-0.1-0.646-0.508-0.546-0.909s0.508-0.646 0.91-0.546c0.034 0.008 0.839 0.212 1.653 0.619 0.853 0.426 1.865 1.164 1.912 2.277 0.001 0.027 0.002 0.054 0.002 0.082 0 0.828-0.672 1.5-1.5 1.5s-1.5-0.672-1.5-1.5c0-0.395 0.153-0.754 0.403-1.022-0.432-0.216-0.921-0.396-1.334-0.5zM12 17.25c1.911 0 3.584-1.022 4.502-2.549l1.93 1.158c-1.312 2.181-3.701 3.641-6.432 3.641s-5.12-1.46-6.432-3.641l1.93-1.158c0.918 1.527 2.591 2.549 4.502 2.549zM24 1.5c0-1.067-0.223-2.081-0.625-3-0.787 1.801-2.261 3.233-4.090 3.965-2.020-1.546-4.545-2.465-7.286-2.465s-5.265 0.919-7.286 2.465c-1.829-0.732-3.303-2.164-4.090-3.965-0.401 0.919-0.625 1.933-0.625 3 0 1.724 0.582 3.312 1.561 4.579-0.993 1.747-1.561 3.768-1.561 5.921 0 6.627 5.373 12 12 12s12-5.373 12-12c0-2.153-0.568-4.174-1.561-5.921 0.978-1.267 1.561-2.855 1.561-4.579zM12 21.75c-5.385 0-9.75-4.365-9.75-9.75s4.365-9.75 9.75-9.75 9.75 4.365 9.75 9.75-4.365 9.75-9.75 9.75z"></path>
</svg>
