<!-- Generated by IcoMoon.io -->
<svg version="1.1" xmlns="http://www.w3.org/2000/svg" width="24" height="24" viewBox="0 0 24 24">
<title>eye-blocked</title>
<path d="M22.171 0.329c-0.439-0.439-1.152-0.439-1.591 0l-4.738 4.738c-1.217-0.369-2.507-0.568-3.841-0.568-5.234 0-9.771 3.048-12 7.5 0.964 1.925 2.359 3.587 4.055 4.854l-3.726 3.726c-0.439 0.439-0.439 1.152 0 1.591 0.22 0.22 0.508 0.33 0.795 0.33s0.576-0.11 0.796-0.329l20.25-20.25c0.439-0.439 0.439-1.152 0-1.591zM9.75 7.5c0.99 0 1.83 0.64 2.131 1.528l-2.853 2.853c-0.888-0.301-1.528-1.141-1.528-2.131 0-1.243 1.007-2.25 2.25-2.25zM2.581 12c0.897-1.419 2.092-2.623 3.502-3.523 0.092-0.059 0.185-0.115 0.278-0.171-0.233 0.64-0.361 1.332-0.361 2.053 0 1.286 0.405 2.478 1.095 3.455l-1.428 1.428c-1.229-0.863-2.278-1.966-3.086-3.242z"></path>
<path d="M18 10.359c0-0.637-0.1-1.25-0.284-1.826l-7.542 7.542c0.576 0.184 1.189 0.283 1.826 0.283 3.314 0 6-2.686 6-6z"></path>
<path d="M19.454 6.796l-1.626 1.626c0.030 0.018 0.059 0.037 0.089 0.056 1.41 0.899 2.605 2.104 3.502 3.523-0.897 1.418-2.092 2.623-3.502 3.523-1.772 1.13-3.818 1.727-5.917 1.727-0.906 0-1.802-0.112-2.671-0.329l-1.802 1.802c1.4 0.503 2.905 0.777 4.473 0.777 5.234 0 9.771-3.048 12-7.5-1.055-2.107-2.628-3.9-4.546-5.204z"></path>
</svg>
