<!-- Generated by IcoMoon.io -->
<svg version="1.1" xmlns="http://www.w3.org/2000/svg" width="24" height="24" viewBox="0 0 24 24">
<title>eye-plus</title>
<path d="M24 3h-3v-3h-3v3h-3v3h3v3h3v-3h3z"></path>
<path d="M20.247 10.454c0.432 0.48 0.825 0.997 1.172 1.546-0.897 1.418-2.092 2.623-3.502 3.523-1.772 1.13-3.818 1.727-5.917 1.727s-4.145-0.597-5.917-1.727c-1.41-0.899-2.605-2.104-3.502-3.523 0.897-1.419 2.092-2.623 3.502-3.523 0.092-0.059 0.185-0.115 0.278-0.171-0.233 0.64-0.361 1.332-0.361 2.053 0 3.314 2.686 6 6 6s6-2.686 6-6c0-0.016-0-0.032-0.001-0.049-2.561-0.659-4.46-2.968-4.498-5.726-0.493-0.056-0.994-0.085-1.501-0.085-5.234 0-9.771 3.048-12 7.5 2.229 4.452 6.766 7.5 12 7.5s9.771-3.048 12-7.5c-0.413-0.826-0.906-1.603-1.468-2.322-0.686 0.403-1.46 0.673-2.285 0.775zM9.75 7.5c1.243 0 2.25 1.007 2.25 2.25s-1.007 2.25-2.25 2.25-2.25-1.007-2.25-2.25 1.007-2.25 2.25-2.25z"></path>
</svg>
