<!-- Generated by IcoMoon.io -->
<svg version="1.1" xmlns="http://www.w3.org/2000/svg" width="24" height="24" viewBox="0 0 24 24">
<title>eye-minus</title>
<path d="M15 3h9v3h-9v-3z"></path>
<path d="M20.398 7.5h-6.898v-2.915c-0.493-0.056-0.993-0.085-1.5-0.085-5.234 0-9.771 3.048-12 7.5 2.229 4.452 6.766 7.5 12 7.5s9.771-3.048 12-7.5c-0.876-1.75-2.11-3.284-3.602-4.5zM9.75 7.5c1.243 0 2.25 1.007 2.25 2.25s-1.007 2.25-2.25 2.25-2.25-1.007-2.25-2.25 1.007-2.25 2.25-2.25zM17.917 15.523c-1.772 1.13-3.818 1.727-5.917 1.727s-4.145-0.597-5.917-1.727c-1.41-0.899-2.605-2.104-3.502-3.523 0.897-1.419 2.092-2.623 3.502-3.523 0.092-0.059 0.185-0.115 0.278-0.171-0.233 0.64-0.361 1.332-0.361 2.053 0 3.314 2.686 6 6 6s6-2.686 6-6c0-0.721-0.128-1.413-0.361-2.053 0.093 0.056 0.186 0.113 0.278 0.171 1.41 0.899 2.605 2.104 3.502 3.523-0.897 1.418-2.092 2.623-3.502 3.523z"></path>
</svg>
