<!-- Generated by IcoMoon.io -->
<svg version="1.1" xmlns="http://www.w3.org/2000/svg" width="24" height="24" viewBox="0 0 24 24">
<title>eyedropper</title>
<path d="M23.121 0.879c-1.172-1.172-3.071-1.172-4.243 0l-4.034 4.034-2.845-2.845-3.182 3.182 2.494 2.494-11.065 11.065c-0.189 0.189-0.269 0.444-0.241 0.69h-0.006v3.75c0 0.414 0.336 0.75 0.75 0.75h3.75c0 0 0.062 0 0.094 0 0.216 0 0.432-0.082 0.597-0.247l11.065-11.065 2.494 2.494 3.182-3.182-2.845-2.845 4.034-4.034c1.172-1.172 1.172-3.071 0-4.243zM4.057 22.5h-2.557v-2.557l11.006-11.006 2.557 2.557-11.006 11.006z"></path>
</svg>
