<!-- Generated by IcoMoon.io -->
<svg version="1.1" xmlns="http://www.w3.org/2000/svg" width="24" height="24" viewBox="0 0 24 24">
<title>file-openoffice</title>
<path d="M16.177 11.055c-1.422-0.672-3.234-0.807-4.566 0.142 1.62-0.155 3.397 0.113 4.573 1.339 1.125-1.291 2.909-1.533 4.522-1.4-1.347-0.894-3.122-0.774-4.529-0.081v0zM15.601 14.197c-1.603-0.037-3.151 0.543-4.479 1.409-2.512-1.068-5.689-0.87-7.828 0.914 0.617-0.022 1.219-0.175 1.829-0.253 2.231-0.222 4.608 0.331 6.293 1.871 0.698-1.021 1.679-1.834 2.804-2.342 1.478-0.715 3.144-0.789 4.754-0.809-0.977-0.671-2.218-0.796-3.374-0.789z"></path>
<path d="M21.511 5.369c-0.521-0.71-1.246-1.54-2.043-2.337s-1.627-1.523-2.337-2.043c-1.209-0.886-1.795-0.989-2.131-0.989h-11.625c-1.034 0-1.875 0.841-1.875 1.875v20.25c0 1.034 0.841 1.875 1.875 1.875h17.25c1.034 0 1.875-0.841 1.875-1.875v-14.625c0-0.336-0.102-0.922-0.989-2.131v0zM18.407 4.093c0.72 0.72 1.284 1.369 1.701 1.907h-3.608v-3.608c0.539 0.417 1.188 0.982 1.907 1.701v0zM21 22.125c0 0.203-0.172 0.375-0.375 0.375h-17.25c-0.203 0-0.375-0.172-0.375-0.375v-20.25c0-0.203 0.172-0.375 0.375-0.375 0 0 11.624-0 11.625 0v5.25c0 0.414 0.336 0.75 0.75 0.75h5.25v14.625z"></path>
</svg>
