<!-- Generated by IcoMoon.io -->
<svg version="1.1" xmlns="http://www.w3.org/2000/svg" width="24" height="24" viewBox="0 0 24 24">
<title>finder</title>
<path d="M13.341 18.24c-0-0.001-0-0.002-0-0.003 0 0.001 0 0.002 0 0.003z"></path>
<path d="M13.373 19.091c-0-0.005-0.001-0.011-0.001-0.016 0 0.005 0 0.011 0.001 0.016z"></path>
<path d="M13.355 18.664c-0-0.004-0-0.008-0-0.013 0 0.004 0 0.008 0 0.013z"></path>
<path d="M22.5 0h-21c-0.825 0-1.5 0.675-1.5 1.5v21c0 0.825 0.675 1.5 1.5 1.5h11.574c0.001 0 0.002 0 0.003 0s0.002-0 0.003-0h9.42c0.825 0 1.5-0.675 1.5-1.5v-21c0-0.825-0.675-1.5-1.5-1.5zM4.5 5.25c0-0.414 0.336-0.75 0.75-0.75s0.75 0.336 0.75 0.75v1.5c0 0.414-0.336 0.75-0.75 0.75s-0.75-0.336-0.75-0.75v-1.5zM22.5 22.5h-8.79c-0.157-0.986-0.256-2.003-0.314-2.991 0 0.003 0 0.005 0 0.008-0.462 0.050-0.928 0.076-1.396 0.076-3.132 0-6.15-1.14-8.496-3.211-0.349-0.308-0.383-0.842-0.074-1.191s0.842-0.383 1.191-0.074c2.038 1.798 4.658 2.789 7.379 2.789 0.447 0 0.892-0.027 1.332-0.080-0.051-2.77 0.161-4.967 0.165-5.002 0.021-0.211-0.048-0.421-0.19-0.578s-0.344-0.247-0.556-0.247h-2.231c0.032-0.811 0.119-2.199 0.351-3.754 0.442-2.971 1.219-5.291 2.254-6.746h9.377v21z"></path>
<path d="M18.75 7.5c-0.414 0-0.75-0.336-0.75-0.75v-1.5c0-0.414 0.336-0.75 0.75-0.75s0.75 0.336 0.75 0.75v1.5c0 0.414-0.336 0.75-0.75 0.75z"></path>
<path d="M12.668 19.576c-0.085 0.005-0.171 0.008-0.257 0.011 0.086-0.003 0.171-0.006 0.257-0.011z"></path>
<path d="M12 19.594c0.11 0 0.22-0.002 0.329-0.005-0.11 0.003-0.219 0.005-0.329 0.005z"></path>
<path d="M12.635 17.888c0.018-0.001 0.037-0.002 0.055-0.003-0.018 0.001-0.037 0.002-0.055 0.003z"></path>
<path d="M12.307 17.902c0.025-0.001 0.050-0.002 0.075-0.003-0.025 0.001-0.050 0.002-0.075 0.003z"></path>
<path d="M20.57 15.192c-0.308-0.349-0.842-0.383-1.191-0.074-1.703 1.503-3.812 2.441-6.047 2.709 0.010 0.546 0.030 1.113 0.065 1.691 2.624-0.286 5.104-1.374 7.099-3.135 0.349-0.308 0.383-0.842 0.074-1.191z"></path>
<path d="M13.394 19.518c-0.108 0.012-0.216 0.022-0.325 0.031 0.108-0.009 0.217-0.019 0.325-0.031z"></path>
<path d="M13.019 19.553c-0.092 0.007-0.183 0.014-0.275 0.019 0.092-0.005 0.184-0.012 0.275-0.019z"></path>
</svg>
