<!-- Generated by IcoMoon.io -->
<svg version="1.1" xmlns="http://www.w3.org/2000/svg" width="24" height="24" viewBox="0 0 24 24">
<title>fire</title>
<path d="M7.524 24c-1.6-3.328-0.748-5.235 0.482-7.032 1.346-1.968 1.693-3.916 1.693-3.916s1.058 1.376 0.635 3.528c1.87-2.081 2.222-5.397 1.94-6.667 4.226 2.953 6.032 9.348 3.598 14.087 12.946-7.325 3.22-18.285 1.527-19.52 0.564 1.235 0.671 3.325-0.469 4.339-1.93-7.319-6.702-8.819-6.702-8.819 0.564 3.774-2.046 7.902-4.563 10.986-0.088-1.505-0.182-2.544-0.974-3.984-0.178 2.734-2.267 4.963-2.833 7.702-0.766 3.71 0.574 6.426 5.666 9.296z"></path>
</svg>
