<!-- Generated by IcoMoon.io -->
<svg version="1.1" xmlns="http://www.w3.org/2000/svg" width="24" height="24" viewBox="0 0 24 24">
<title>flag</title>
<path d="M0 0h3v24h-3v-24z"></path>
<path d="M19.5 15.070c1.937 0 3.623-0.468 4.5-1.16v-12c-0.877 0.692-2.563 1.16-4.5 1.16s-3.623-0.468-4.5-1.16v12c0.877 0.692 2.563 1.16 4.5 1.16z"></path>
<path d="M14.25 0.762c-1.099-0.467-2.707-0.762-4.5-0.762-2.259 0-4.227 0.468-5.25 1.16v12c1.023-0.692 2.991-1.16 5.25-1.16 1.793 0 3.401 0.295 4.5 0.762v-12z"></path>
</svg>
