<!-- Generated by IcoMoon.io -->
<svg version="1.1" xmlns="http://www.w3.org/2000/svg" width="24" height="24" viewBox="0 0 24 24">
<title>flattr</title>
<path d="M8.615 0c-5.704 0-8.615 3.285-8.615 9.418v0 12.868l5.587-5.593v-6.537c0-2.541 0.673-4.158 2.932-4.521v0c0.789-0.154 2.432-0.1 3.476-0.1v0 3.881c0 0.035 0.005 0.099 0.014 0.131v0c0.044 0.157 0.186 0.272 0.354 0.273v0c0.095 0 0.184-0.049 0.276-0.14v0l9.683-9.679-13.708-0.001zM18.413 7.307v6.536c0 2.541-0.673 4.158-2.932 4.521v0c-0.789 0.154-2.432 0.1-3.476 0.1v0-3.881c0-0.035-0.005-0.099-0.014-0.131v0c-0.044-0.157-0.186-0.272-0.354-0.273v0c-0.095-0-0.184 0.049-0.276 0.14v0l-9.683 9.679 13.708 0.002c5.704 0 8.615-3.285 8.615-9.418v0-12.868l-5.587 5.593z"></path>
</svg>
