<!-- Generated by IcoMoon.io -->
<svg version="1.1" xmlns="http://www.w3.org/2000/svg" width="24" height="24" viewBox="0 0 24 24">
<title>flickr4</title>
<path d="M12 0c-6.627 0-12 5.409-12 12.082s5.373 12.082 12 12.082 12-5.409 12-12.082-5.373-12.082-12-12.082zM6.75 15.75c-2.071 0-3.75-1.679-3.75-3.75s1.679-3.75 3.75-3.75 3.75 1.679 3.75 3.75c0 2.071-1.679 3.75-3.75 3.75zM17.25 15.75c-2.071 0-3.75-1.679-3.75-3.75s1.679-3.75 3.75-3.75 3.75 1.679 3.75 3.75c0 2.071-1.679 3.75-3.75 3.75z"></path>
</svg>
