<!-- Generated by IcoMoon.io -->
<svg version="1.1" xmlns="http://www.w3.org/2000/svg" width="24" height="24" viewBox="0 0 24 24">
<title>font</title>
<path d="M18.741 0.38c-2.122 0-3.483-0.38-5.668-0.38-7.061 0-10.354 4.021-10.354 8.106 0 2.407 1.14 3.198 3.388 3.198-0.158-0.348-0.443-0.728-0.443-2.438 0-4.781 1.805-6.175 4.116-6.27 0 0-1.897 18.595-7.401 20.825v0.578h7.42l2.532-12h4.637l1.033-3h-5.037l1.217-5.77c1.393 0.285 2.755 0.57 3.927 0.57 1.457 0 2.787-0.443 3.515-3.8-0.887 0.285-1.837 0.38-2.881 0.38z"></path>
</svg>
