<!-- Generated by IcoMoon.io -->
<svg version="1.1" xmlns="http://www.w3.org/2000/svg" width="24" height="24" viewBox="0 0 24 24">
<title>foursquare</title>
<path d="M19.959 2.111c-0.283-0.384-0.731-0.611-1.209-0.611h-14.25c-0.828 0-1.5 0.672-1.5 1.5v18c0 0.607 0.365 1.154 0.926 1.386 0.186 0.077 0.38 0.114 0.574 0.114 0.39 0 0.774-0.152 1.061-0.439l5.561-5.561h3.879c0.656 0 1.236-0.426 1.432-1.053l3.75-12c0.142-0.455 0.059-0.951-0.223-1.336zM15.772 7.5h-5.272c-0.828 0-1.5 0.672-1.5 1.5s0.672 1.5 1.5 1.5h4.335l-0.938 3h-3.397c-0.398 0-0.779 0.158-1.061 0.439l-3.439 3.439v-12.879h10.71l-0.938 3z"></path>
</svg>
