<!-- Generated by IcoMoon.io -->
<svg version="1.1" xmlns="http://www.w3.org/2000/svg" width="24" height="24" viewBox="0 0 24 24">
<title>git</title>
<path d="M23.547 10.931l-10.479-10.478c-0.603-0.604-1.582-0.604-2.186 0l-2.435 2.435 1.832 1.832c0.294-0.141 0.623-0.219 0.97-0.219 1.243 0 2.25 1.007 2.25 2.25 0 0.347-0.079 0.676-0.219 0.97l2.999 2.999c0.294-0.141 0.623-0.219 0.97-0.219 1.243 0 2.25 1.007 2.25 2.25s-1.007 2.25-2.25 2.25-2.25-1.007-2.25-2.25c0-0.347 0.079-0.676 0.219-0.97l-2.999-2.999c-0.071 0.034-0.145 0.064-0.22 0.091v6.257c0.874 0.309 1.5 1.142 1.5 2.121 0 1.243-1.007 2.25-2.25 2.25s-2.25-1.007-2.25-2.25c0-0.98 0.626-1.813 1.5-2.121v-6.257c-0.874-0.309-1.5-1.142-1.5-2.121 0-0.347 0.079-0.676 0.219-0.97l-1.832-1.832-6.935 6.935c-0.604 0.604-0.604 1.583 0 2.186l10.479 10.478c0.603 0.604 1.582 0.604 2.186 0l10.43-10.43c0.604-0.604 0.604-1.583-0-2.186z"></path>
</svg>
