<!-- Generated by IcoMoon.io -->
<svg version="1.1" xmlns="http://www.w3.org/2000/svg" width="24" height="24" viewBox="0 0 24 24">
<title>glass</title>
<path d="M18.229 0.395c-0.131-0.243-0.385-0.395-0.661-0.395h-11.137c-0.276 0-0.53 0.152-0.661 0.395-0.831 1.547-1.271 3.356-1.271 5.23 0 2.471 0.759 4.801 2.136 6.561 1.065 1.36 2.402 2.263 3.864 2.629v7.685h-2.25c-0.414 0-0.75 0.336-0.75 0.75s0.336 0.75 0.75 0.75h7.5c0.414 0 0.75-0.336 0.75-0.75s-0.336-0.75-0.75-0.75h-2.25v-7.685c1.462-0.366 2.799-1.269 3.864-2.629 1.378-1.76 2.136-4.090 2.136-6.561 0-1.874-0.439-3.683-1.271-5.23zM6.893 1.5h10.214c0.585 1.24 0.893 2.656 0.893 4.125 0 0.126-0.003 0.251-0.007 0.375h-11.986c-0.004-0.124-0.007-0.249-0.007-0.375-0-1.469 0.308-2.885 0.893-4.125z"></path>
</svg>
