<!-- Generated by IcoMoon.io -->
<svg version="1.1" xmlns="http://www.w3.org/2000/svg" width="24" height="24" viewBox="0 0 24 24">
<title>google-plus</title>
<path d="M7.636 10.72v2.62h4.331c-0.173 1.125-1.308 3.295-4.331 3.295-2.606 0-4.734-2.161-4.734-4.823s2.128-4.823 4.734-4.823c1.486 0 2.475 0.633 3.042 1.177l2.072-1.997c-1.331-1.242-3.056-1.997-5.114-1.997-4.223 0.005-7.636 3.417-7.636 7.641s3.412 7.636 7.636 7.636c4.406 0 7.331-3.098 7.331-7.462 0-0.502-0.056-0.886-0.122-1.266h-7.209z"></path>
<path d="M24 10.5h-2.25v-2.25h-2.25v2.25h-2.25v2.25h2.25v2.25h2.25v-2.25h2.25z"></path>
</svg>
