<!-- Generated by IcoMoon.io -->
<svg version="1.1" xmlns="http://www.w3.org/2000/svg" width="24" height="24" viewBox="0 0 24 24">
<title>google3</title>
<path d="M12 0c-6.628 0-12 5.372-12 12s5.372 12 12 12 12-5.372 12-12-5.372-12-12-12zM12.178 21c-4.973 0-9-4.027-9-9s4.027-9 9-9c2.428 0 4.462 0.886 6.028 2.353l-2.442 2.353c-0.67-0.642-1.837-1.388-3.586-1.388-3.075 0-5.578 2.545-5.578 5.681s2.508 5.681 5.578 5.681c3.563 0 4.898-2.559 5.105-3.881h-5.105v-3.084h8.498c0.075 0.45 0.141 0.9 0.141 1.491 0.005 5.142-3.441 8.794-8.639 8.794z"></path>
</svg>
