<!-- Generated by IcoMoon.io -->
<svg version="1.1" xmlns="http://www.w3.org/2000/svg" width="24" height="24" viewBox="0 0 24 24">
<title>grin2</title>
<path d="M12 0c-6.627 0-12 5.373-12 12s5.372 12 12 12c6.627 0 12-5.373 12-12s-5.373-12-12-12zM16.5 5.531c1.499 0 2.719 1.22 2.719 2.719 0 0.149-0.013 0.302-0.038 0.453-0.038 0.226-0.233 0.391-0.462 0.391s-0.424-0.165-0.462-0.391c-0.144-0.86-0.883-1.249-1.756-1.249s-1.612 0.39-1.756 1.249c-0.038 0.226-0.233 0.391-0.462 0.391-0 0 0 0-0 0-0.229 0-0.424-0.165-0.462-0.391-0.025-0.151-0.038-0.303-0.038-0.453 0-1.499 1.22-2.719 2.719-2.719zM7.5 5.531c1.499 0 2.719 1.22 2.719 2.719 0 0.149-0.013 0.302-0.038 0.453-0.038 0.226-0.233 0.391-0.462 0.391s-0.424-0.165-0.462-0.391c-0.144-0.86-0.883-1.249-1.756-1.249s-1.612 0.39-1.756 1.249c-0.038 0.226-0.233 0.391-0.462 0.391 0 0 0 0 0 0-0.229 0-0.424-0.165-0.462-0.391-0.025-0.151-0.038-0.303-0.038-0.453 0-1.499 1.22-2.719 2.719-2.719zM4.5 13.5h4.5v5.809c-2.58-0.67-4.5-3.026-4.5-5.809zM10.5 19.5v-6h3v6h-3zM15 19.309v-5.809h4.5c0 2.783-1.92 5.138-4.5 5.809z"></path>
</svg>
