<!-- Generated by IcoMoon.io -->
<svg version="1.1" xmlns="http://www.w3.org/2000/svg" width="24" height="24" viewBox="0 0 24 24">
<title>hammer2</title>
<path d="M23.676 21.463l-12.859-11.706 0.598-0.6c0.49-0.491 0.754-1.126 0.795-1.772 0.023-0.011 0.047-0.021 0.069-0.034l2.414-1.509c0.327-0.384 0.303-0.991-0.054-1.348l-4.198-4.21c-0.356-0.357-0.961-0.381-1.344-0.054l-1.506 2.42c-0.012 0.023-0.023 0.046-0.034 0.070-0.645 0.041-1.277 0.306-1.767 0.797l-2.283 2.29c-0.49 0.491-0.754 1.126-0.795 1.772-0.024 0.011-0.047 0.021-0.069 0.034l-2.414 1.51c-0.327 0.384-0.303 0.991 0.053 1.348l4.198 4.209c0.356 0.357 0.961 0.381 1.344 0.054l1.505-2.42c0.012-0.022 0.023-0.046 0.034-0.070 0.645-0.041 1.277-0.306 1.767-0.797l0.663-0.665 11.675 12.893c0.338 0.374 0.86 0.434 1.16 0.134l1.18-1.183c0.299-0.3 0.239-0.823-0.134-1.163z"></path>
</svg>
