<!-- Generated by IcoMoon.io -->
<svg version="1.1" xmlns="http://www.w3.org/2000/svg" width="24" height="24" viewBox="0 0 24 24">
<title>hipster</title>
<path d="M12 24c6.627 0 12-5.373 12-12s-5.373-12-12-12-12 5.373-12 12 5.373 12 12 12zM12 2.25c5.385 0 9.75 4.365 9.75 9.75s-4.365 9.75-9.75 9.75-9.75-4.365-9.75-9.75 4.365-9.75 9.75-9.75zM6 7.5c0-0.828 0.672-1.5 1.5-1.5s1.5 0.672 1.5 1.5-0.672 1.5-1.5 1.5-1.5-0.672-1.5-1.5zM15 7.5c0-0.828 0.672-1.5 1.5-1.5s1.5 0.672 1.5 1.5-0.672 1.5-1.5 1.5-1.5-0.672-1.5-1.5z"></path>
<path d="M15.841 12.659c-0.879-0.879-2.303-0.879-3.182 0s-0.879 2.303 0 3.182c0.028 0.028 0.057 0.056 0.086 0.082 2.028 1.84 6.755-0.043 6.755-2.423-1.453 0.938-2.589 0.229-3.659-0.841z"></path>
<path d="M8.159 12.659c0.879-0.879 2.303-0.879 3.182 0s0.879 2.303 0 3.182c-0.028 0.028-0.057 0.056-0.086 0.082-2.028 1.84-6.755-0.043-6.755-2.423 1.453 0.938 2.589 0.229 3.659-0.841z"></path>
</svg>
