<!-- Generated by IcoMoon.io -->
<svg version="1.1" xmlns="http://www.w3.org/2000/svg" width="24" height="24" viewBox="0 0 24 24">
<title>hipster2</title>
<path d="M12 0c-6.627 0-12 5.373-12 12s5.373 12 12 12 12-5.373 12-12-5.373-12-12-12zM16.5 6c0.828 0 1.5 0.672 1.5 1.5s-0.672 1.5-1.5 1.5-1.5-0.672-1.5-1.5 0.672-1.5 1.5-1.5zM7.5 6c0.828 0 1.5 0.672 1.5 1.5s-0.672 1.5-1.5 1.5-1.5-0.672-1.5-1.5 0.672-1.5 1.5-1.5zM12.745 15.923c-0.029-0.026-0.058-0.054-0.086-0.082-0.439-0.439-0.659-1.015-0.659-1.591-0 0.576-0.22 1.151-0.659 1.591-0.028 0.028-0.057 0.056-0.086 0.082-2.028 1.84-6.755-0.043-6.755-2.423 1.453 0.938 2.589 0.229 3.659-0.841 0.879-0.879 2.303-0.879 3.182 0 0.439 0.439 0.659 1.015 0.659 1.591 0-0.576 0.22-1.151 0.659-1.591 0.879-0.879 2.303-0.879 3.182 0 1.070 1.070 2.206 1.778 3.659 0.841 0 2.38-4.727 4.263-6.755 2.423z"></path>
</svg>
