<!-- Generated by IcoMoon.io -->
<svg version="1.1" xmlns="http://www.w3.org/2000/svg" width="26" height="24" viewBox="0 0 26 24">
<title>history</title>
<path d="M15 1.5c5.799 0 10.5 4.701 10.5 10.5s-4.701 10.5-10.5 10.5v-2.25c2.204 0 4.275-0.858 5.834-2.416s2.416-3.63 2.416-5.834c0-2.204-0.858-4.275-2.416-5.834s-3.63-2.416-5.834-2.416c-2.204 0-4.275 0.858-5.834 2.416-1.199 1.199-1.982 2.701-2.281 4.334h4.364l-5.25 6-5.25-6h3.857c0.728-5.088 5.103-9 10.393-9zM19.5 10.5v3h-6v-7.5h3v4.5z"></path>
</svg>
