<!-- Generated by IcoMoon.io -->
<svg version="1.1" xmlns="http://www.w3.org/2000/svg" width="24" height="24" viewBox="0 0 24 24">
<title>IcoMoon</title>
<path d="M6.083 12c0-1.533 1.243-2.776 2.776-2.776s2.776 1.243 2.776 2.776c0 1.533-1.243 2.776-2.776 2.776s-2.776-1.243-2.776-2.776zM12 0c-6.628 0-12 5.373-12 12s5.372 12 12 12c6.627 0 12-5.373 12-12s-5.373-12-12-12zM8.892 22.483c-3.608-2.099-6.034-6.008-6.034-10.483s2.426-8.384 6.034-10.483c3.61 2.099 6.037 6.007 6.037 10.483s-2.428 8.384-6.037 10.483z"></path>
</svg>
