<!-- Generated by IcoMoon.io -->
<svg version="1.1" xmlns="http://www.w3.org/2000/svg" width="24" height="24" viewBox="0 0 24 24">
<title>IE</title>
<path d="M17.208 14.738h5.532c0.043-0.384 0.060-0.776 0.060-1.176 0-1.88-0.505-3.644-1.386-5.162 0.911-2.421 0.879-4.476-0.341-5.704-1.16-1.155-4.272-0.968-7.791 0.591-0.26-0.020-0.523-0.030-0.788-0.030-4.829 0-8.881 3.323-10.001 7.801 1.515-1.94 3.109-3.346 5.238-4.37-0.194 0.181-1.323 1.304-1.513 1.494-5.614 5.613-7.385 12.945-5.48 14.85 1.448 1.448 4.072 1.203 7.087-0.273 1.402 0.714 2.988 1.116 4.669 1.116 4.527 0 8.363-2.914 9.752-6.971h-5.575c-0.767 1.415-2.268 2.378-3.989 2.378s-3.222-0.963-3.989-2.378c-0.341-0.639-0.537-1.372-0.537-2.148v-0.017h9.053zM8.163 12.019c0.128-2.276 2.020-4.092 4.33-4.092s4.203 1.816 4.33 4.092h-8.661zM21.023 3.839c0.786 0.794 0.766 2.255 0.094 4.079-1.152-1.756-2.825-3.139-4.8-3.929 2.112-0.906 3.83-1.026 4.706-0.15zM2.191 22.67c-1.003-1.003-0.7-3.108 0.591-5.645 0.804 2.256 2.371 4.151 4.391 5.371-2.237 1.015-4.067 1.188-4.982 0.274z"></path>
</svg>
