<!-- Generated by IcoMoon.io -->
<svg version="1.1" xmlns="http://www.w3.org/2000/svg" width="24" height="24" viewBox="0 0 24 24">
<title>infinite</title>
<path d="M18.375 17.625c-1.502 0-2.915-0.585-3.977-1.647l-2.397-2.397-2.397 2.397c-1.062 1.063-2.475 1.648-3.977 1.648s-2.915-0.585-3.978-1.648c-1.062-1.063-1.648-2.475-1.648-3.978s0.585-2.915 1.648-3.978c1.063-1.062 2.475-1.648 3.978-1.648s2.915 0.585 3.978 1.648l2.397 2.397 2.397-2.397c1.062-1.062 2.475-1.648 3.978-1.648s2.915 0.585 3.978 1.648c1.063 1.063 1.648 2.475 1.648 3.978s-0.585 2.915-1.648 3.978c-1.062 1.063-2.475 1.648-3.978 1.648zM15.978 14.397c0.64 0.64 1.492 0.993 2.397 0.993s1.757-0.353 2.397-0.993c0.64-0.64 0.993-1.492 0.993-2.397s-0.353-1.757-0.993-2.397c-0.64-0.64-1.492-0.993-2.397-0.993s-1.757 0.353-2.397 0.993l-2.397 2.397 2.397 2.397zM5.625 8.61c-0.905 0-1.757 0.353-2.397 0.993s-0.993 1.492-0.993 2.397c0 0.905 0.353 1.757 0.993 2.397s1.492 0.993 2.397 0.993c0.905 0 1.757-0.353 2.397-0.993l2.397-2.397-2.397-2.397c-0.64-0.64-1.492-0.993-2.397-0.993v0z"></path>
</svg>
