<!-- Generated by IcoMoon.io -->
<svg version="1.1" xmlns="http://www.w3.org/2000/svg" width="24" height="24" viewBox="0 0 24 24">
<title>joomla</title>
<path d="M6.234 6.485c0.769-0.77 2.016-0.77 2.784-0.001l0.183 0.184 2.37-2.371-0.185-0.185c-1.351-1.352-3.246-1.825-4.979-1.418-0.248-1.528-1.572-2.694-3.168-2.694-1.773 0-3.21 1.44-3.21 3.215 0 1.531 1.069 2.813 2.5 3.137-0.542 1.815-0.099 3.863 1.332 5.296l5.34 5.341 2.367-2.372-5.339-5.341c-0.766-0.767-0.767-2.019 0.004-2.791zM23.97 3.215c0-1.776-1.437-3.215-3.211-3.215-1.623 0-2.964 1.206-3.18 2.771-1.806-0.531-3.839-0.082-5.265 1.346l-5.34 5.341 2.37 2.371 5.338-5.34c0.772-0.773 2.015-0.771 2.782-0.004 0.769 0.769 0.769 2.018-0.001 2.788l-0.183 0.184 2.367 2.373 0.184-0.186c1.417-1.42 1.867-3.44 1.35-5.242 1.574-0.207 2.788-1.555 2.788-3.187zM21.241 17.603c0.424-1.745-0.046-3.664-1.409-5.027l-5.332-5.344-2.37 2.37 5.332 5.344c0.772 0.773 0.77 2.018 0.004 2.785-0.769 0.769-2.016 0.769-2.785-0.001l-0.182-0.183-2.367 2.373 0.181 0.181c1.442 1.444 3.507 1.885 5.329 1.324 0.296 1.469 1.592 2.574 3.147 2.574 1.772 0 3.21-1.438 3.21-3.214 0-1.622-1.2-2.964-2.759-3.183zM14.352 12.391l-5.333 5.344c-0.767 0.768-2.016 0.769-2.788-0.003-0.769-0.771-0.769-2.018-0.001-2.788l0.183-0.182-2.369-2.37-0.181 0.181c-1.377 1.378-1.841 3.324-1.393 5.086-1.416 0.334-2.469 1.609-2.469 3.129-0 1.775 1.437 3.214 3.211 3.214 1.526-0.001 2.803-1.064 3.13-2.493 1.751 0.435 3.68-0.031 5.047-1.401l5.332-5.343-2.367-2.372z"></path>
</svg>
