<!-- Generated by IcoMoon.io -->
<svg version="1.1" xmlns="http://www.w3.org/2000/svg" width="24" height="24" viewBox="0 0 24 24">
<title>key2</title>
<path d="M23.487 7.365l-2.37-2.37c-0.581-0.581-1.532-1.532-2.113-2.113l-2.37-2.37c-0.581-0.581-1.616-0.684-2.3-0.228l-6.479 4.319c-0.684 0.456-0.943 1.43-0.575 2.165l1.652 3.304c0.050 0.101 0.109 0.208 0.173 0.32l-8.356 8.356-0.75 5.25h4.5v-1.5h3v-3h3v-3h3v-1.668c0.15 0.089 0.294 0.169 0.426 0.235l3.304 1.652c0.735 0.368 1.71 0.109 2.165-0.575l4.319-6.479c0.456-0.684 0.353-1.719-0.228-2.3zM3.53 20.030l-1.061-1.061 7.302-7.302 1.061 1.061-7.302 7.302zM21.493 9.932l-1.061 1.061c-0.292 0.292-0.769 0.292-1.061 0l-6.364-6.364c-0.292-0.292-0.292-0.769 0-1.061l1.061-1.061c0.292-0.292 0.769-0.292 1.061 0l6.364 6.364c0.292 0.292 0.292 0.769 0 1.061z"></path>
</svg>
