<!-- Generated by IcoMoon.io -->
<svg version="1.1" xmlns="http://www.w3.org/2000/svg" width="27" height="24" viewBox="0 0 27 24">
<title>keyboard</title>
<path d="M25.5 3h-24c-0.825 0-1.5 0.675-1.5 1.5v15c0 0.825 0.675 1.5 1.5 1.5h24c0.825 0 1.5-0.675 1.5-1.5v-15c0-0.825-0.675-1.5-1.5-1.5zM15 6h3v3h-3v-3zM19.5 10.5v3h-3v-3h3zM10.5 6h3v3h-3v-3zM15 10.5v3h-3v-3h3zM6 6h3v3h-3v-3zM10.5 10.5v3h-3v-3h3zM3 6h1.5v3h-1.5v-3zM3 10.5h3v3h-3v-3zM4.5 18h-1.5v-3h1.5v3zM18 18h-12v-3h12v3zM24 18h-4.5v-3h4.5v3zM24 13.5h-3v-3h3v3zM24 9h-4.5v-3h4.5v3z"></path>
</svg>
