<!-- Generated by IcoMoon.io -->
<svg version="1.1" xmlns="http://www.w3.org/2000/svg" width="24" height="24" viewBox="0 0 24 24">
<title>lastfm</title>
<path d="M10.584 17.958l-0.881-2.391c0 0-1.43 1.594-3.572 1.594-1.898 0-3.244-1.65-3.244-4.289 0-3.38 1.706-4.589 3.38-4.589 2.419 0 3.187 1.566 3.848 3.572l0.881 2.747c0.881 2.667 2.531 4.809 7.284 4.809 3.408 0 5.719-1.045 5.719-3.792 0-2.227-1.266-3.38-3.628-3.933l-1.758-0.384c-1.209-0.277-1.566-0.769-1.566-1.594 0-0.933 0.741-1.486 1.95-1.486 1.322 0 2.034 0.497 2.142 1.678l2.747-0.328c-0.22-2.475-1.927-3.492-4.73-3.492-2.475 0-4.894 0.933-4.894 3.933 0 1.87 0.909 3.052 3.187 3.6l1.87 0.441c1.402 0.328 1.87 0.909 1.87 1.706 0 1.017-0.989 1.43-2.859 1.43-2.775 0-3.933-1.458-4.589-3.464l-0.909-2.747c-1.148-3.577-2.991-4.894-6.647-4.894-4.041 0-6.188 2.555-6.188 6.9 0 4.177 2.142 6.431 5.995 6.431 3.103 0 4.589-1.458 4.589-1.458v0z"></path>
</svg>
