<!-- Generated by IcoMoon.io -->
<svg version="1.1" xmlns="http://www.w3.org/2000/svg" width="24" height="24" viewBox="0 0 24 24">
<title>leaf</title>
<path d="M23.703 3.152c-2.596-1.967-6.59-3.141-10.685-3.141-5.065 0-9.193 1.769-11.324 4.852-1.001 1.448-1.555 3.163-1.645 5.097-0.081 1.722 0.208 3.626 0.86 5.675 2.224-6.665 8.433-11.885 15.592-11.885 0 0-6.699 1.763-10.911 7.223-0.003 0.003-0.058 0.072-0.155 0.204-0.846 1.132-1.583 2.418-2.135 3.875-0.934 2.223-1.8 5.272-1.8 8.948h3c0 0-0.455-2.865 0.337-6.159 1.31 0.177 2.481 0.265 3.536 0.265 2.758 0 4.72-0.597 6.173-1.878 1.302-1.148 2.020-2.69 2.78-4.323 1.161-2.494 2.476-5.321 6.297-7.504 0.219-0.125 0.36-0.351 0.376-0.603s-0.095-0.494-0.295-0.646z"></path>
</svg>
