<!-- Generated by IcoMoon.io -->
<svg version="1.1" xmlns="http://www.w3.org/2000/svg" width="24" height="24" viewBox="0 0 24 24">
<title>libreoffice</title>
<path d="M12.53 0.53c-0.292-0.292-0.868-0.53-1.28-0.53h-9c-0.412 0-0.75 0.338-0.75 0.75v22.5c0 0.413 0.338 0.75 0.75 0.75h18c0.413 0 0.75-0.337 0.75-0.75v-13.5c0-0.413-0.239-0.989-0.53-1.28l-7.939-7.939zM19.5 22.5h-16.5v-21h8.23c0.068 0.011 0.197 0.065 0.253 0.105l7.911 7.911c0.040 0.056 0.094 0.185 0.105 0.253v12.73zM20.25 0h-4.5c-0.413 0-0.511 0.239-0.22 0.53l4.939 4.939c0.292 0.292 0.53 0.193 0.53-0.22v-4.5c0-0.413-0.337-0.75-0.75-0.75z"></path>
</svg>
