<!-- Generated by IcoMoon.io -->
<svg version="1.1" xmlns="http://www.w3.org/2000/svg" width="24" height="24" viewBox="0 0 24 24">
<title>ligature</title>
<path d="M18 20.433c0-0.001 0-0.002 0-0.003l-0.008-10.232-2.988 0.145h-5.905v-0.504c0-1.911 0.136-3.82 0.404-4.564 0.185-0.514 0.53-0.978 1.024-1.379 0.483-0.391 0.965-0.59 1.432-0.59 0.393 0 0.72 0.067 0.97 0.2 0.352 0.201 0.696 0.538 1.024 1.004 0.866 1.231 1.219 1.558 1.408 1.696 0.324 0.237 0.715 0.357 1.164 0.357 0.438 0 0.819-0.163 1.135-0.485 0.313-0.32 0.472-0.719 0.472-1.187 0-0.503-0.209-1.036-0.621-1.585-0.403-0.536-1.024-0.978-1.848-1.313-0.804-0.327-1.71-0.493-2.69-0.493-1.423 0-2.719 0.342-3.852 1.017-1.135 0.676-2.005 1.616-2.587 2.795-0.539 1.092-0.5 3.157-0.533 5.032h-2.947v1.673h2.944v7.609c0 1.68-0.513 2.133-0.708 2.375-0.268 0.333-0.763 0.682-1.417 0.682h-0.906v1.316h9.031v-1.316h-0.157c-2.136 0-2.743-0.23-2.743-2.832 0-0 0-0.001 0-0.001l-0.001-7.833h3.286c1.744 0 2.144 0.081 2.236 0.115 0.11 0.042 0.253 0.113 0.307 0.214 0.020 0.039 0.122 0.586 0.122 1.945v5.875c0 1.37-0.167 1.826-0.268 1.978-0.217 0.333-0.478 0.517-1.281 0.537v1.318h6.881v-1.309c-2.147 0-2.381-0.23-2.381-2.258z"></path>
</svg>
