<!-- Generated by IcoMoon.io -->
<svg version="1.1" xmlns="http://www.w3.org/2000/svg" width="24" height="24" viewBox="0 0 24 24">
<title>ligature2</title>
<path d="M20.047 21.503c-0.275 0-1.96-0.309-2.063-0.688-0.241-0.928-0.275-1.925-0.275-3.060v-12.679c0-1.891 0.378-2.991 0.378-2.991-0.034-0.172-0.206-0.55-0.413-0.55h-0.103c-0.103 0-1.307 0.756-2.407 0.756-0.894-0-1.451-0.791-2.482-0.791-4.338 0-6.374 3.523-6.374 8.509v0.26c0 0.103-0.069 0.206-0.172 0.206h-1.41c-0.172 0-0.516 0.963-0.516 1.41 0 0.138 0.034 0.206 0.103 0.206h1.822c0.103 0 0.172 0.138 0.172 0.241 0 3.060-0.034 6.077-0.034 6.077 0 0.481-0.034 1.547-0.241 2.407-0.103 0.378-1.685 0.688-2.097 0.688-0.172 0-0.172 0.825 0 0.997 1.41-0.069 2.338-0.172 3.748-0.172 1.307 0 2.304 0.103 3.679 0.172 0.069-0.206 0.069-0.997-0.103-0.997-0.275 0-1.96-0.309-2.063-0.688-0.241-0.928-0.241-1.925-0.275-3.060v-5.458c0-0.103 0.103-0.206 0.206-0.206h3.542c0.241-0.481 0.413-1.066 0.413-1.375 0-0.206 0-0.241-0.172-0.241h-3.817c-0.069 0-0.172-0.103-0.172-0.172v-1.238c0-3.060 1.253-5.755 3.351-5.755 1.485 0 2.781 0.962 2.781 4.639 0 0 0 0 0 0 0.005 0.095 0.007 0.171 0.007 0.222v10.238c0 0.481-0.034 1.547-0.241 2.407-0.103 0.378-1.685 0.688-2.097 0.688-0.172 0-0.172 0.825 0 0.997 1.41-0.069 2.338-0.172 3.748-0.172 1.307 0 2.304 0.103 3.679 0.172 0.069-0.206 0.069-0.997-0.103-0.997z"></path>
</svg>
