<!-- Generated by IcoMoon.io -->
<svg version="1.1" xmlns="http://www.w3.org/2000/svg" width="24" height="24" viewBox="0 0 24 24">
<title>link</title>
<path d="M10.318 14.901c-0.312 0-0.624-0.119-0.862-0.357-2.23-2.23-2.23-5.858 0-8.088l4.5-4.5c1.080-1.080 2.516-1.675 4.044-1.675s2.964 0.595 4.044 1.675c2.23 2.23 2.23 5.858 0 8.088l-2.057 2.057c-0.476 0.476-1.248 0.476-1.724 0s-0.476-1.248 0-1.724l2.057-2.057c1.279-1.279 1.279-3.361 0-4.64-0.62-0.62-1.444-0.961-2.32-0.961s-1.7 0.341-2.32 0.961l-4.5 4.5c-1.279 1.279-1.279 3.361 0 4.64 0.476 0.476 0.476 1.248 0 1.724-0.238 0.238-0.55 0.357-0.862 0.357z"></path>
<path d="M6 23.719c-1.528 0-2.964-0.595-4.044-1.675-2.23-2.23-2.23-5.858 0-8.088l2.057-2.057c0.476-0.476 1.248-0.476 1.724 0s0.476 1.248 0 1.724l-2.057 2.057c-1.279 1.279-1.279 3.361 0 4.64 0.62 0.62 1.444 0.961 2.32 0.961s1.7-0.341 2.32-0.961l4.5-4.5c1.279-1.279 1.279-3.361 0-4.64-0.476-0.476-0.476-1.248 0-1.724s1.248-0.476 1.724 0c2.23 2.23 2.23 5.858 0 8.088l-4.5 4.5c-1.080 1.080-2.516 1.675-4.044 1.675z"></path>
</svg>
