<!-- Generated by IcoMoon.io -->
<svg version="1.1" xmlns="http://www.w3.org/2000/svg" width="24" height="24" viewBox="0 0 24 24">
<title>location2</title>
<path d="M12 0c-4.142 0-7.5 3.358-7.5 7.5 0 7.5 7.5 16.5 7.5 16.5s7.5-9 7.5-16.5c0-4.142-3.358-7.5-7.5-7.5zM12 12.094c-2.537 0-4.594-2.057-4.594-4.594s2.057-4.594 4.594-4.594 4.594 2.057 4.594 4.594-2.057 4.594-4.594 4.594zM9.094 7.5c0-1.605 1.301-2.906 2.906-2.906s2.906 1.301 2.906 2.906c0 1.605-1.301 2.906-2.906 2.906s-2.906-1.301-2.906-2.906z"></path>
</svg>
