<!-- Generated by IcoMoon.io -->
<svg version="1.1" xmlns="http://www.w3.org/2000/svg" width="24" height="24" viewBox="0 0 24 24">
<title>magic-wand</title>
<path d="M6 4.5l-3-3h-1.5v1.5l3 3zM7.5 0h1.5v3h-1.5zM13.5 7.5h3v1.5h-3zM15 3v-1.5h-1.5l-3 3 1.5 1.5zM0 7.5h3v1.5h-3zM7.5 13.5h1.5v3h-1.5zM1.5 13.5v1.5h1.5l3-3-1.5-1.5zM23.672 20.672l-14.909-14.909c-0.438-0.438-1.153-0.438-1.591 0l-1.409 1.409c-0.438 0.438-0.438 1.153 0 1.591l14.909 14.909c0.438 0.438 1.153 0.438 1.591 0l1.409-1.409c0.438-0.438 0.438-1.153 0-1.591zM11.25 12.75l-4.5-4.5 1.5-1.5 4.5 4.5-1.5 1.5z"></path>
</svg>
