<!-- Generated by IcoMoon.io -->
<svg version="1.1" xmlns="http://www.w3.org/2000/svg" width="24" height="24" viewBox="0 0 24 24">
<title>magnet</title>
<path d="M21 0h-6l1.5 13.5c0 2.485-2.015 4.5-4.5 4.5s-4.5-2.015-4.5-4.5l1.5-13.5h-6l-1.5 13.5c0 5.799 4.701 10.5 10.5 10.5s10.5-4.701 10.5-10.5l-1.5-13.5zM18.231 19.731c-1.664 1.664-3.878 2.581-6.231 2.581s-4.567-0.917-6.231-2.581c-1.643-1.643-2.558-3.821-2.581-6.142l0.846-7.613h2.604l-0.826 7.43v0.094c0 1.653 0.644 3.207 1.812 4.375s2.722 1.812 4.375 1.812 3.207-0.644 4.375-1.812c1.169-1.169 1.812-2.722 1.812-4.375v-0.093l-0.010-0.093-0.815-7.337h2.604l0.846 7.613c-0.023 2.32-0.937 4.499-2.581 6.142z"></path>
</svg>
