<!-- Generated by IcoMoon.io -->
<svg version="1.1" xmlns="http://www.w3.org/2000/svg" width="24" height="24" viewBox="0 0 24 24">
<title>make-group</title>
<path d="M7.5 3h-3c-0.825 0-1.5 0.675-1.5 1.5v3c0 0.825 0.675 1.5 1.5 1.5h3c0.825 0 1.5-0.675 1.5-1.5v-3c0-0.825-0.675-1.5-1.5-1.5z"></path>
<path d="M16.5 9h3c0.825 0 1.5-0.675 1.5-1.5v-3c0-0.825-0.675-1.5-1.5-1.5h-3c-0.825 0-1.5 0.675-1.5 1.5v3c0 0.825 0.675 1.5 1.5 1.5zM16.5 4.5h3v3h-3v-3z"></path>
<path d="M7.5 15h-3c-0.825 0-1.5 0.675-1.5 1.5v3c0 0.825 0.675 1.5 1.5 1.5h3c0.825 0 1.5-0.675 1.5-1.5v-3c0-0.825-0.675-1.5-1.5-1.5zM7.5 19.5h-3v-3h3v3z"></path>
<path d="M19.5 15h-3c-0.825 0-1.5 0.675-1.5 1.5v3c0 0.825 0.675 1.5 1.5 1.5h3c0.825 0 1.5-0.675 1.5-1.5v-3c0-0.825-0.675-1.5-1.5-1.5z"></path>
<path d="M21 12h-1.5c-2.003 0-3.887-0.78-5.303-2.197s-2.197-3.3-2.197-5.303v-1.5c0-1.65-1.35-3-3-3h-6c-1.65 0-3 1.35-3 3v6c0 1.65 1.35 3 3 3h1.5c2.003 0 3.887 0.78 5.303 2.197s2.197 3.3 2.197 5.303v1.5c0 1.65 1.35 3 3 3h6c1.65 0 3-1.35 3-3v-6c0-1.65-1.35-3-3-3zM22.5 21c0 0.397-0.157 0.773-0.442 1.058s-0.661 0.442-1.058 0.442h-6c-0.397 0-0.773-0.157-1.058-0.442s-0.442-0.661-0.442-1.058v-1.5c0-4.971-4.029-9-9-9h-1.5c-0.397 0-0.773-0.157-1.058-0.442s-0.442-0.661-0.442-1.058v-6c0-0.397 0.157-0.773 0.442-1.058s0.661-0.442 1.058-0.442h6c0.397 0 0.773 0.157 1.058 0.442s0.442 0.661 0.442 1.058v1.5c0 4.971 4.029 9 9 9h1.5c0.397 0 0.773 0.157 1.058 0.442s0.442 0.661 0.442 1.058v6z"></path>
</svg>
