<?xml version="1.0" ?><!DOCTYPE svg  PUBLIC '-//W3C//DTD SVG 1.1//EN'  'http://www.w3.org/Graphics/SVG/1.1/DTD/svg11.dtd'><svg width="32px" height="32px" viewBox="0 0 32 32" style="fill-rule:evenodd;clip-rule:evenodd;stroke-linejoin:round;stroke-miterlimit:2;" version="1.1" xml:space="preserve" xmlns="http://www.w3.org/2000/svg" xmlns:serif="http://www.serif.com/" xmlns:xlink="http://www.w3.org/1999/xlink"><path d="M24.633,7.999l-17.266,0c-0.235,-0.586 -0.494,-1.04 -0.757,-1.337c-0.422,-0.478 -0.899,-0.675 -1.36,-0.675c-0.644,0 -1.4,0.461 -1.935,1.572c-0.762,1.582 -1.315,4.764 -1.315,8.435c0,3.67 0.553,6.852 1.315,8.434c0.535,1.111 1.291,1.572 1.935,1.572c0.461,-0 0.938,-0.197 1.36,-0.674c0.262,-0.296 0.518,-0.745 0.752,-1.326l17.276,0c0.234,0.581 0.49,1.03 0.752,1.326c0.422,0.477 0.899,0.674 1.36,0.674c0.644,-0 1.4,-0.461 1.935,-1.572c0.762,-1.582 1.315,-4.764 1.315,-8.434c0,-3.671 -0.553,-6.853 -1.315,-8.435c-0.535,-1.111 -1.291,-1.572 -1.935,-1.572c-0.461,0 -0.938,0.197 -1.36,0.675c-0.263,0.297 -0.522,0.751 -0.757,1.337Zm1.367,13.552c0.181,0.868 0.399,1.584 0.655,2.085c0.023,0.044 0.05,0.091 0.08,0.136c0.126,-0.217 0.295,-0.534 0.397,-0.833c0.534,-1.567 0.868,-4.096 0.868,-6.945c0,-2.85 -0.334,-5.379 -0.868,-6.946c-0.102,-0.299 -0.271,-0.615 -0.397,-0.833c-0.03,0.046 -0.057,0.092 -0.08,0.136c-0.256,0.501 -0.474,1.217 -0.655,2.085l0,11.115Zm-20,-11.115c-0.181,-0.868 -0.399,-1.584 -0.655,-2.085c-0.023,-0.044 -0.05,-0.09 -0.08,-0.136c-0.126,0.218 -0.295,0.534 -0.397,0.833c-0.534,1.567 -0.868,4.096 -0.868,6.946c0,2.849 0.334,5.378 0.868,6.945c0.102,0.299 0.271,0.616 0.397,0.833c0.03,-0.045 0.057,-0.092 0.08,-0.136c0.256,-0.501 0.474,-1.217 0.655,-2.085l-0,-11.115Zm2,-0.437l-0,12.001c-0,0 16,0 16,0l-0,-12.001l-16,0Z"/><path d="M15,15l-1.998,-0c-0.552,0 -1,0.448 -1,1c-0,0.552 0.448,1 1,1l1.998,-0l-0,1.998c-0,0.552 0.448,1 1,1c0.552,0 1,-0.448 1,-1l-0,-1.998l1.998,-0c0.552,0 1,-0.448 1,-1c0,-0.552 -0.448,-1 -1,-1l-1.998,-0l-0,-1.998c-0,-0.552 -0.448,-1 -1,-1c-0.552,-0 -1,0.448 -1,1l-0,1.998Z"/></svg>