<!-- Generated by IcoMoon.io -->
<svg version="1.1" xmlns="http://www.w3.org/2000/svg" width="24" height="24" viewBox="0 0 24 24">
<title>meter2</title>
<path d="M12 0c-6.627 0-12 5.373-12 12s5.373 12 12 12 12-5.373 12-12-5.373-12-12-12zM7.098 19.55c0.26-0.718 0.402-1.493 0.402-2.3 0-2.914-1.847-5.397-4.435-6.342 0.239-1.99 1.131-3.832 2.571-5.272 1.7-1.7 3.96-2.636 6.364-2.636s4.664 0.936 6.364 2.636c1.44 1.44 2.331 3.281 2.571 5.272-2.588 0.945-4.435 3.428-4.435 6.342 0 0.808 0.142 1.582 0.402 2.3-1.446 0.943-3.135 1.45-4.902 1.45s-3.456-0.506-4.902-1.45zM12.932 15.023c0.325 0.082 0.568 0.377 0.568 0.727v1.5c0 0.413-0.337 0.75-0.75 0.75h-1.5c-0.413 0-0.75-0.337-0.75-0.75v-1.5c0-0.35 0.243-0.645 0.568-0.727l0.557-10.523h0.75l0.557 10.523z"></path>
</svg>
