<!-- Generated by IcoMoon.io -->
<svg version="1.1" xmlns="http://www.w3.org/2000/svg" width="24" height="24" viewBox="0 0 24 24">
<title>neutral</title>
<path d="M12 24c6.627 0 12-5.373 12-12s-5.373-12-12-12-12 5.373-12 12 5.373 12 12 12zM12 2.25c5.385 0 9.75 4.365 9.75 9.75s-4.365 9.75-9.75 9.75-9.75-4.365-9.75-9.75 4.365-9.75 9.75-9.75zM6 7.5c0 0.828 0.672 1.5 1.5 1.5s1.5-0.672 1.5-1.5-0.672-1.5-1.5-1.5-1.5 0.672-1.5 1.5zM15 7.5c0 0.828 0.672 1.5 1.5 1.5s1.5-0.672 1.5-1.5-0.672-1.5-1.5-1.5-1.5 0.672-1.5 1.5zM9 16.5h6v1.5h-6v-1.5z"></path>
</svg>
