<!-- Generated by IcoMoon.io -->
<svg version="1.1" xmlns="http://www.w3.org/2000/svg" width="24" height="24" viewBox="0 0 24 24">
<title>onedrive</title>
<path d="M8.223 19.415c-1.413-0.353-2.2-1.476-2.202-3.142-0.001-0.533 0.038-0.788 0.171-1.131 0.326-0.84 1.189-1.474 2.324-1.707 0.565-0.116 0.739-0.241 0.739-0.529 0-0.091 0.067-0.36 0.149-0.599 0.373-1.085 1.065-1.99 1.803-2.36 0.773-0.387 1.163-0.475 2.099-0.47 1.328 0.007 1.991 0.295 2.918 1.269l0.51 0.535 0.457-0.158c2.21-0.765 4.413 0.537 4.591 2.713l0.049 0.595 0.435 0.156c1.243 0.445 1.827 1.381 1.721 2.755-0.069 0.899-0.49 1.617-1.155 1.973l-0.313 0.167-6.957 0.013c-5.346 0.010-7.045-0.009-7.339-0.082v0zM2.419 18.421c-0.848-0.213-1.746-1.004-2.167-1.909-0.239-0.513-0.252-0.589-0.252-1.497 0-0.864 0.020-1.003 0.211-1.432 0.401-0.904 1.169-1.558 2.134-1.814 0.204-0.054 0.395-0.141 0.425-0.192s0.064-0.332 0.075-0.623c0.067-1.809 1.19-3.403 2.759-3.915 0.847-0.277 1.959-0.302 2.88 0.087 0.292 0.124 0.259 0.15 0.877-0.706 0.365-0.507 1.057-1.043 1.662-1.364 0.652-0.346 1.331-0.506 2.142-0.504 2.268 0.006 4.223 1.505 4.945 3.793 0.231 0.731 0.219 0.936-0.053 0.942-0.119 0.003-0.459 0.072-0.757 0.154l-0.541 0.149-0.493-0.521c-1.391-1.47-3.662-1.788-5.592-0.783-0.771 0.402-1.391 0.978-1.859 1.73-0.334 0.536-0.759 1.535-0.759 1.783 0 0.176-0.135 0.264-0.711 0.464-1.783 0.618-2.824 2.046-2.824 3.872 0 0.665 0.162 1.478 0.387 1.944 0.085 0.176 0.132 0.343 0.105 0.371-0.069 0.073-2.288 0.048-2.594-0.029v0z"></path>
</svg>
