<!-- Generated by IcoMoon.io -->
<svg version="1.1" xmlns="http://www.w3.org/2000/svg" width="24" height="24" viewBox="0 0 24 24">
<title>opt</title>
<path d="M21.75 19.5h-6c-0.296 0-0.565-0.175-0.685-0.445l-5.802-13.055h-7.013c-0.414 0-0.75-0.336-0.75-0.75s0.336-0.75 0.75-0.75h7.5c0.296 0 0.565 0.175 0.685 0.445l5.802 13.055h5.513c0.414 0 0.75 0.336 0.75 0.75s-0.336 0.75-0.75 0.75z"></path>
<path d="M21.75 6h-7.5c-0.414 0-0.75-0.336-0.75-0.75s0.336-0.75 0.75-0.75h7.5c0.414 0 0.75 0.336 0.75 0.75s-0.336 0.75-0.75 0.75z"></path>
</svg>
