<!-- Generated by IcoMoon.io -->
<svg version="1.1" xmlns="http://www.w3.org/2000/svg" width="24" height="24" viewBox="0 0 24 24">
<title>paint-format</title>
<path d="M24 13.5v-9h-4.5v-1.5c0-0.825-0.675-1.5-1.5-1.5h-16.5c-0.825 0-1.5 0.675-1.5 1.5v4.5c0 0.825 0.675 1.5 1.5 1.5h16.5c0.825 0 1.5-0.675 1.5-1.5v-1.5h3v6h-13.5v3h-0.75c-0.414 0-0.75 0.336-0.75 0.75v7.5c0 0.414 0.336 0.75 0.75 0.75h3c0.414 0 0.75-0.336 0.75-0.75v-7.5c0-0.414-0.336-0.75-0.75-0.75h-0.75v-1.5h13.5zM18 4.5h-16.5v-1.5h16.5v1.5z"></path>
</svg>
