<!-- Generated by IcoMoon.io -->
<svg version="1.1" xmlns="http://www.w3.org/2000/svg" width="24" height="24" viewBox="0 0 24 24">
<title>paste</title>
<path d="M16.5 3h-3v-1.5c0-0.825-0.675-1.5-1.5-1.5h-3c-0.825 0-1.5 0.675-1.5 1.5v1.5h-3v3h12v-3zM12 3h-3v-1.497c0.001-0.001 0.002-0.002 0.003-0.003h2.995c0.001 0.001 0.002 0.002 0.003 0.003v1.497zM19.5 7.5v-3.75c0-0.412-0.337-0.75-0.75-0.75h-1.5v1.5h0.75v3h-4.5l-4.5 4.5v6h-6v-13.5h0.75v-1.5h-1.5c-0.413 0-0.75 0.338-0.75 0.75v15c0 0.413 0.337 0.75 0.75 0.75h6.75v4.5h15v-16.5h-4.5zM13.5 9.621v2.379h-2.379l2.379-2.379zM22.5 22.5h-12v-9h4.5v-4.5h7.5v13.5z"></path>
</svg>
