<!-- Generated by IcoMoon.io -->
<svg version="1.1" xmlns="http://www.w3.org/2000/svg" width="24" height="24" viewBox="0 0 24 24">
<title>paypal</title>
<path d="M21.797 7.233c-1.12 4.973-4.58 7.598-10.031 7.598h-1.814l-1.261 8.006h-1.519l-0.080 0.516c-0.052 0.342 0.211 0.647 0.553 0.647h3.881c0.459 0 0.848-0.333 0.923-0.788l0.037-0.197 0.731-4.636 0.047-0.253c0.070-0.455 0.464-0.788 0.923-0.788h0.577c3.759 0 6.703-1.528 7.566-5.944 0.323-1.678 0.202-3.103-0.534-4.163z"></path>
<path d="M19.477 1.809c-1.111-1.266-3.122-1.809-5.691-1.809h-7.458c-0.525 0-0.975 0.38-1.055 0.9l-3.108 19.697c-0.061 0.389 0.239 0.741 0.633 0.741h4.608l1.158-7.336-0.037 0.23c0.080-0.52 0.525-0.9 1.050-0.9h2.189c4.298 0 7.664-1.744 8.648-6.797 0.028-0.15 0.056-0.295 0.075-0.436 0.291-1.866 0-3.141-1.013-4.289z"></path>
</svg>
