<!-- Generated by IcoMoon.io -->
<svg version="1.1" xmlns="http://www.w3.org/2000/svg" width="24" height="24" viewBox="0 0 24 24">
<title>pen</title>
<path d="M23.863 6.841l-6.704-6.704c-0.219-0.219-0.507-0.17-0.641 0.109l-0.899 1.873 6.262 6.262 1.873-0.899c0.279-0.134 0.328-0.422 0.109-0.641z"></path>
<path d="M14.423 3.173l-6.173 0.514c-0.41 0.051-0.752 0.138-0.869 0.674-0 0.001-0 0.001-0 0.002-1.674 8.041-7.38 15.887-7.38 15.887l1.345 1.345 6.375-6.375c-0.141-0.294-0.219-0.623-0.219-0.97 0-1.243 1.007-2.25 2.25-2.25s2.25 1.007 2.25 2.25-1.007 2.25-2.25 2.25c-0.347 0-0.676-0.079-0.97-0.219l-6.375 6.375 1.345 1.345c0 0 7.846-5.706 15.887-7.38 0.001-0 0.001-0 0.002-0 0.536-0.117 0.623-0.459 0.674-0.869l0.514-6.173-6.404-6.404z"></path>
</svg>
