<!-- Generated by IcoMoon.io -->
<svg version="1.1" xmlns="http://www.w3.org/2000/svg" width="24" height="24" viewBox="0 0 24 24">
<title>phone-hang-up</title>
<path d="M23.845 13.5c0.188 1.3 0.31 3.079-0.273 3.76-0.964 1.126-7.071 1.126-7.071-1.126 0-1.134 1.004-1.878 0.040-3.004-0.949-1.108-2.649-1.126-4.54-1.126s-3.592 0.018-4.54 1.126c-0.964 1.126 0.040 1.87 0.040 3.004 0 2.252-6.107 2.252-7.071 1.126-0.583-0.681-0.461-2.46-0.273-3.76 0.144-0.868 0.509-1.805 1.677-3 0-0 0-0 0-0 1.752-1.635 4.403-2.97 10.074-2.999v-0.001c0.031 0 0.062 0 0.094 0s0.062-0 0.094-0v0.001c5.671 0.029 8.322 1.365 10.074 2.999 0 0 0 0 0 0 1.168 1.195 1.533 2.132 1.677 3z"></path>
</svg>
