<!-- Generated by IcoMoon.io -->
<svg version="1.1" xmlns="http://www.w3.org/2000/svg" width="24" height="24" viewBox="0 0 24 24">
<title>point-up</title>
<path d="M22.5 14.25v-3.75c0-1.241-1.009-2.25-2.25-2.25-0.401 0-0.778 0.105-1.104 0.29-0.4-0.625-1.101-1.040-1.896-1.040-0.576 0-1.102 0.217-1.5 0.574-0.398-0.357-0.924-0.574-1.5-0.574-0.263 0-0.515 0.045-0.75 0.129v-5.379c0-1.241-1.009-2.25-2.25-2.25s-2.25 1.009-2.25 2.25v9.25l-4.125-2.199c-0.341-0.197-0.73-0.301-1.125-0.301-1.241 0-2.25 1.009-2.25 2.25 0 0.618 0.245 1.194 0.691 1.622 0.006 0.006 0.012 0.011 0.018 0.016l5.606 5.111h-1.064c-0.414 0-0.75 0.336-0.75 0.75v4.5c0 0.414 0.336 0.75 0.75 0.75h15c0.414 0 0.75-0.336 0.75-0.75v-4.5c0-0.414-0.336-0.75-0.75-0.75h-1.036l1.707-3.415c0.052-0.104 0.079-0.219 0.079-0.335zM21 20.25c0 0.414-0.336 0.75-0.75 0.75s-0.75-0.336-0.75-0.75 0.336-0.75 0.75-0.75 0.75 0.336 0.75 0.75zM21 14.073l-1.963 3.927h-8.996l-6.816-6.215c-0.145-0.142-0.225-0.332-0.225-0.535 0-0.414 0.336-0.75 0.75-0.75 0.128 0 0.249 0.031 0.359 0.091 0.012 0.008 0.025 0.015 0.038 0.022l5.25 2.799c0.232 0.124 0.513 0.117 0.739-0.019s0.364-0.38 0.364-0.643v-10.5c0-0.414 0.336-0.75 0.75-0.75s0.75 0.336 0.75 0.75v7.5c0 0.414 0.336 0.75 0.75 0.75s0.75-0.336 0.75-0.75c0-0.414 0.336-0.75 0.75-0.75s0.75 0.336 0.75 0.75c0 0.414 0.336 0.75 0.75 0.75s0.75-0.336 0.75-0.75c0-0.414 0.336-0.75 0.75-0.75s0.75 0.336 0.75 0.75v0.75c0 0.414 0.336 0.75 0.75 0.75s0.75-0.336 0.75-0.75c0-0.414 0.336-0.75 0.75-0.75s0.75 0.336 0.75 0.75v3.573z"></path>
</svg>
