<!-- Generated by IcoMoon.io -->
<svg version="1.1" xmlns="http://www.w3.org/2000/svg" width="24" height="24" viewBox="0 0 24 24">
<title>point-left</title>
<path d="M14.25 22.5h-3.75c-1.241 0-2.25-1.009-2.25-2.25 0-0.401 0.105-0.778 0.29-1.104-0.625-0.4-1.040-1.101-1.040-1.896 0-0.576 0.217-1.102 0.574-1.5-0.357-0.398-0.574-0.924-0.574-1.5 0-0.263 0.045-0.515 0.129-0.75h-5.379c-1.241 0-2.25-1.009-2.25-2.25s1.009-2.25 2.25-2.25h9.25l-2.199-4.125c-0.197-0.341-0.301-0.73-0.301-1.125 0-1.241 1.009-2.25 2.25-2.25 0.618 0 1.194 0.245 1.622 0.691 0.006 0.006 0.011 0.012 0.016 0.018l5.111 5.606v-1.064c0-0.414 0.336-0.75 0.75-0.75h4.5c0.414 0 0.75 0.336 0.75 0.75v15c0 0.414-0.336 0.75-0.75 0.75h-4.5c-0.414 0-0.75-0.336-0.75-0.75v-1.036l-3.415 1.707c-0.104 0.052-0.219 0.079-0.335 0.079zM20.25 21c0.414 0 0.75-0.336 0.75-0.75s-0.336-0.75-0.75-0.75-0.75 0.336-0.75 0.75 0.336 0.75 0.75 0.75zM14.073 21l3.927-1.964v-8.996l-6.215-6.816c-0.142-0.145-0.332-0.224-0.535-0.224-0.414 0-0.75 0.336-0.75 0.75 0 0.128 0.031 0.249 0.091 0.359 0.008 0.012 0.015 0.025 0.022 0.038l2.799 5.25c0.124 0.232 0.117 0.513-0.019 0.739s-0.38 0.364-0.643 0.364h-10.5c-0.414 0-0.75 0.336-0.75 0.75s0.336 0.75 0.75 0.75h7.5c0.414 0 0.75 0.336 0.75 0.75s-0.336 0.75-0.75 0.75c-0.414 0-0.75 0.336-0.75 0.75s0.336 0.75 0.75 0.75c0.414 0 0.75 0.336 0.75 0.75s-0.336 0.75-0.75 0.75c-0.414 0-0.75 0.336-0.75 0.75s0.336 0.75 0.75 0.75h0.75c0.414 0 0.75 0.336 0.75 0.75s-0.336 0.75-0.75 0.75c-0.414 0-0.75 0.336-0.75 0.75s0.336 0.75 0.75 0.75h3.573z"></path>
</svg>
