<!-- Generated by IcoMoon.io -->
<svg version="1.1" xmlns="http://www.w3.org/2000/svg" width="24" height="24" viewBox="0 0 24 24">
<title>power-cord</title>
<path d="M24 6.621l-2.121-2.121-4.189 4.19-2.379-2.379 4.189-4.189-2.121-2.121-4.189 4.189-2.689-2.689-2.030 2.030 12 12 2.030-2.030-2.689-2.69 4.189-4.189z"></path>
<path d="M18.61 15.792l-10.402-10.402c-2.246 2.693-4.793 6.854-3.033 10.435l-3.1 3.1c-0.729 0.729-0.729 1.922 0 2.652l0.348 0.348c0.729 0.729 1.922 0.729 2.652 0l3.1-3.099c3.58 1.761 7.742-0.787 10.435-3.033z"></path>
</svg>
