<!-- Generated by IcoMoon.io -->
<svg version="1.1" xmlns="http://www.w3.org/2000/svg" width="24" height="24" viewBox="0 0 24 24">
<title>reddit</title>
<path d="M6 15c0-0.828 0.672-1.5 1.5-1.5s1.5 0.672 1.5 1.5c0 0.828-0.672 1.5-1.5 1.5s-1.5-0.672-1.5-1.5zM15 15c0-0.828 0.672-1.5 1.5-1.5s1.5 0.672 1.5 1.5c0 0.828-0.672 1.5-1.5 1.5s-1.5-0.672-1.5-1.5zM15.073 18.206c0.386-0.304 0.946-0.238 1.251 0.148s0.238 0.946-0.148 1.251c-1.076 0.847-2.715 1.395-4.175 1.395s-3.1-0.548-4.175-1.395c-0.386-0.304-0.453-0.864-0.148-1.251s0.864-0.453 1.251-0.148c0.619 0.488 1.845 1.013 3.073 1.013s2.454-0.525 3.073-1.013zM24 12c0-1.657-1.343-3-3-3-1.128 0-2.109 0.623-2.622 1.543-1.542-0.844-3.421-1.389-5.467-1.514l1.79-4.020 3.426 0.989c0.308 0.875 1.142 1.503 2.122 1.503 1.243 0 2.25-1.007 2.25-2.25s-1.007-2.25-2.25-2.25c-0.857 0-1.602 0.479-1.982 1.184l-3.818-1.102c-0.427-0.123-0.88 0.087-1.061 0.493l-2.432 5.462c-1.995 0.141-3.826 0.68-5.335 1.506-0.512-0.92-1.495-1.542-2.622-1.542-1.657 0-3 1.343-3 3 0 1.226 0.736 2.279 1.79 2.745-0.189 0.563-0.29 1.151-0.29 1.755 0 4.142 4.701 7.5 10.5 7.5s10.5-3.358 10.5-7.5c0-0.605-0.101-1.192-0.29-1.755 1.054-0.465 1.79-1.519 1.79-2.745zM20.25 4.406c0.466 0 0.844 0.378 0.844 0.844s-0.378 0.844-0.844 0.844-0.844-0.378-0.844-0.844 0.378-0.844 0.844-0.844zM1.5 12c0-0.827 0.673-1.5 1.5-1.5 0.598 0 1.115 0.352 1.356 0.859-0.784 0.595-1.434 1.28-1.914 2.033-0.551-0.222-0.942-0.762-0.942-1.392zM12 22.219c-4.815 0-8.719-2.56-8.719-5.719s3.904-5.719 8.719-5.719c4.815 0 8.719 2.56 8.719 5.719s-3.904 5.719-8.719 5.719zM21.558 13.392c-0.48-0.753-1.13-1.438-1.914-2.033 0.241-0.507 0.758-0.859 1.356-0.859 0.827 0 1.5 0.673 1.5 1.5 0 0.63-0.39 1.17-0.942 1.392z"></path>
</svg>
