<!-- Generated by IcoMoon.io -->
<svg version="1.1" xmlns="http://www.w3.org/2000/svg" width="24" height="24" viewBox="0 0 24 24">
<title>renren</title>
<path d="M9.966 0.248c-5.653 0.952-9.966 5.869-9.966 11.794 0 2.944 1.069 5.639 2.831 7.725 4.186-2.025 7.116-6.609 7.134-11.948v-7.57z"></path>
<path d="M14.034 0.248c5.653 0.952 9.966 5.869 9.966 11.794 0 2.944-1.069 5.639-2.831 7.725-4.186-2.025-7.116-6.609-7.134-11.948v-7.57z"></path>
<path d="M11.958 15.061c-0.745 3.084-2.972 5.719-5.742 7.472 1.706 0.933 3.661 1.467 5.742 1.467s4.036-0.534 5.742-1.467c-2.77-1.753-4.997-4.387-5.742-7.472z"></path>
</svg>
