<!-- Generated by IcoMoon.io -->
<svg version="1.1" xmlns="http://www.w3.org/2000/svg" width="24" height="24" viewBox="0 0 24 24">
<title>rss</title>
<path d="M3.194 17.6c-1.762 0-3.194 1.438-3.194 3.189 0 1.761 1.432 3.183 3.194 3.183 1.769 0 3.199-1.421 3.199-3.183-0-1.752-1.43-3.189-3.199-3.189zM0.004 8.155v4.6c2.995 0 5.812 1.171 7.933 3.293 2.118 2.117 3.288 4.946 3.288 7.952h4.62c-0-8.738-7.108-15.845-15.841-15.845zM0.009 0v4.602c10.682 0 19.377 8.703 19.377 19.398h4.614c0-13.23-10.764-24-23.991-24z"></path>
</svg>
