<!-- Generated by IcoMoon.io -->
<svg version="1.1" xmlns="http://www.w3.org/2000/svg" width="24" height="24" viewBox="0 0 24 24">
<title>scissors</title>
<path d="M21.418 15.93c-1.563-2.442-4.244-3.517-5.989-2.401-0.151 0.096-0.289 0.206-0.416 0.328l-1.862-2.912 4.3-6.749c0.352-0.65 0.482-1.424 0.311-2.203-0.163-0.744-0.575-1.37-1.127-1.81l-0.288-0.183-5.097 7.971-5.097-7.971-0.288 0.183c-0.553 0.44-0.964 1.066-1.127 1.81-0.171 0.778-0.041 1.553 0.311 2.203l4.3 6.749-1.862 2.912c-0.127-0.121-0.265-0.231-0.416-0.328-1.745-1.116-4.426-0.041-5.989 2.401s-1.416 5.327 0.329 6.443c1.744 1.116 4.426 0.041 5.988-2.401l3.85-6.044 3.851 6.044c1.563 2.442 4.244 3.517 5.988 2.401s1.892-4.001 0.329-6.443zM5.504 18.76c-0.704 1.099-1.606 1.634-2.217 1.768-0 0-0 0-0 0-0.199 0.044-0.476 0.071-0.664-0.050-0.209-0.133-0.347-0.486-0.37-0.944-0.038-0.742 0.226-1.613 0.724-2.391 0.703-1.099 1.606-1.634 2.216-1.768 0.199-0.044 0.476-0.071 0.664 0.050 0.209 0.133 0.347 0.486 0.37 0.944 0.038 0.742-0.226 1.613-0.724 2.392zM11.25 12c-0.414 0-0.75-0.336-0.75-0.75s0.336-0.75 0.75-0.75 0.75 0.336 0.75 0.75-0.336 0.75-0.75 0.75zM20.246 19.534c-0.023 0.458-0.162 0.811-0.37 0.944-0.188 0.12-0.465 0.094-0.664 0.050 0 0 0 0-0 0-0.61-0.134-1.513-0.669-2.217-1.768-0.498-0.778-0.762-1.65-0.724-2.392 0.023-0.458 0.162-0.81 0.37-0.944 0.188-0.12 0.465-0.094 0.664-0.050 0.61 0.134 1.513 0.669 2.216 1.768 0.498 0.778 0.762 1.65 0.724 2.391z"></path>
</svg>
