<!-- Generated by IcoMoon.io -->
<svg version="1.1" xmlns="http://www.w3.org/2000/svg" width="24" height="24" viewBox="0 0 24 24">
<title>section</title>
<path d="M11.624 24c-1.157 0-2.136-0.338-2.909-1.004-0.779-0.671-1.173-1.454-1.173-2.328 0-0.425 0.155-0.791 0.46-1.089 0.31-0.303 0.698-0.463 1.121-0.463 0.422 0 0.801 0.15 1.097 0.435 0.292 0.281 0.441 0.652 0.441 1.104 0 0.265-0.043 0.558-0.129 0.871-0.085 0.309-0.103 0.467-0.103 0.546 0 0.086 0.022 0.189 0.182 0.299 0.299 0.207 0.658 0.307 1.099 0.307 0.529 0 1.001-0.184 1.443-0.563 0.435-0.374 0.647-0.757 0.647-1.173 0-0.463-0.124-0.863-0.378-1.224-0.43-0.604-1.239-1.311-2.405-2.102-1.872-1.253-3.119-2.338-3.81-3.317-0.536-0.766-0.808-1.591-0.808-2.454 0-0.869 0.285-1.733 0.846-2.569 0.481-0.716 1.191-1.362 2.115-1.925-0.494-0.532-0.865-1.033-1.104-1.493-0.302-0.58-0.455-1.181-0.455-1.784 0-1.121 0.443-2.090 1.317-2.88s1.965-1.192 3.242-1.192c1.174 0 2.161 0.33 2.934 0.981 0.781 0.658 1.177 1.427 1.177 2.286 0 0.437-0.164 0.829-0.487 1.164l-0.006 0.007c-0.187 0.186-0.53 0.407-1.103 0.407-0.449 0-0.842-0.147-1.138-0.425-0.294-0.276-0.444-0.607-0.444-0.984 0-0.163 0.040-0.408 0.125-0.773 0.042-0.173 0.063-0.331 0.063-0.475 0-0.242-0.087-0.428-0.275-0.585-0.194-0.162-0.471-0.241-0.847-0.241-0.583 0-1.061 0.177-1.463 0.542-0.403 0.366-0.599 0.799-0.599 1.324 0 0.472 0.107 0.862 0.318 1.157 0.401 0.561 1.097 1.167 2.068 1.801 1.973 1.279 3.349 2.453 4.090 3.488 0.547 0.776 0.824 1.602 0.824 2.456 0 0.858-0.278 1.723-0.828 2.571-0.474 0.731-1.189 1.389-2.13 1.962 0.52 0.55 0.886 1.032 1.115 1.466 0.283 0.538 0.427 1.126 0.427 1.747 0 1.164-0.444 2.153-1.318 2.94s-1.966 1.185-3.241 1.185zM10.463 8.352c-1.13 0.679-1.681 1.458-1.681 2.375 0 0.533 0.152 1.011 0.465 1.46 0.467 0.655 1.389 1.454 2.738 2.374 0.571 0.389 1.087 0.767 1.537 1.126 1.15-0.692 1.71-1.462 1.71-2.348 0-0.483-0.191-1.003-0.567-1.545-0.394-0.567-1.239-1.308-2.511-2.201-0.664-0.458-1.232-0.875-1.691-1.241z"></path>
</svg>
