<!-- Generated by IcoMoon.io -->
<svg version="1.1" xmlns="http://www.w3.org/2000/svg" width="24" height="24" viewBox="0 0 24 24">
<title>shift</title>
<path d="M15.75 21h-7.5c-0.414 0-0.75-0.336-0.75-0.75v-8.25h-3c-0.303 0-0.577-0.183-0.693-0.463s-0.052-0.603 0.163-0.817l7.5-7.5c0.293-0.293 0.768-0.293 1.061 0l7.5 7.5c0.215 0.214 0.279 0.537 0.163 0.817s-0.39 0.463-0.693 0.463h-3v8.25c0 0.414-0.336 0.75-0.75 0.75zM9 19.5h6v-8.25c0-0.414 0.336-0.75 0.75-0.75h1.939l-5.689-5.689-5.689 5.689h1.939c0.414 0 0.75 0.336 0.75 0.75v8.25z"></path>
</svg>
