<!-- Generated by IcoMoon.io -->
<svg version="1.1" xmlns="http://www.w3.org/2000/svg" width="24" height="24" viewBox="0 0 24 24">
<title>shocked2</title>
<path d="M12 0c-6.627 0-12 5.373-12 12s5.373 12 12 12 12-5.373 12-12-5.373-12-12-12zM7.5 10.5c-0.828 0-1.5-1.007-1.5-2.25s0.672-2.25 1.5-2.25 1.5 1.007 1.5 2.25-0.672 2.25-1.5 2.25zM12 19.5c-1.657 0-3-1.343-3-3s1.343-3 3-3c1.657 0 3 1.343 3 3s-1.343 3-3 3zM16.5 10.5c-0.828 0-1.5-1.007-1.5-2.25s0.672-2.25 1.5-2.25 1.5 1.007 1.5 2.25-0.672 2.25-1.5 2.25z"></path>
</svg>
