<!-- Generated by IcoMoon.io -->
<svg version="1.1" xmlns="http://www.w3.org/2000/svg" width="24" height="24" viewBox="0 0 24 24">
<title>shocked</title>
<path d="M12 24c6.627 0 12-5.373 12-12s-5.373-12-12-12-12 5.373-12 12 5.373 12 12 12zM12 2.25c5.385 0 9.75 4.365 9.75 9.75s-4.365 9.75-9.75 9.75-9.75-4.365-9.75-9.75 4.365-9.75 9.75-9.75zM9 16.5c0-1.657 1.343-3 3-3s3 1.343 3 3c0 1.657-1.343 3-3 3s-3-1.343-3-3zM15 8.25c0-1.243 0.672-2.25 1.5-2.25s1.5 1.007 1.5 2.25c0 1.243-0.672 2.25-1.5 2.25s-1.5-1.007-1.5-2.25zM6 8.25c0-1.243 0.672-2.25 1.5-2.25s1.5 1.007 1.5 2.25c0 1.243-0.672 2.25-1.5 2.25s-1.5-1.007-1.5-2.25z"></path>
</svg>
