<!-- Generated by IcoMoon.io -->
<svg version="1.1" xmlns="http://www.w3.org/2000/svg" width="24" height="24" viewBox="0 0 24 24">
<title>sina-weibo</title>
<path d="M10.083 21.047c-3.975 0.394-7.406-1.406-7.664-4.013-0.258-2.611 2.756-5.039 6.727-5.433 3.975-0.394 7.406 1.406 7.659 4.013 0.263 2.611-2.752 5.044-6.722 5.433zM18.028 12.389c-0.338-0.103-0.572-0.169-0.394-0.614 0.384-0.966 0.422-1.795 0.005-2.391-0.778-1.111-2.911-1.055-5.353-0.028 0 0-0.769 0.333-0.572-0.272 0.375-1.209 0.319-2.217-0.267-2.803-1.327-1.327-4.852 0.052-7.875 3.075-2.259 2.255-3.572 4.659-3.572 6.736 0 3.966 5.091 6.38 10.069 6.38 6.525 0 10.87-3.792 10.87-6.802 0-1.823-1.533-2.855-2.911-3.281z"></path>
<path d="M22.364 5.123c-1.575-1.748-3.9-2.414-6.047-1.959v0c-0.497 0.108-0.811 0.595-0.703 1.088 0.108 0.497 0.591 0.811 1.088 0.703 1.528-0.323 3.178 0.15 4.298 1.392s1.425 2.934 0.942 4.416v0c-0.155 0.483 0.108 0.998 0.591 1.158 0.483 0.155 0.998-0.108 1.158-0.591v-0.005c0.675-2.072 0.248-4.453-1.327-6.202z"></path>
<path d="M19.941 7.313c-0.769-0.853-1.903-1.177-2.944-0.952-0.427 0.089-0.698 0.516-0.609 0.942 0.094 0.427 0.516 0.698 0.938 0.605v0c0.511-0.108 1.064 0.052 1.439 0.464 0.375 0.417 0.478 0.984 0.314 1.481v0c-0.131 0.413 0.094 0.863 0.511 0.998 0.417 0.131 0.862-0.094 0.998-0.511 0.328-1.017 0.122-2.18-0.647-3.028z"></path>
<path d="M10.303 16.327c-0.141 0.239-0.445 0.352-0.684 0.253-0.239-0.094-0.309-0.366-0.173-0.595 0.141-0.23 0.436-0.342 0.67-0.253 0.234 0.084 0.319 0.352 0.188 0.595zM9.033 17.948c-0.384 0.614-1.209 0.881-1.828 0.6-0.609-0.277-0.792-0.989-0.408-1.589 0.38-0.595 1.177-0.863 1.791-0.605 0.623 0.267 0.825 0.975 0.445 1.594zM10.477 13.608c-1.889-0.492-4.027 0.45-4.847 2.114-0.839 1.697-0.028 3.586 1.88 4.205 1.978 0.637 4.312-0.342 5.123-2.17 0.802-1.795-0.197-3.637-2.156-4.148z"></path>
</svg>
