<!-- Generated by IcoMoon.io -->
<svg version="1.1" xmlns="http://www.w3.org/2000/svg" width="24" height="24" viewBox="0 0 24 24">
<title>sleepy2</title>
<path d="M12 0c-6.627 0-12 5.373-12 12s5.373 12 12 12 12-5.373 12-12-5.373-12-12-12zM7.28 7.749c-0.293 0.293-0.768 0.293-1.061 0s-0.293-0.768 0-1.061c1.044-1.044 3.017-1.044 4.061 0 0.293 0.293 0.293 0.768 0 1.061-0.146 0.146-0.338 0.22-0.53 0.22s-0.384-0.073-0.53-0.22c-0.453-0.453-1.486-0.453-1.939 0zM12 19.5c-1.657 0-3-1.679-3-3.75s1.343-3.75 3-3.75 3 1.679 3 3.75-1.343 3.75-3 3.75zM17.78 7.749c-0.146 0.146-0.338 0.22-0.53 0.22s-0.384-0.073-0.53-0.22c-0.453-0.453-1.486-0.453-1.939 0-0.293 0.293-0.768 0.293-1.061 0s-0.293-0.768 0-1.061c1.044-1.044 3.017-1.044 4.061 0 0.293 0.293 0.293 0.768 0 1.061z"></path>
</svg>
