<!-- Generated by IcoMoon.io -->
<svg version="1.1" xmlns="http://www.w3.org/2000/svg" width="24" height="24" viewBox="0 0 24 24">
<title>sleepy</title>
<path d="M12 24c6.627 0 12-5.373 12-12s-5.373-12-12-12-12 5.373-12 12 5.373 12 12 12zM12 2.25c5.385 0 9.75 4.365 9.75 9.75s-4.365 9.75-9.75 9.75-9.75-4.365-9.75-9.75 4.365-9.75 9.75-9.75z"></path>
<path d="M15 15.75c0 2.071-1.343 3.75-3 3.75s-3-1.679-3-3.75c0-2.071 1.343-3.75 3-3.75s3 1.679 3 3.75z"></path>
<path d="M9.75 7.969c-0.192 0-0.384-0.073-0.53-0.22-0.453-0.453-1.486-0.453-1.939 0-0.293 0.293-0.768 0.293-1.061 0s-0.293-0.768 0-1.061c1.044-1.044 3.017-1.044 4.061 0 0.293 0.293 0.293 0.768 0 1.061-0.146 0.146-0.338 0.22-0.53 0.22z"></path>
<path d="M17.25 7.969c-0.192 0-0.384-0.073-0.53-0.22-0.453-0.453-1.486-0.453-1.939 0-0.293 0.293-0.768 0.293-1.061 0s-0.293-0.768 0-1.061c1.044-1.044 3.017-1.044 4.061 0 0.293 0.293 0.293 0.768 0 1.061-0.146 0.146-0.338 0.22-0.53 0.22z"></path>
</svg>
