<!-- Generated by IcoMoon.io -->
<svg version="1.1" xmlns="http://www.w3.org/2000/svg" width="24" height="24" viewBox="0 0 24 24">
<title>smile2</title>
<path d="M12 0c-6.627 0-12 5.373-12 12s5.373 12 12 12 12-5.373 12-12-5.373-12-12-12zM16.5 6c0.828 0 1.5 0.672 1.5 1.5s-0.672 1.5-1.5 1.5-1.5-0.672-1.5-1.5 0.672-1.5 1.5-1.5zM7.5 6c0.828 0 1.5 0.672 1.5 1.5s-0.672 1.5-1.5 1.5-1.5-0.672-1.5-1.5 0.672-1.5 1.5-1.5zM12 19.5c-2.731 0-5.12-1.46-6.432-3.641l1.93-1.158c0.918 1.527 2.591 2.549 4.502 2.549s3.584-1.022 4.502-2.549l1.93 1.158c-1.312 2.181-3.701 3.641-6.432 3.641z"></path>
</svg>
