<!-- Generated by IcoMoon.io -->
<svg version="1.1" xmlns="http://www.w3.org/2000/svg" width="24" height="24" viewBox="0 0 24 24">
<title>sort-alpha-asc</title>
<path d="M7.5 18v-18h-3v18h-3.75l5.25 5.25 5.25-5.25h-3.75z"></path>
<path d="M21.75 24h-6c-0.277 0-0.531-0.152-0.661-0.396s-0.116-0.54 0.037-0.77l5.223-7.834h-4.599c-0.414 0-0.75-0.336-0.75-0.75s0.336-0.75 0.75-0.75h6c0.277 0 0.531 0.152 0.661 0.396s0.116 0.54-0.037 0.77l-5.223 7.834h4.599c0.414 0 0.75 0.336 0.75 0.75s-0.336 0.75-0.75 0.75z"></path>
<path d="M23.921 9.415l-4.5-9c-0.127-0.254-0.387-0.415-0.671-0.415s-0.544 0.161-0.671 0.415l-4.5 9c-0.185 0.37-0.035 0.821 0.335 1.006 0.108 0.054 0.222 0.079 0.335 0.079 0.275 0 0.54-0.152 0.671-0.415l1.293-2.585h5.073l1.293 2.585c0.185 0.37 0.636 0.521 1.006 0.335s0.521-0.636 0.335-1.006zM16.964 6l1.786-3.573 1.787 3.573h-3.573z"></path>
</svg>
