<!-- Generated by IcoMoon.io -->
<svg version="1.1" xmlns="http://www.w3.org/2000/svg" width="24" height="24" viewBox="0 0 24 24">
<title>sort-numberic-desc</title>
<path d="M7.5 18v-18h-3v18h-3.75l5.25 5.25 5.25-5.25h-3.75z"></path>
<path d="M20.25 24c-0.414 0-0.75-0.336-0.75-0.75v-8.25h-0.75c-0.414 0-0.75-0.336-0.75-0.75s0.336-0.75 0.75-0.75h1.5c0.414 0 0.75 0.336 0.75 0.75v9c0 0.414-0.336 0.75-0.75 0.75z"></path>
<path d="M21.75 0h-4.5c-0.414 0-0.75 0.336-0.75 0.75v4.5c0 0.414 0.336 0.75 0.75 0.75h3.75v3h-3.75c-0.414 0-0.75 0.336-0.75 0.75s0.336 0.75 0.75 0.75h4.5c0.414 0 0.75-0.336 0.75-0.75v-9c0-0.414-0.336-0.75-0.75-0.75zM18 1.5h3v3h-3v-3z"></path>
</svg>
