<!-- Generated by IcoMoon.io -->
<svg version="1.1" xmlns="http://www.w3.org/2000/svg" width="24" height="24" viewBox="0 0 24 24">
<title>spell-check</title>
<path d="M3 6h3v4.5h1.5v-9c0-0.825-0.675-1.5-1.5-1.5h-3c-0.825 0-1.5 0.675-1.5 1.5v9h1.5v-4.5zM3 1.5h3v3h-3v-3zM22.5 1.5v-1.5h-4.5c-0.825 0-1.5 0.675-1.5 1.5v7.5c0 0.825 0.675 1.5 1.5 1.5h4.5v-1.5h-4.5v-7.5h4.5zM15 3.75v-2.25c0-0.825-0.675-1.5-1.5-1.5h-4.5v10.5h4.5c0.825 0 1.5-0.675 1.5-1.5v-2.25c0-0.825-0.206-1.5-1.031-1.5 0.825 0 1.031-0.675 1.031-1.5zM13.5 9h-3v-3h3v3zM13.5 4.5h-3v-3h3v3zM19.5 13.5l-9.75 10.5-5.25-6.75 1.922-1.641 3.328 3.469 8.25-7.078z"></path>
</svg>
