<!-- Generated by IcoMoon.io -->
<svg version="1.1" xmlns="http://www.w3.org/2000/svg" width="24" height="24" viewBox="0 0 24 24">
<title>sphere</title>
<path d="M11.25 1.5c-6.213 0-11.25 5.037-11.25 11.25s5.037 11.25 11.25 11.25c6.213 0 11.25-5.037 11.25-11.25s-5.037-11.25-11.25-11.25zM17.615 16.5c0.201-0.948 0.328-1.955 0.369-3h2.987c-0.078 1.036-0.319 2.042-0.719 3h-2.637zM4.885 9c-0.201 0.948-0.328 1.954-0.369 3h-2.987c0.078-1.036 0.319-2.042 0.719-3h2.637zM16.079 9c0.225 0.96 0.361 1.965 0.405 3h-4.484v-3h4.079zM12 7.5v-4.391c0.342 0.1 0.681 0.266 1.013 0.501 0.623 0.439 1.219 1.116 1.724 1.957 0.349 0.581 0.65 1.229 0.902 1.933h-3.639zM7.763 5.567c0.505-0.841 1.101-1.518 1.724-1.957 0.332-0.234 0.671-0.401 1.013-0.501v4.391h-3.639c0.252-0.705 0.553-1.352 0.902-1.933zM10.5 9v3h-4.484c0.044-1.035 0.18-2.040 0.405-3h4.079zM2.247 16.5c-0.4-0.958-0.641-1.964-0.719-3h2.987c0.041 1.045 0.168 2.052 0.369 3h-2.637zM6.016 13.5h4.484v3h-4.079c-0.225-0.96-0.361-1.965-0.405-3zM10.5 18v4.391c-0.342-0.1-0.681-0.267-1.013-0.501-0.623-0.439-1.219-1.116-1.724-1.957-0.349-0.581-0.65-1.229-0.902-1.933h3.639zM14.737 19.933c-0.505 0.841-1.101 1.517-1.724 1.957-0.332 0.234-0.671 0.401-1.013 0.501v-4.391h3.639c-0.252 0.705-0.553 1.352-0.902 1.933zM12 16.5v-3h4.484c-0.044 1.035-0.18 2.040-0.405 3h-4.079zM17.985 12c-0.041-1.046-0.168-2.052-0.369-3h2.637c0.4 0.958 0.641 1.964 0.719 3h-2.987zM19.469 7.5h-2.248c-0.437-1.377-1.040-2.585-1.765-3.549 0.997 0.477 1.9 1.116 2.689 1.905 0.503 0.503 0.946 1.053 1.324 1.644zM4.356 5.856c0.789-0.789 1.692-1.428 2.689-1.905-0.725 0.964-1.328 2.172-1.765 3.549h-2.248c0.378-0.591 0.821-1.141 1.324-1.644zM3.031 18h2.248c0.437 1.377 1.040 2.585 1.765 3.549-0.997-0.477-1.9-1.116-2.689-1.905-0.503-0.503-0.946-1.053-1.324-1.644zM18.144 19.644c-0.789 0.789-1.692 1.428-2.689 1.905 0.725-0.964 1.328-2.172 1.765-3.549h2.248c-0.378 0.591-0.821 1.141-1.324 1.644z"></path>
</svg>
