<!-- Generated by IcoMoon.io -->
<svg version="1.1" xmlns="http://www.w3.org/2000/svg" width="24" height="24" viewBox="0 0 24 24">
<title>spinner6</title>
<path d="M9 3c0-1.657 1.343-3 3-3s3 1.343 3 3c0 1.657-1.343 3-3 3s-3-1.343-3-3zM18.539 12c0 0 0 0 0 0 0-1.359 1.102-2.461 2.461-2.461s2.461 1.102 2.461 2.461c0 0 0 0 0 0 0 1.359-1.102 2.461-2.461 2.461s-2.461-1.102-2.461-2.461zM16.135 18.364c0-1.231 0.998-2.229 2.229-2.229s2.229 0.998 2.229 2.229c0 1.231-0.998 2.229-2.229 2.229s-2.229-0.998-2.229-2.229zM9.981 21c0-1.115 0.904-2.019 2.019-2.019s2.019 0.904 2.019 2.019c0 1.115-0.904 2.019-2.019 2.019s-2.019-0.904-2.019-2.019zM3.808 18.364c0-1.010 0.819-1.829 1.829-1.829s1.829 0.819 1.829 1.829c0 1.010-0.819 1.829-1.829 1.829s-1.829-0.819-1.829-1.829zM1.344 12c0-0.915 0.741-1.656 1.656-1.656s1.656 0.741 1.656 1.656c0 0.915-0.741 1.656-1.656 1.656s-1.656-0.741-1.656-1.656zM4.136 5.636c0 0 0 0 0 0 0-0.828 0.672-1.5 1.5-1.5s1.5 0.672 1.5 1.5c0 0 0 0 0 0 0 0.828-0.672 1.5-1.5 1.5s-1.5-0.672-1.5-1.5zM21.081 5.636c0 1.501-1.217 2.717-2.717 2.717s-2.717-1.217-2.717-2.717c0-1.501 1.217-2.717 2.717-2.717s2.717 1.216 2.717 2.717z"></path>
</svg>
