<!-- Generated by IcoMoon.io -->
<svg version="1.1" xmlns="http://www.w3.org/2000/svg" width="24" height="24" viewBox="0 0 24 24">
<title>spinner5</title>
<path d="M12 0c-6.627 0-12 5.373-12 12s5.373 12 12 12 12-5.373 12-12-5.373-12-12-12zM12 6c3.314 0 6 2.686 6 6s-2.686 6-6 6-6-2.686-6-6 2.686-6 6-6zM19.159 19.159c-1.912 1.912-4.455 2.966-7.159 2.966s-5.247-1.053-7.159-2.966-2.966-4.455-2.966-7.159c0-2.704 1.053-5.247 2.966-7.159l1.591 1.591c0 0 0 0 0 0-3.070 3.070-3.070 8.066 0 11.137 1.487 1.487 3.465 2.307 5.568 2.307s4.081-0.819 5.568-2.307c3.070-3.070 3.070-8.066 0-11.137l1.591-1.591c1.912 1.912 2.966 4.455 2.966 7.159s-1.053 5.247-2.966 7.159z"></path>
</svg>
