<!-- Generated by IcoMoon.io -->
<svg version="1.1" xmlns="http://www.w3.org/2000/svg" width="24" height="24" viewBox="0 0 24 24">
<title>spinner9</title>
<path d="M12 0c-6.533 0-11.847 5.221-11.996 11.718 0.139-5.669 4.449-10.218 9.746-10.218 5.385 0 9.75 4.701 9.75 10.5 0 1.243 1.007 2.25 2.25 2.25s2.25-1.007 2.25-2.25c0-6.627-5.373-12-12-12zM12 24c6.533 0 11.847-5.221 11.996-11.718-0.139 5.669-4.449 10.218-9.746 10.218-5.385 0-9.75-4.701-9.75-10.5 0-1.243-1.007-2.25-2.25-2.25s-2.25 1.007-2.25 2.25c0 6.627 5.373 12 12 12z"></path>
</svg>
