<!-- Generated by IcoMoon.io -->
<svg version="1.1" xmlns="http://www.w3.org/2000/svg" width="24" height="24" viewBox="0 0 24 24">
<title>spinner</title>
<path d="M9 3c0-1.657 1.343-3 3-3s3 1.343 3 3c0 1.657-1.343 3-3 3s-3-1.343-3-3zM15.364 5.636c0-1.657 1.343-3 3-3s3 1.343 3 3c0 1.657-1.343 3-3 3s-3-1.343-3-3zM19.5 12c0-0.828 0.672-1.5 1.5-1.5s1.5 0.672 1.5 1.5c0 0.828-0.672 1.5-1.5 1.5s-1.5-0.672-1.5-1.5zM16.864 18.364c0-0.828 0.672-1.5 1.5-1.5s1.5 0.672 1.5 1.5c0 0.828-0.672 1.5-1.5 1.5s-1.5-0.672-1.5-1.5zM10.5 21c0 0 0 0 0 0 0-0.828 0.672-1.5 1.5-1.5s1.5 0.672 1.5 1.5c0 0 0 0 0 0 0 0.828-0.672 1.5-1.5 1.5s-1.5-0.672-1.5-1.5zM4.136 18.364c0 0 0 0 0 0 0-0.828 0.672-1.5 1.5-1.5s1.5 0.672 1.5 1.5c0 0 0 0 0 0 0 0.828-0.672 1.5-1.5 1.5s-1.5-0.672-1.5-1.5zM3.386 5.636c0 0 0 0 0 0 0-1.243 1.007-2.25 2.25-2.25s2.25 1.007 2.25 2.25c0 0 0 0 0 0 0 1.243-1.007 2.25-2.25 2.25s-2.25-1.007-2.25-2.25zM1.313 12c0-0.932 0.756-1.688 1.688-1.688s1.688 0.756 1.688 1.688c0 0.932-0.756 1.688-1.688 1.688s-1.688-0.756-1.688-1.688z"></path>
</svg>
