<!-- Generated by IcoMoon.io -->
<svg version="1.1" xmlns="http://www.w3.org/2000/svg" width="24" height="24" viewBox="0 0 24 24">
<title>spinner7</title>
<path d="M9.75 21.75c0-1.243 1.007-2.25 2.25-2.25s2.25 1.007 2.25 2.25c0 1.243-1.007 2.25-2.25 2.25s-2.25-1.007-2.25-2.25zM0 12c0-1.243 1.007-2.25 2.25-2.25s2.25 1.007 2.25 2.25c0 1.243-1.007 2.25-2.25 2.25s-2.25-1.007-2.25-2.25zM19.5 12c0-1.243 1.007-2.25 2.25-2.25s2.25 1.007 2.25 2.25c0 1.243-1.007 2.25-2.25 2.25s-2.25-1.007-2.25-2.25zM2.856 5.106c0-1.243 1.007-2.25 2.25-2.25s2.25 1.007 2.25 2.25c0 1.243-1.007 2.25-2.25 2.25s-2.25-1.007-2.25-2.25zM16.644 18.894c0-1.243 1.007-2.25 2.25-2.25s2.25 1.007 2.25 2.25c0 1.243-1.007 2.25-2.25 2.25s-2.25-1.007-2.25-2.25zM2.856 18.894c0-1.243 1.007-2.25 2.25-2.25s2.25 1.007 2.25 2.25c0 1.243-1.007 2.25-2.25 2.25s-2.25-1.007-2.25-2.25zM16.644 5.106c0-1.243 1.007-2.25 2.25-2.25s2.25 1.007 2.25 2.25c0 1.243-1.007 2.25-2.25 2.25s-2.25-1.007-2.25-2.25z"></path>
</svg>
