<!-- Generated by IcoMoon.io -->
<svg version="1.1" xmlns="http://www.w3.org/2000/svg" width="24" height="24" viewBox="0 0 24 24">
<title>spotify</title>
<path d="M12 0c-6.6 0-12 5.4-12 12s5.4 12 12 12 12-5.4 12-12-5.339-12-12-12zM17.522 17.339c-0.239 0.361-0.661 0.478-1.022 0.239-2.822-1.739-6.361-2.1-10.561-1.139-0.422 0.122-0.778-0.178-0.9-0.539-0.122-0.422 0.178-0.778 0.539-0.9 4.561-1.022 8.522-0.6 11.639 1.322 0.422 0.178 0.483 0.656 0.305 1.017zM18.961 14.039c-0.3 0.422-0.839 0.6-1.261 0.3-3.239-1.978-8.161-2.578-11.939-1.378-0.478 0.122-1.022-0.122-1.139-0.6-0.122-0.478 0.122-1.022 0.6-1.139 4.378-1.322 9.778-0.661 13.5 1.622 0.356 0.178 0.539 0.778 0.239 1.195zM19.078 10.678c-3.839-2.278-10.261-2.522-13.922-1.378-0.6 0.178-1.2-0.178-1.378-0.722-0.178-0.6 0.178-1.2 0.722-1.378 4.261-1.261 11.278-1.022 15.722 1.622 0.539 0.3 0.722 1.022 0.422 1.561-0.305 0.417-1.022 0.595-1.566 0.295z"></path>
</svg>
