<!-- Generated by IcoMoon.io -->
<svg version="1.1" xmlns="http://www.w3.org/2000/svg" width="24" height="24" viewBox="0 0 24 24">
<title>stats-dots</title>
<path d="M3 21h21v3h-24v-24h3zM6.75 19.5c-1.243 0-2.25-1.007-2.25-2.25s1.007-2.25 2.25-2.25c0.066 0 0.132 0.003 0.197 0.009l2.419-4.031c-0.231-0.353-0.365-0.775-0.365-1.228 0-1.243 1.007-2.25 2.25-2.25s2.25 1.007 2.25 2.25c0 0.453-0.135 0.875-0.365 1.228l2.419 4.031c0.065-0.006 0.13-0.009 0.197-0.009 0.050 0 0.1 0.002 0.149 0.005l3.993-6.987c-0.247-0.361-0.392-0.798-0.392-1.268 0-1.243 1.007-2.25 2.25-2.25s2.25 1.007 2.25 2.25c0 1.243-1.007 2.25-2.25 2.25-0.050 0-0.1-0.002-0.149-0.005l-3.993 6.987c0.247 0.361 0.392 0.798 0.392 1.268 0 1.243-1.007 2.25-2.25 2.25s-2.25-1.007-2.25-2.25c0-0.453 0.135-0.875 0.365-1.228l-2.419-4.031c-0.065 0.006-0.13 0.009-0.197 0.009s-0.132-0.003-0.197-0.009l-2.419 4.031c0.231 0.353 0.365 0.775 0.365 1.228 0 1.243-1.007 2.25-2.25 2.25z"></path>
</svg>
