<!-- Generated by IcoMoon.io -->
<svg version="1.1" xmlns="http://www.w3.org/2000/svg" width="24" height="24" viewBox="0 0 24 24">
<title>stats-bars2</title>
<path d="M6.75 9h-4.5c-0.412 0-0.75 0.337-0.75 0.75v13.5c0 0.413 0.338 0.75 0.75 0.75h4.5c0.413 0 0.75-0.337 0.75-0.75v-13.5c0-0.413-0.337-0.75-0.75-0.75zM6.75 22.5h-4.5v-6h4.5v6zM14.25 6h-4.5c-0.413 0-0.75 0.337-0.75 0.75v16.5c0 0.413 0.337 0.75 0.75 0.75h4.5c0.413 0 0.75-0.337 0.75-0.75v-16.5c0-0.413-0.337-0.75-0.75-0.75zM14.25 22.5h-4.5v-7.5h4.5v7.5zM21.75 3h-4.5c-0.413 0-0.75 0.338-0.75 0.75v19.5c0 0.413 0.337 0.75 0.75 0.75h4.5c0.413 0 0.75-0.337 0.75-0.75v-19.5c0-0.412-0.337-0.75-0.75-0.75zM21.75 22.5h-4.5v-9h4.5v9z"></path>
</svg>
