<!-- Generated by IcoMoon.io -->
<svg version="1.1" xmlns="http://www.w3.org/2000/svg" width="24" height="24" viewBox="0 0 24 24">
<title>steam2</title>
<path d="M7.123 19.594c0.636 0 1.261-0.308 1.64-0.877 0.603-0.905 0.359-2.127-0.546-2.73l-1.549-1.032c0.265-0.072 0.544-0.111 0.832-0.111 1.744 0 3.157 1.413 3.157 3.157s-1.413 3.157-3.157 3.157c-1.697 0-3.081-1.339-3.153-3.018l1.686 1.124c0.336 0.224 0.715 0.331 1.090 0.331zM20 0c2.2 0 4 1.8 4 4v15.999c0 2.202-1.8 4-4 4h-16c-2.2 0-4-1.799-4-4v-4.758l2.844 1.896c-0.273 1.481 0.163 3.066 1.308 4.211 1.849 1.849 4.848 1.849 6.697 0 1.136-1.136 1.574-2.705 1.314-4.176l5.837-5.226c1.084-0.156 2.129-0.65 2.962-1.484 2.050-2.050 2.050-5.374 0-7.425s-5.374-2.050-7.425 0c-0.834 0.834-1.329 1.878-1.484 2.962v0l-4.798 7.271c-0.746 0.038-1.485 0.252-2.15 0.642l-5.106-3.404v-6.508c0-2.2 1.8-4 4-4h16zM21 6.75c0-2.071-1.679-3.75-3.75-3.75s-3.75 1.679-3.75 3.75 1.679 3.75 3.75 3.75 3.75-1.679 3.75-3.75zM15 6.75c0-1.243 1.007-2.25 2.25-2.25s2.25 1.007 2.25 2.25-1.007 2.25-2.25 2.25-2.25-1.007-2.25-2.25z"></path>
</svg>
