<!-- Generated by IcoMoon.io -->
<svg version="1.1" xmlns="http://www.w3.org/2000/svg" width="24" height="24" viewBox="0 0 24 24">
<title>stopwatch</title>
<path d="M12 4.528v-1.528h3v-1.5c0-0.828-0.672-1.5-1.5-1.5h-4.5c-0.828 0-1.5 0.672-1.5 1.5v1.5h3v1.528c-5.034 0.383-9 4.589-9 9.722 0 5.385 4.365 9.75 9.75 9.75s9.75-4.365 9.75-9.75c0-5.132-3.966-9.339-9-9.722zM16.553 19.553c-1.417 1.417-3.3 2.197-5.303 2.197s-3.887-0.78-5.303-2.197c-1.417-1.417-2.197-3.3-2.197-5.303s0.78-3.887 2.197-5.303c1.36-1.36 3.151-2.133 5.065-2.193l-0.508 7.36c-0.044 0.616 0.292 0.886 0.746 0.886s0.79-0.27 0.746-0.886l-0.508-7.36c1.914 0.059 3.705 0.832 5.065 2.193 1.417 1.417 2.197 3.3 2.197 5.303s-0.78 3.887-2.197 5.303z"></path>
</svg>
