<!-- Generated by IcoMoon.io -->
<svg version="1.1" xmlns="http://www.w3.org/2000/svg" width="24" height="24" viewBox="0 0 24 24">
<title>stumbleupon2</title>
<path d="M19.969 0h-15.938c-2.217 0-4.031 1.814-4.031 4.031v15.938c0 2.217 1.814 4.031 4.031 4.031h15.938c2.217 0 4.031-1.814 4.031-4.031v-15.938c0-2.217-1.814-4.031-4.031-4.031zM12 7.5c-0.827 0-1.5 0.673-1.5 1.5v6c0 2.481-2.019 4.5-4.5 4.5s-4.5-2.019-4.5-4.5v-3h3v3c0 0.827 0.673 1.5 1.5 1.5s1.5-0.673 1.5-1.5v-6c0-2.481 2.019-4.5 4.5-4.5s4.5 2.019 4.5 4.172v1.453l-1.922 0.563-1.078-0.563v-1.453c0-0.499-0.673-1.172-1.5-1.172zM22.5 15c0 2.481-2.019 4.5-4.5 4.5s-4.5-2.019-4.5-4.828v-2.906l1.078 0.563 1.922-0.563v2.906c0 1.155 0.673 1.828 1.5 1.828s1.5-0.673 1.5-1.5v-3h3v3z"></path>
</svg>
