<!-- Generated by IcoMoon.io -->
<svg version="1.1" xmlns="http://www.w3.org/2000/svg" width="24" height="24" viewBox="0 0 24 24">
<title>stumbleupon</title>
<path d="M12 7.5c-0.825 0-1.5 0.675-1.5 1.5v6c0 2.48-2.020 4.5-4.5 4.5s-4.5-2.020-4.5-4.5v-3h3v3c0 0.825 0.675 1.5 1.5 1.5s1.5-0.675 1.5-1.5v-6c0-2.48 2.020-4.5 4.5-4.5s4.5 2.020 4.5 4.172v1.453l-1.922 0.563-1.078-0.563v-1.453c0-0.497-0.675-1.172-1.5-1.172z"></path>
<path d="M22.5 15c0 2.48-2.020 4.5-4.5 4.5s-4.5-2.020-4.5-4.828v-2.906l1.078 0.563 1.922-0.563v2.906c0 1.153 0.675 1.828 1.5 1.828s1.5-0.675 1.5-1.5v-3h3v3z"></path>
</svg>
