<!-- Generated by IcoMoon.io -->
<svg version="1.1" xmlns="http://www.w3.org/2000/svg" width="24" height="24" viewBox="0 0 24 24">
<title>sun</title>
<path d="M12 19.5c0.828 0 1.5 0.672 1.5 1.5v1.5c0 0.828-0.672 1.5-1.5 1.5s-1.5-0.672-1.5-1.5v-1.5c0-0.828 0.672-1.5 1.5-1.5zM12 4.5c-0.828 0-1.5-0.672-1.5-1.5v-1.5c0-0.828 0.672-1.5 1.5-1.5s1.5 0.672 1.5 1.5v1.5c0 0.828-0.672 1.5-1.5 1.5zM22.5 10.5c0.828 0 1.5 0.672 1.5 1.5s-0.672 1.5-1.5 1.5h-1.5c-0.828 0-1.5-0.672-1.5-1.5s0.672-1.5 1.5-1.5h1.5zM4.5 12c0 0.828-0.672 1.5-1.5 1.5h-1.5c-0.828 0-1.5-0.672-1.5-1.5s0.672-1.5 1.5-1.5h1.5c0.828 0 1.5 0.672 1.5 1.5zM19.425 17.303l1.061 1.061c0.586 0.586 0.586 1.536 0 2.121s-1.536 0.586-2.121 0l-1.061-1.061c-0.586-0.586-0.586-1.536 0-2.121s1.536-0.586 2.121 0zM4.575 6.697l-1.061-1.061c-0.586-0.586-0.586-1.536 0-2.121s1.536-0.586 2.121 0l1.061 1.061c0.586 0.586 0.586 1.536 0 2.121s-1.536 0.586-2.121 0zM19.425 6.697c-0.586 0.586-1.536 0.586-2.121 0s-0.586-1.536 0-2.121l1.061-1.061c0.586-0.586 1.536-0.586 2.121 0s0.586 1.536 0 2.121l-1.061 1.061zM4.575 17.303c0.586-0.586 1.536-0.586 2.121 0s0.586 1.536 0 2.121l-1.061 1.061c-0.586 0.586-1.536 0.586-2.121 0s-0.586-1.536 0-2.121l1.061-1.061z"></path>
<path d="M12 6c-3.314 0-6 2.686-6 6s2.686 6 6 6c3.314 0 6-2.686 6-6s-2.686-6-6-6zM12 15.75c-2.071 0-3.75-1.679-3.75-3.75s1.679-3.75 3.75-3.75 3.75 1.679 3.75 3.75-1.679 3.75-3.75 3.75z"></path>
</svg>
