<!-- Generated by IcoMoon.io -->
<svg version="1.1" xmlns="http://www.w3.org/2000/svg" width="24" height="24" viewBox="0 0 24 24">
<title>superscript2</title>
<path d="M4.547 19.5l1.35-4.5h6.205l1.35 4.5h2.663l-4.5-15h-5.232l-4.5 15h2.663zM8.147 7.5h1.705l1.35 4.5h-4.405l1.35-4.5zM16.5 19.5l3.75-6 3.75 6h-7.5z"></path>
<path d="M20.25 3h-1.5c-0.414 0-0.75-0.336-0.75-0.75s0.336-0.75 0.75-0.75h3c0.414 0 0.75-0.336 0.75-0.75s-0.336-0.75-0.75-0.75h-3c-1.241 0-2.25 1.009-2.25 2.25 0 0.576 0.218 1.102 0.575 1.5 0.412 0.46 1.010 0.75 1.675 0.75h1.5c0.414 0 0.75 0.336 0.75 0.75s-0.336 0.75-0.75 0.75h-3c-0.414 0-0.75 0.336-0.75 0.75s0.336 0.75 0.75 0.75h3c1.241 0 2.25-1.009 2.25-2.25 0-0.576-0.218-1.102-0.575-1.5-0.412-0.46-1.010-0.75-1.675-0.75z"></path>
</svg>
