<!-- Generated by IcoMoon.io -->
<svg version="1.1" xmlns="http://www.w3.org/2000/svg" width="24" height="24" viewBox="0 0 24 24">
<title>svg</title>
<path d="M21.75 9.75c-0.666 0-1.265 0.29-1.677 0.75h-4.452l3.148-3.148c0.617 0.034 1.245-0.184 1.716-0.655 0.879-0.879 0.879-2.303 0-3.182s-2.303-0.879-3.182 0c-0.471 0.471-0.689 1.099-0.655 1.716l-3.148 3.148v-4.452c0.46-0.412 0.75-1.010 0.75-1.677 0-1.243-1.007-2.25-2.25-2.25s-2.25 1.007-2.25 2.25c0 0.666 0.29 1.265 0.75 1.677v4.452l-3.148-3.148c0.034-0.617-0.184-1.245-0.655-1.716-0.879-0.879-2.303-0.879-3.182 0s-0.879 2.303 0 3.182c0.471 0.471 1.099 0.689 1.716 0.655l3.148 3.148h-4.452c-0.412-0.46-1.010-0.75-1.677-0.75-1.243 0-2.25 1.007-2.25 2.25s1.007 2.25 2.25 2.25c0.666 0 1.265-0.29 1.677-0.75h4.452l-3.148 3.148c-0.617-0.034-1.245 0.184-1.716 0.655-0.879 0.879-0.879 2.303 0 3.182s2.303 0.879 3.182 0c0.471-0.471 0.689-1.099 0.655-1.716l3.148-3.148v4.452c-0.46 0.412-0.75 1.010-0.75 1.677 0 1.243 1.007 2.25 2.25 2.25s2.25-1.007 2.25-2.25c0-0.666-0.29-1.265-0.75-1.677v-4.452l3.148 3.148c-0.034 0.617 0.184 1.245 0.655 1.716 0.879 0.879 2.303 0.879 3.182 0s0.879-2.303 0-3.182c-0.471-0.471-1.099-0.689-1.716-0.655l-3.148-3.148h4.452c0.412 0.46 1.010 0.75 1.677 0.75 1.243 0 2.25-1.007 2.25-2.25s-1.007-2.25-2.25-2.25z"></path>
</svg>
