<!-- Generated by IcoMoon.io -->
<svg version="1.1" xmlns="http://www.w3.org/2000/svg" width="24" height="24" viewBox="0 0 24 24">
<title>target</title>
<path d="M24 10.5h-2.365c-0.648-4.178-3.957-7.487-8.135-8.135v-2.365h-3v2.365c-4.178 0.648-7.487 3.957-8.135 8.135h-2.365v3h2.365c0.648 4.178 3.957 7.487 8.135 8.135v2.365h3v-2.365c4.178-0.648 7.487-3.957 8.135-8.135h2.365v-3zM18.582 10.5h-2.338c-0.452-1.279-1.465-2.292-2.744-2.744v-2.338c2.52 0.574 4.508 2.562 5.082 5.082zM12 13.5c-0.828 0-1.5-0.672-1.5-1.5s0.672-1.5 1.5-1.5c0.828 0 1.5 0.672 1.5 1.5s-0.672 1.5-1.5 1.5zM10.5 5.418v2.338c-1.279 0.452-2.292 1.465-2.744 2.744h-2.338c0.574-2.52 2.562-4.508 5.082-5.082zM5.418 13.5h2.338c0.452 1.279 1.465 2.292 2.744 2.744v2.338c-2.52-0.574-4.508-2.562-5.082-5.082zM13.5 18.582v-2.338c1.279-0.452 2.292-1.465 2.744-2.744h2.338c-0.574 2.52-2.562 4.508-5.082 5.082z"></path>
</svg>
