<!-- Generated by IcoMoon.io -->
<svg version="1.1" xmlns="http://www.w3.org/2000/svg" width="24" height="24" viewBox="0 0 24 24">
<title>telegram</title>
<path d="M12 0c-6.628 0-12 5.372-12 12s5.372 12 12 12 12-5.372 12-12-5.372-12-12-12zM17.897 8.227l-1.969 9.277c-0.136 0.661-0.534 0.816-1.088 0.511l-3-2.217-1.439 1.402c-0.169 0.164-0.3 0.3-0.6 0.3-0.389 0-0.323-0.145-0.455-0.516l-1.022-3.356-2.967-0.923c-0.642-0.197-0.647-0.637 0.145-0.952l11.559-4.462c0.525-0.239 1.036 0.127 0.834 0.937z"></path>
</svg>
