<!-- Generated by IcoMoon.io -->
<svg version="1.1" xmlns="http://www.w3.org/2000/svg" width="24" height="24" viewBox="0 0 24 24">
<title>ticket</title>
<path d="M13.5 7.5l3 3-6 6-3-3zM23.473 6.973l-1.723-1.723-0.75 0.75c-0.384 0.384-0.914 0.621-1.5 0.621-1.172 0-2.121-0.95-2.121-2.121 0-0.586 0.238-1.117 0.622-1.5l0.75-0.75-1.723-1.723c-0.702-0.702-1.852-0.702-2.554 0l-13.946 13.946c-0.702 0.702-0.702 1.852 0 2.554l1.723 1.723 0.749-0.749c0.384-0.385 0.915-0.622 1.501-0.622 1.172 0 2.121 0.95 2.121 2.121 0 0.586-0.238 1.117-0.622 1.501l-0.75 0.75 1.723 1.723c0.702 0.702 1.852 0.702 2.554 0l13.946-13.946c0.702-0.703 0.702-1.852 0-2.554zM10.5 19.5l-6-6 9-9 6 6-9 9z"></path>
</svg>
