<!-- Generated by IcoMoon.io -->
<svg version="1.1" xmlns="http://www.w3.org/2000/svg" width="24" height="24" viewBox="0 0 24 24">
<title>truck</title>
<path d="M24 13.5l-3-6h-4.5v-3c0-0.825-0.675-1.5-1.5-1.5h-13.5c-0.825 0-1.5 0.675-1.5 1.5v12l1.5 1.5h1.902c-0.255 0.441-0.402 0.953-0.402 1.5 0 1.657 1.343 3 3 3s3-1.343 3-3c0-0.547-0.147-1.059-0.402-1.5h8.305c-0.255 0.441-0.402 0.953-0.402 1.5 0 1.657 1.343 3 3 3s3-1.343 3-3c0-0.547-0.147-1.059-0.402-1.5h1.902v-4.5zM16.5 13.5v-4.5h3.109l2.25 4.5h-5.359z"></path>
</svg>
