<!-- Generated by IcoMoon.io -->
<svg version="1.1" xmlns="http://www.w3.org/2000/svg" width="24" height="24" viewBox="0 0 24 24">
<title>tumblr2</title>
<path d="M21.75 0h-19.5c-1.237 0-2.25 1.013-2.25 2.25v19.5c0 1.237 1.013 2.25 2.25 2.25h19.5c1.237 0 2.25-1.013 2.25-2.25v-19.5c0-1.237-1.013-2.25-2.25-2.25zM17.152 19.327c-0.708 0.333-1.35 0.567-1.922 0.703-0.572 0.131-1.195 0.202-1.861 0.202-0.759 0-1.205-0.094-1.786-0.286s-1.078-0.464-1.491-0.816c-0.413-0.356-0.694-0.731-0.853-1.13s-0.239-0.975-0.239-1.734v-5.808h-2.25v-2.344c0.652-0.211 1.406-0.516 1.866-0.909 0.464-0.394 0.839-0.867 1.116-1.42 0.281-0.553 0.473-1.256 0.581-2.109h2.353v3.825h3.834v2.958h-3.83v4.247c0 0.961-0.014 1.514 0.089 1.786s0.356 0.553 0.633 0.712c0.366 0.22 0.788 0.328 1.256 0.328 0.839 0 1.673-0.272 2.503-0.816v2.611z"></path>
</svg>
