<!-- Generated by IcoMoon.io -->
<svg version="1.1" xmlns="http://www.w3.org/2000/svg" width="24" height="24" viewBox="0 0 24 24">
<title>tumblr</title>
<path d="M13.501 10.5l-0 5.489c0 1.393-0.018 2.195 0.13 2.59 0.146 0.393 0.514 0.8 0.914 1.036 0.532 0.318 1.138 0.478 1.821 0.478 1.215 0 1.933-0.16 3.135-0.95v3.608c-1.024 0.482-1.919 0.764-2.75 0.959-0.832 0.193-1.731 0.291-2.697 0.291-1.098 0-1.745-0.138-2.588-0.414-0.843-0.278-1.562-0.675-2.157-1.185-0.596-0.514-1.008-1.060-1.239-1.637s-0.345-1.416-0.345-2.514v-8.416h-3.221v-3.399c0.942-0.306 1.996-0.745 2.667-1.316 0.674-0.573 1.213-1.259 1.62-2.061 0.408-0.8 0.688-1.821 0.841-3.059h3.869l-0 6h5.999v4.5h-5.999z"></path>
</svg>
