<!-- Generated by IcoMoon.io -->
<svg version="1.1" xmlns="http://www.w3.org/2000/svg" width="24" height="24" viewBox="0 0 24 24">
<title>tux</title>
<path d="M13.304 17.271c-1.921 0.893-3.707 0.884-4.906 0.797-1.431-0.103-2.582-0.495-3.088-0.837-0.312-0.211-0.736-0.129-0.947 0.182s-0.129 0.736 0.182 0.947c0.813 0.55 2.252 0.96 3.754 1.068 0.255 0.018 0.534 0.030 0.835 0.030 1.307 0 2.968-0.125 4.744-0.951 0.341-0.159 0.489-0.564 0.331-0.906s-0.564-0.489-0.906-0.331zM20.882 16.261c0.065-5.922 0.674-17.114-10.663-16.21-11.194 0.901-8.226 12.726-8.393 16.686-0.148 2.095-0.843 4.656-1.826 7.262h3.026c0.311-1.104 0.54-2.197 0.638-3.238 0.182 0.127 0.378 0.25 0.586 0.368 0.339 0.2 0.63 0.465 0.938 0.746 0.721 0.657 1.537 1.401 3.134 1.494 0.107 0.006 0.215 0.009 0.321 0.009 1.615 0 2.719-0.707 3.607-1.275 0.425-0.272 0.793-0.507 1.138-0.62 0.982-0.308 1.841-0.804 2.482-1.436 0.1-0.099 0.193-0.2 0.28-0.303 0.357 1.31 0.847 2.783 1.39 4.254h6.461c-1.551-2.396-3.151-4.743-3.118-7.739zM2.909 13.040c0-0 0-0.001-0-0.001-0.111-1.933 0.814-3.559 2.065-3.631s2.357 1.435 2.468 3.368c0 0 0 0.001 0 0.001 0.006 0.104 0.009 0.207 0.009 0.31-0.397 0.1-0.755 0.245-1.075 0.413-0.001-0.014-0.002-0.028-0.004-0.043 0-0 0-0 0-0.001-0.107-1.097-0.693-1.926-1.309-1.851s-1.028 1.025-0.921 2.122c0 0 0 0 0 0.001 0.047 0.478 0.184 0.906 0.376 1.229-0.048 0.038-0.182 0.136-0.338 0.25-0.116 0.085-0.258 0.189-0.429 0.315-0.466-0.612-0.785-1.49-0.842-2.482zM15.592 17.817c-0.045 1.022-1.381 1.983-2.615 2.368l-0.007 0.002c-0.513 0.166-0.971 0.459-1.456 0.769-0.814 0.521-1.656 1.060-2.872 1.060-0.080 0-0.162-0.002-0.242-0.007-1.114-0.065-1.635-0.54-2.294-1.141-0.348-0.317-0.708-0.645-1.171-0.917l-0.010-0.006c-1.001-0.565-1.622-1.268-1.662-1.88-0.020-0.304 0.116-0.568 0.403-0.783 0.624-0.468 1.042-0.774 1.319-0.976 0.307-0.225 0.4-0.292 0.469-0.358 0.049-0.047 0.102-0.098 0.159-0.154 0.573-0.557 1.532-1.49 3.004-1.49 0.9 0 1.896 0.347 2.957 1.029 0.5 0.325 0.935 0.475 1.485 0.666 0.379 0.131 0.808 0.279 1.383 0.525l0.009 0.004c0.536 0.22 1.169 0.623 1.14 1.287zM15.296 15.417c-0.103-0.052-0.21-0.101-0.322-0.147-0.518-0.222-0.934-0.372-1.278-0.492 0.19-0.373 0.308-0.837 0.319-1.342 0-0 0-0.001 0-0.001 0.026-1.228-0.593-2.224-1.383-2.226s-1.452 0.992-1.478 2.219c0 0 0 0 0 0.001-0.001 0.040-0.001 0.080-0 0.12-0.487-0.224-0.965-0.386-1.434-0.487-0.002-0.046-0.005-0.092-0.006-0.139 0-0 0-0.001 0-0.001-0.045-2.236 1.327-4.087 3.065-4.134s3.183 1.727 3.229 3.964c0 0 0 0.001 0 0.001 0.020 1.011-0.25 1.942-0.712 2.664z"></path>
</svg>
