<!-- Generated by IcoMoon.io -->
<svg version="1.1" xmlns="http://www.w3.org/2000/svg" width="24" height="24" viewBox="0 0 24 24">
<title>tv</title>
<path d="M22.997 6.753c-2.081-0.299-4.298-0.516-6.611-0.638l3.865-3.865-1.5-1.5-5.263 5.263c-0.492-0.009-0.988-0.013-1.487-0.013v0l-6-6-1.5 1.5 4.551 4.551c-2.834 0.099-5.539 0.34-8.048 0.701-0.645 2.525-1.003 5.314-1.003 8.247s0.358 5.723 1.003 8.247c3.367 0.484 7.086 0.753 10.997 0.753s7.63-0.269 10.997-0.753c0.645-2.525 1.003-5.314 1.003-8.247s-0.358-5.723-1.003-8.247zM20.247 20.498c-2.525 0.323-5.314 0.502-8.247 0.502s-5.723-0.179-8.247-0.502c-0.484-1.683-0.753-3.543-0.753-5.498s0.269-3.815 0.753-5.498c2.525-0.323 5.314-0.502 8.247-0.502s5.723 0.179 8.247 0.502c0.484 1.683 0.753 3.543 0.753 5.498s-0.269 3.815-0.753 5.498z"></path>
</svg>
