<!-- Generated by IcoMoon.io -->
<svg version="1.1" xmlns="http://www.w3.org/2000/svg" width="24" height="24" viewBox="0 0 24 24">
<title>ungroup</title>
<path d="M9 10.875c0 0.619-0.506 1.125-1.125 1.125h-2.25c-0.619 0-1.125-0.506-1.125-1.125v-2.25c0-0.619 0.506-1.125 1.125-1.125h2.25c0.619 0 1.125 0.506 1.125 1.125v2.25z"></path>
<path d="M16.5 10.875c0 0.619-0.506 1.125-1.125 1.125h-2.25c-0.619 0-1.125-0.506-1.125-1.125v-2.25c0-0.619 0.506-1.125 1.125-1.125h2.25c0.619 0 1.125 0.506 1.125 1.125v2.25z"></path>
<path d="M9 18.375c0 0.619-0.506 1.125-1.125 1.125h-2.25c-0.619 0-1.125-0.506-1.125-1.125v-2.25c0-0.619 0.506-1.125 1.125-1.125h2.25c0.619 0 1.125 0.506 1.125 1.125v2.25z"></path>
<path d="M16.5 18.375c0 0.619-0.506 1.125-1.125 1.125h-2.25c-0.619 0-1.125-0.506-1.125-1.125v-2.25c0-0.619 0.506-1.125 1.125-1.125h2.25c0.619 0 1.125 0.506 1.125 1.125v2.25z"></path>
<path d="M21.377 3.75l2.623-2.623v-1.127h-1.127l-2.623 2.623-2.623-2.623h-1.127v1.127l2.623 2.623-2.623 2.623v1.127h1.127l2.623-2.623 2.623 2.623h1.127v-1.127z"></path>
<path d="M0 18h1.5v3h-1.5v-3z"></path>
<path d="M0 13.5h1.5v3h-1.5v-3z"></path>
<path d="M19.5 10.5h1.5v3h-1.5v-3z"></path>
<path d="M19.5 19.5h1.5v3h-1.5v-3z"></path>
<path d="M19.5 15h1.5v3h-1.5v-3z"></path>
<path d="M0 9h1.5v3h-1.5v-3z"></path>
<path d="M0 4.5h1.5v3h-1.5v-3z"></path>
<path d="M12 3h3v1.5h-3v-1.5z"></path>
<path d="M7.5 3h3v1.5h-3v-1.5z"></path>
<path d="M3 3h3v1.5h-3v-1.5z"></path>
<path d="M10.5 22.5h3v1.5h-3v-1.5z"></path>
<path d="M15 22.5h3v1.5h-3v-1.5z"></path>
<path d="M6 22.5h3v1.5h-3v-1.5z"></path>
<path d="M1.5 22.5h3v1.5h-3v-1.5z"></path>
</svg>
