<!-- Generated by IcoMoon.io -->
<svg version="1.1" xmlns="http://www.w3.org/2000/svg" width="24" height="24" viewBox="0 0 24 24">
<title>video-camera</title>
<path d="M9 6.75c0-2.071 1.679-3.75 3.75-3.75s3.75 1.679 3.75 3.75c0 2.071-1.679 3.75-3.75 3.75s-3.75-1.679-3.75-3.75zM0 6.75c0-2.071 1.679-3.75 3.75-3.75s3.75 1.679 3.75 3.75c0 2.071-1.679 3.75-3.75 3.75s-3.75-1.679-3.75-3.75zM18 14.25v-2.25c0-0.825-0.675-1.5-1.5-1.5h-15c-0.825 0-1.5 0.675-1.5 1.5v7.5c0 0.825 0.675 1.5 1.5 1.5h15c0.825 0 1.5-0.675 1.5-1.5v-2.25l6 3.75v-10.5l-6 3.75zM15 18h-12v-4.5h12v4.5z"></path>
</svg>
