<!-- Generated by IcoMoon.io -->
<svg version="1.1" xmlns="http://www.w3.org/2000/svg" width="24" height="24" viewBox="0 0 24 24">
<title>vimeo</title>
<path d="M23.991 6.422c-0.108 2.334-1.739 5.536-4.894 9.595-3.262 4.238-6.023 6.361-8.283 6.361-1.397 0-2.583-1.289-3.548-3.872-0.647-2.367-1.289-4.734-1.936-7.102-0.717-2.583-1.486-3.872-2.311-3.872-0.178 0-0.806 0.38-1.884 1.13l-1.13-1.453c1.186-1.041 2.353-2.081 3.502-3.122 1.58-1.364 2.766-2.081 3.558-2.156 1.866-0.178 3.019 1.097 3.45 3.83 0.464 2.948 0.787 4.781 0.97 5.498 0.539 2.447 1.13 3.67 1.777 3.67 0.502 0 1.256-0.792 2.264-2.381 1.003-1.584 1.542-2.794 1.617-3.623 0.145-1.369-0.394-2.058-1.617-2.058-0.577 0-1.167 0.131-1.777 0.394 1.181-3.863 3.431-5.738 6.759-5.63 2.461 0.066 3.623 1.664 3.483 4.791z"></path>
</svg>
