<!-- Generated by IcoMoon.io -->
<svg version="1.1" xmlns="http://www.w3.org/2000/svg" width="24" height="24" viewBox="0 0 24 24">
<title>vine</title>
<path d="M22.519 11.93c-0.619 0.141-1.214 0.206-1.753 0.206-3.028 0-5.358-2.114-5.358-5.794 0-1.805 0.698-2.738 1.683-2.738 0.938 0 1.561 0.839 1.561 2.545 0 0.97-0.258 2.034-0.45 2.663 0 0 0.933 1.627 3.483 1.13 0.544-1.205 0.834-2.761 0.834-4.125 0-3.675-1.875-5.817-5.311-5.817-3.534 0-5.602 2.714-5.602 6.295 0 3.548 1.659 6.591 4.392 7.978-1.148 2.302-2.611 4.327-4.139 5.855-2.766-3.347-5.269-7.809-6.295-16.523h-4.083c1.889 14.513 7.509 19.134 9 20.020 0.839 0.506 1.566 0.483 2.334 0.047 1.209-0.684 4.833-4.313 6.844-8.555 0.844 0 1.856-0.098 2.864-0.328v-2.859z"></path>
</svg>
