<!-- Generated by IcoMoon.io -->
<svg version="1.1" xmlns="http://www.w3.org/2000/svg" width="24" height="24" viewBox="0 0 24 24">
<title>vk</title>
<path d="M21.75 0h-19.5c-1.237 0-2.25 1.013-2.25 2.25v19.5c0 1.237 1.013 2.25 2.25 2.25h19.5c1.237 0 2.25-1.013 2.25-2.25v-19.5c0-1.237-1.013-2.25-2.25-2.25zM19.439 16.8l-2.194 0.033c0 0-0.473 0.094-1.092-0.333-0.82-0.563-1.594-2.030-2.198-1.837-0.609 0.192-0.591 1.509-0.591 1.509s0.005 0.281-0.136 0.431c-0.15 0.164-0.45 0.197-0.45 0.197h-0.98c0 0-2.166 0.131-4.073-1.856-2.081-2.166-3.919-6.464-3.919-6.464s-0.108-0.281 0.009-0.417c0.131-0.155 0.483-0.164 0.483-0.164l2.348-0.014c0 0 0.22 0.038 0.38 0.155 0.131 0.094 0.202 0.277 0.202 0.277s0.38 0.961 0.881 1.828c0.98 1.692 1.439 2.062 1.772 1.884 0.483-0.262 0.337-2.395 0.337-2.395s0.009-0.773-0.244-1.116c-0.197-0.267-0.567-0.347-0.727-0.366-0.131-0.019 0.084-0.323 0.366-0.464 0.422-0.206 1.167-0.22 2.048-0.211 0.684 0.005 0.886 0.052 1.153 0.113 0.811 0.197 0.534 0.952 0.534 2.761 0 0.581-0.103 1.397 0.314 1.664 0.178 0.117 0.619 0.019 1.72-1.852 0.52-0.886 0.914-1.927 0.914-1.927s0.084-0.188 0.216-0.267c0.136-0.080 0.319-0.056 0.319-0.056l2.47-0.014c0 0 0.741-0.089 0.863 0.248 0.127 0.352-0.277 1.172-1.284 2.517-1.655 2.208-1.842 2.002-0.464 3.277 1.313 1.219 1.584 1.814 1.631 1.889 0.534 0.9-0.609 0.97-0.609 0.97z"></path>
</svg>
