<!-- Generated by IcoMoon.io -->
<svg version="1.1" xmlns="http://www.w3.org/2000/svg" width="24" height="24" viewBox="0 0 24 24">
<title>wikipedia</title>
<path d="M22.659 5.475c0 0.075-0.023 0.145-0.070 0.211-0.047 0.061-0.098 0.094-0.159 0.094-0.469 0.047-0.853 0.197-1.148 0.45-0.3 0.253-0.605 0.745-0.919 1.462l-4.837 10.908c-0.033 0.103-0.122 0.15-0.267 0.15-0.112 0-0.202-0.052-0.267-0.15l-2.714-5.672-3.122 5.672c-0.066 0.103-0.15 0.15-0.267 0.15-0.141 0-0.23-0.052-0.277-0.15l-4.748-10.903c-0.295-0.675-0.609-1.148-0.938-1.416s-0.788-0.436-1.373-0.497c-0.052 0-0.098-0.028-0.141-0.080-0.047-0.052-0.066-0.112-0.066-0.183 0-0.178 0.052-0.267 0.15-0.267 0.422 0 0.867 0.019 1.331 0.056 0.431 0.037 0.834 0.056 1.214 0.056 0.384 0 0.844-0.019 1.369-0.056 0.548-0.038 1.036-0.056 1.463-0.056 0.103 0 0.15 0.089 0.15 0.267s-0.033 0.262-0.094 0.262c-0.422 0.033-0.759 0.141-1.003 0.323s-0.366 0.422-0.366 0.722c0 0.15 0.052 0.342 0.15 0.567l3.923 8.869 2.231-4.209-2.077-4.355c-0.375-0.778-0.68-1.28-0.919-1.505s-0.605-0.361-1.092-0.412c-0.047 0-0.084-0.028-0.127-0.080s-0.061-0.113-0.061-0.183c0-0.178 0.042-0.267 0.131-0.267 0.422 0 0.811 0.019 1.167 0.056 0.342 0.038 0.703 0.056 1.092 0.056 0.38 0 0.778-0.019 1.205-0.056 0.436-0.037 0.867-0.056 1.289-0.056 0.103 0 0.15 0.089 0.15 0.267s-0.028 0.263-0.094 0.263c-0.848 0.056-1.27 0.3-1.27 0.722 0 0.188 0.098 0.483 0.295 0.881l1.373 2.789 1.369-2.55c0.188-0.361 0.286-0.666 0.286-0.909 0-0.581-0.422-0.891-1.27-0.928-0.075 0-0.113-0.089-0.113-0.262 0-0.066 0.019-0.122 0.056-0.178s0.075-0.084 0.112-0.084c0.305 0 0.675 0.019 1.12 0.056 0.422 0.037 0.773 0.056 1.045 0.056 0.197 0 0.483-0.019 0.863-0.047 0.478-0.042 0.881-0.066 1.205-0.066 0.075 0 0.112 0.075 0.112 0.225 0 0.202-0.070 0.305-0.206 0.305-0.492 0.052-0.891 0.188-1.191 0.408s-0.675 0.722-1.125 1.509l-1.833 3.356 2.466 5.025 3.642-8.47c0.127-0.309 0.188-0.595 0.188-0.853 0-0.619-0.422-0.947-1.27-0.989-0.075 0-0.112-0.089-0.112-0.263 0-0.178 0.056-0.267 0.169-0.267 0.309 0 0.675 0.019 1.102 0.056 0.394 0.037 0.722 0.056 0.984 0.056 0.281 0 0.6-0.019 0.966-0.056 0.38-0.037 0.722-0.056 1.027-0.056 0.094 0 0.141 0.075 0.141 0.225z"></path>
</svg>
