<!-- Generated by IcoMoon.io -->
<svg version="1.1" xmlns="http://www.w3.org/2000/svg" width="24" height="24" viewBox="0 0 24 24">
<title>wink2</title>
<path d="M12 0c-6.627 0-12 5.373-12 12s5.373 12 12 12c6.627 0 12-5.373 12-12s-5.373-12-12-12zM16.5 6c0.828 0 1.5 1.007 1.5 2.25s-0.672 2.25-1.5 2.25-1.5-1.007-1.5-2.25 0.672-2.25 1.5-2.25zM8.25 7.314c1.398 0 2.391 0.523 2.391 1.343 0 0.173 0.089 1.008-0.004 1.162-0.348-0.576-1.285-0.989-2.387-0.989s-2.039 0.413-2.387 0.989c-0.093-0.155-0.004-0.989-0.004-1.162 0-0.819 0.993-1.343 2.391-1.343zM11.727 19.5c-2.795 0-5.247-1.507-6.63-3.772 1.65 1.29 4.559 1.542 7.624 0.937 3.287-0.649 5.839-2.146 6.761-4.139-0.508 3.937-3.786 6.974-7.754 6.974z"></path>
</svg>
