<!-- Generated by IcoMoon.io -->
<svg version="1.1" xmlns="http://www.w3.org/2000/svg" width="24" height="24" viewBox="0 0 24 24">
<title>woman</title>
<path d="M13.5 2.25c0 1.243-1.007 2.25-2.25 2.25s-2.25-1.007-2.25-2.25c0-1.243 1.007-2.25 2.25-2.25s2.25 1.007 2.25 2.25z"></path>
<path d="M16.852 12l1.148-0.832-3.124-4.831c-0.139-0.21-0.374-0.337-0.626-0.337h-6c-0.252 0-0.487 0.127-0.626 0.337l-3.124 4.831 1.148 0.832 2.593-3.366 0.901 2.103-3.143 5.762h2.875l0.5 7.5h1.5v-7.5h0.75v7.5h1.5l0.5-7.5h2.875l-3.143-5.762 0.901-2.103 2.593 3.366z"></path>
</svg>
