<!-- Generated by IcoMoon.io -->
<svg version="1.1" xmlns="http://www.w3.org/2000/svg" width="24" height="24" viewBox="0 0 24 24">
<title>wrench</title>
<path d="M23.506 19.169l-10.794-9.252c0.503-0.944 0.788-2.022 0.788-3.167 0-3.728-3.022-6.75-6.75-6.75-0.682 0-1.34 0.102-1.96 0.29l3.9 3.9c0.583 0.583 0.583 1.538 0 2.121l-2.379 2.379c-0.583 0.583-1.538 0.583-2.121 0l-3.9-3.9c-0.188 0.62-0.29 1.279-0.29 1.96 0 3.728 3.022 6.75 6.75 6.75 1.145 0 2.222-0.285 3.167-0.788l9.252 10.794c0.537 0.626 1.454 0.662 2.037 0.078l2.379-2.379c0.583-0.583 0.548-1.5-0.078-2.037z"></path>
</svg>
