<!-- Generated by IcoMoon.io -->
<svg version="1.1" xmlns="http://www.w3.org/2000/svg" width="24" height="24" viewBox="0 0 24 24">
<title>yahoo</title>
<path d="M13.317 13.805v0c2.639-4.631 6.998-12.188 8.194-13.805-0.525 0.352-1.331 0.53-2.072 0.698l-1.12-0.698c-0.9 1.678-4.219 7.102-6.333 10.575-2.142-3.548-4.678-7.645-6.333-10.575-1.313 0.281-1.856 0.295-3.164 0v0 0c0 0 0 0 0 0v0c2.597 3.909 6.755 11.358 8.17 13.805v0l-0.192 10.195 1.519-0.698v-0.019l1.519 0.717-0.188-10.195z"></path>
</svg>
