<!-- Generated by IcoMoon.io -->
<svg version="1.1" xmlns="http://www.w3.org/2000/svg" width="24" height="24" viewBox="0 0 24 24">
<title>yahoo2</title>
<path d="M12.028 1.631c-4.242 0-8.25-0.558-12.028-1.631 0 8.48 0 21.872 0 24 3.783-1.073 7.791-1.631 12.028-1.631 4.191 0 8.189 0.544 11.972 1.631 0-8.166 0-15.23 0-24-3.783 1.087-7.777 1.631-11.972 1.631zM18.675 3.68l-0.145 0.23c-0.136 0.216-0.258 0.398-0.427 0.656-0.225 0.337-0.647 1.008-1.153 1.87-0.141 0.239-0.314 0.525-0.492 0.834-0.342 0.577-0.727 1.228-1.031 1.744-0.127 0.22-0.253 0.445-0.384 0.67-0.338 0.586-0.684 1.191-1.017 1.772-0.342 0.605-0.68 1.2-1.017 1.791v0.595c0 0.825 0.019 1.725 0.047 2.527 0.014 0.366 0.028 1.017 0.047 1.706 0.019 0.82 0.038 1.669 0.061 2.1l0.005 0.131v0.014l-0.141-0.038c-0.056-0.014-0.108-0.028-0.164-0.042-0.169-0.038-0.352-0.066-0.53-0.084-0.108-0.009-0.22-0.014-0.333-0.014 0 0 0 0 0 0s0 0 0 0c-0.112 0-0.225 0.005-0.333 0.014-0.178 0.019-0.361 0.047-0.53 0.084-0.056 0.014-0.113 0.028-0.164 0.042l-0.141 0.038v-0.014l0.005-0.131c0.019-0.427 0.042-1.28 0.061-2.1 0.014-0.689 0.033-1.341 0.047-1.706 0.033-0.806 0.047-1.702 0.047-2.527v-0.595c-0.337-0.595-0.675-1.186-1.017-1.791-0.333-0.586-0.68-1.186-1.013-1.772-0.131-0.225-0.258-0.45-0.384-0.67-0.3-0.52-0.689-1.172-1.031-1.744-0.183-0.305-0.356-0.595-0.492-0.834-0.506-0.862-0.928-1.528-1.153-1.87-0.169-0.258-0.291-0.441-0.427-0.656l-0.145-0.23 0.263 0.075c0.333 0.094 0.675 0.141 1.041 0.141s0.717-0.047 1.045-0.141l0.080-0.023 0.042 0.070c0.647 1.167 2.386 4.027 3.427 5.738 0.356 0.591 0.642 1.055 0.783 1.294 0 0 0 0 0-0.005 0 0 0 0 0 0.005 0.141-0.234 0.427-0.703 0.783-1.294 1.041-1.706 2.78-4.566 3.427-5.738l0.042-0.070 0.080 0.023c0.328 0.094 0.68 0.141 1.045 0.141s0.708-0.047 1.041-0.141l0.248-0.075z"></path>
</svg>
