<!-- Generated by IcoMoon.io -->
<svg version="1.1" xmlns="http://www.w3.org/2000/svg" width="24" height="24" viewBox="0 0 24 24">
<title>yelp</title>
<path d="M14.271 15.316c-0.405 0.408-0.063 1.151-0.063 1.151l3.049 5.091c0 0 0.501 0.671 0.934 0.671 0.436 0 0.866-0.358 0.866-0.358l2.41-3.445c0 0 0.243-0.435 0.248-0.815 0.009-0.542-0.808-0.69-0.808-0.69l-5.707-1.833c-0 0-0.559-0.148-0.931 0.228zM13.981 12.75c0.292 0.495 1.098 0.351 1.098 0.351l5.694-1.664c0 0 0.776-0.316 0.887-0.736 0.109-0.421-0.128-0.929-0.128-0.929l-2.721-3.205c0 0-0.236-0.405-0.725-0.446-0.539-0.046-0.871 0.607-0.871 0.607l-3.217 5.063c0 0-0.284 0.504-0.015 0.96zM11.291 10.776c0.67-0.165 0.777-1.139 0.777-1.139l-0.046-8.106c0 0-0.101-1-0.55-1.271-0.705-0.428-0.914-0.204-1.116-0.174l-4.727 1.756c0 0-0.463 0.153-0.704 0.539-0.344 0.547 0.35 1.349 0.35 1.349l4.914 6.697c0 0 0.485 0.501 1.103 0.349zM10.124 14.056c0.017-0.625-0.751-1.001-0.751-1.001l-5.081-2.567c0 0-0.753-0.31-1.118-0.094-0.28 0.165-0.528 0.465-0.552 0.73l-0.331 4.074c0 0-0.050 0.706 0.133 1.027 0.259 0.456 1.112 0.138 1.112 0.138l5.932-1.311c0.23-0.155 0.635-0.169 0.657-0.996zM11.599 16.255c-0.509-0.261-1.119 0.28-1.119 0.28l-3.972 4.373c0 0-0.496 0.669-0.37 1.079 0.119 0.385 0.315 0.576 0.593 0.711l3.989 1.259c0 0 0.484 0.1 0.85-0.006 0.52-0.151 0.424-0.965 0.424-0.965l0.090-5.92c-0 0-0.020-0.57-0.486-0.811z"></path>
</svg>
