<!-- Generated by IcoMoon.io -->
<svg version="1.1" xmlns="http://www.w3.org/2000/svg" width="60" height="24" viewBox="0 0 60 24">
<title>youtube2</title>
<path d="M8.063 3.97c0.005-0.020 0.008-0.035 0.009-0.042l0.024-0.177-1.11-0.006c-1.003-0.006-1.309 0-1.337 0.025-0.013 0.012-0.359 1.327-0.976 3.71-0.294 1.136-0.542 2.044-0.55 2.017s-0.361-1.324-0.783-2.882c-0.422-1.558-0.776-2.842-0.786-2.852-0.015-0.015-1.359-0.021-2.447-0.012-0.158 0.001-0.246-0.307 1.407 4.948 0.229 0.728 0.571 1.758 0.761 2.289 0.219 0.613 0.375 1.086 0.481 1.481 0.188 0.752 0.195 1.223 0.154 1.772-0.047 0.635-0.054 5.12-0.008 5.195 0.035 0.057 2.138 0.084 2.337 0.030 0.032-0.009 0.053-0.040 0.067-0.209 0.050-0.146 0.054-0.726 0.054-3.135v-3.077l0.135-0.425c0.088-0.278 0.309-1.008 0.492-1.622s0.403-1.35 0.491-1.635c0.793-2.586 1.55-5.129 1.57-5.274l0.016-0.119z"></path>
<path d="M19.831 7.703l-0 0.16-0.025 0-0.014 4.43-0.014 4.294-0.344 0.35c-0.385 0.392-0.693 0.541-0.972 0.471-0.304-0.076-0.296 0.042-0.322-5.034l-0.023-4.672h-2.211v0.161h-0.025v5.069c0 5.431-0 5.428 0.275 5.974 0.22 0.434 0.539 0.646 1.087 0.719h0c0.722 0.096 1.5-0.231 2.221-0.933l0.313-0.305v0.526c0 0.455 0.013 0.53 0.095 0.553 0.135 0.038 1.809 0.040 1.99 0.003l0.15-0.031v-0.155l0.025-0.005v-11.604l-2.208 0.029z"></path>
<path d="M14.224 9.992c-0.209-0.899-0.602-1.503-1.248-1.92-1.014-0.656-2.173-0.726-3.248-0.194-0.783 0.387-1.288 1.029-1.549 1.971-0.031 0.112-0.054 0.207-0.071 0.347-0.066 0.332-0.074 0.829-0.091 3.139-0.026 3.561 0.014 3.984 0.46 4.793 0.437 0.793 1.345 1.375 2.334 1.495 0.298 0.036 0.901-0.020 1.248-0.116 0.788-0.219 1.544-0.842 1.878-1.549 0.144-0.305 0.231-0.518 0.284-0.906 0.098-0.53 0.105-1.387 0.105-3.571-0-2.786-0.009-3.091-0.102-3.489zM11.703 17.25c-0.185 0.141-0.509 0.203-0.773 0.146-0.203-0.043-0.477-0.361-0.561-0.652-0.105-0.362-0.113-5.39-0.022-6.376 0.15-0.493 0.567-0.751 1.023-0.628 0.355 0.096 0.537 0.318 0.641 0.784 0.077 0.346 0.086 0.776 0.070 3.311-0.011 1.68-0.017 2.502-0.072 2.943-0.056 0.278-0.148 0.353-0.305 0.472z"></path>
<path d="M53.915 12.519h1.068l-0.017-0.968c-0.017-0.888-0.030-0.989-0.148-1.23-0.187-0.38-0.463-0.548-0.901-0.548-0.526 0-0.86 0.254-1.017 0.777-0.067 0.222-0.137 1.75-0.087 1.882 0.028 0.074 0.181 0.087 1.102 0.087z"></path>
<path d="M46.776 10.318c-0.142-0.287-0.407-0.428-0.715-0.417-0.24 0.009-0.505 0.11-0.761 0.305l-0.191 0.145v6.952l0.191 0.145c0.432 0.329 0.906 0.399 1.233 0.181 0.129-0.087 0.214-0.206 0.279-0.395 0.085-0.247 0.093-0.563 0.082-3.487-0.012-3.048-0.018-3.227-0.118-3.427z"></path>
<path d="M60.021 7.187c-0.213-2.551-0.382-3.379-0.908-4.442-0.697-1.409-1.704-2.151-3.138-2.314-1.109-0.126-5.281-0.304-9.142-0.39-6.684-0.149-17.673 0.137-19.077 0.496-0.649 0.166-1.135 0.448-1.641 0.952-0.887 0.883-1.415 2.149-1.628 3.9-0.485 3.999-0.495 8.83-0.028 12.973 0.201 1.782 0.615 2.94 1.392 3.894 0.485 0.595 1.321 1.102 2.069 1.253 0.525 0.106 3.15 0.253 6.975 0.391 0.57 0.020 2.078 0.056 3.352 0.078 2.655 0.047 7.538 0.019 10.329-0.059 1.878-0.053 5.302-0.192 5.941-0.241 0.18-0.014 0.597-0.041 0.927-0.059 1.108-0.063 1.813-0.295 2.475-0.815 0.857-0.673 1.52-1.917 1.8-3.376 0.265-1.38 0.443-3.838 0.479-6.629 0.030-2.332-0.010-3.59-0.179-5.611zM33.405 6.262l-1.242 0.015-0.055 13.246-1.077 0.014c-0.833 0.011-1.085-0.001-1.105-0.055-0.014-0.038-0.032-3.024-0.039-6.636l-0.014-6.568-2.426-0.031v-2.070l7.168 0.029 0.031 2.041-1.242 0.015zM41.021 13.854v5.696h-1.962v-0.6c0-0.451-0.017-0.6-0.070-0.6-0.038 0-0.216 0.149-0.395 0.33-0.388 0.394-0.848 0.712-1.24 0.859-0.812 0.304-1.584 0.127-1.913-0.439-0.301-0.518-0.307-0.634-0.307-6.008v-4.935h1.961l0.015 4.647c0.015 4.566 0.017 4.65 0.126 4.836 0.145 0.247 0.366 0.313 0.717 0.216 0.207-0.057 0.348-0.157 0.683-0.491l0.422-0.421v-8.788h1.962v5.696zM48.674 18.736c-0.173 0.385-0.558 0.762-0.874 0.855-0.824 0.243-1.485 0.045-2.248-0.673-0.237-0.223-0.457-0.404-0.491-0.404-0.040 0-0.061 0.175-0.061 0.518v0.518h-1.962v-15.371h1.962v2.507c0 1.379 0.018 2.507 0.041 2.507s0.229-0.183 0.46-0.405c0.53-0.512 0.974-0.736 1.536-0.778 1.003-0.076 1.601 0.44 1.875 1.62 0.085 0.368 0.094 0.788 0.094 4.197-0 4.153-0 4.17-0.332 4.909zM56.976 16.457c-0.017 0.427-0.069 0.917-0.116 1.090-0.273 1.012-0.999 1.728-2.049 2.022-1.414 0.396-2.97-0.253-3.591-1.496-0.349-0.698-0.361-0.837-0.361-4.247 0-2.78 0.010-3.121 0.099-3.5 0.252-1.073 0.876-1.768 1.933-2.153 0.306-0.112 0.626-0.169 0.945-0.175 1.141-0.023 2.273 0.59 2.748 1.589 0.32 0.674 0.36 0.962 0.392 2.862l0.029 1.703-4.184 0.029-0.015 1.145c-0.022 1.615 0.087 2.111 0.523 2.405 0.367 0.247 0.93 0.228 1.237-0.041 0.287-0.252 0.369-0.523 0.397-1.315l0.026-0.695h2.020l-0.032 0.777z"></path>
</svg>
